<?xml version="1.0" encoding="UTF-8" standalone="no"?>
<svg
   width="28cm"
   height="40cm"
   viewBox="0 0 280 400"
   version="1.1"
   id="svg8"
   inkscape:version="1.1.2 (b8e25be833, 2022-02-05)"
   sodipodi:docname="arvore.svg"
   xmlns:inkscape="http://www.inkscape.org/namespaces/inkscape"
   xmlns:sodipodi="http://sodipodi.sourceforge.net/DTD/sodipodi-0.dtd"
   xmlns="http://www.w3.org/2000/svg"
   xmlns:svg="http://www.w3.org/2000/svg"
   xmlns:rdf="http://www.w3.org/1999/02/22-rdf-syntax-ns#"
   xmlns:cc="http://creativecommons.org/ns#"
   xmlns:dc="http://purl.org/dc/elements/1.1/">
  <defs
     id="defs2" />
  <sodipodi:namedview
     id="base"
     pagecolor="#ffffff"
     bordercolor="#666666"
     borderopacity="1.0"
     inkscape:pageopacity="0.0"
     inkscape:pageshadow="2"
     inkscape:zoom="0.35"
     inkscape:cx="1200"
     inkscape:cy="795.71429"
     inkscape:document-units="cm"
     inkscape:current-layer="layer1"
     inkscape:document-rotation="0"
     showgrid="false"
     units="cm"
     inkscape:pagecheckerboard="true"
     inkscape:showpageshadow="false"
     inkscape:window-width="1920"
     inkscape:window-height="1017"
     inkscape:window-x="-8"
     inkscape:window-y="-8"
     inkscape:window-maximized="1" />
  <metadata
     id="metadata5">
    <rdf:RDF>
      <cc:Work
         rdf:about="">
        <dc:format>image/svg+xml</dc:format>
        <dc:type
           rdf:resource="http://purl.org/dc/dcmitype/StillImage" />
      </cc:Work>
    </rdf:RDF>
  </metadata>
  <g
     inkscape:label="Layer 1"
     inkscape:groupmode="layer"
     id="layer1">
    <path
       id="path871"
       style="fill:#501616;fill-opacity:1;stroke:#0af12b;stroke-width:0.264583px;stroke-linecap:butt;stroke-linejoin:miter;stroke-opacity:1"
       d="m 209.72415,35.275299 c -6.52009,3.118304 -1.98467,9.449552 -2.69337,10.44174 -0.70871,0.992187 -5.10254,2.409672 -5.10254,2.409672 l -6.23682,3.118156 c 0,0 -7.51213,-4.252306 -6.09472,-3.401859 1.41742,0.850446 4.67731,3.40208 5.10253,4.67775 0.42523,1.27567 -1.98438,4.110344 -1.98438,4.110344 l -1.13378,-1.133781 0.1416,2.834451 -1.55908,3.401862 -4.53564,2.268077 c 0,0 0.14167,-0.567185 1.55908,-2.268077 1.41741,-1.700896 0.70862,-4.110567 -1.41749,-6.378423 -4.25224,3.118304 -1.27559,6.945459 -0.56689,7.795907 0.70871,0.850447 -0.99234,2.551266 -2.83497,3.543453 -1.84263,0.992188 -2.26771,5.811531 -3.11815,6.803718 -0.85045,0.992188 -5.81147,1.842635 -6.37843,3.96875 -0.56697,2.126117 -4.39404,2.976557 -8.36279,5.953127 -3.96875,2.97656 -10.25623,7.14891 -10.25623,7.14891 0,0 -2.00469,2.00444 -4.61057,3.60805 -2.60588,1.60362 -7.55044,2.43862 -7.55044,2.43862 0,0 -3.3074,-0.60138 -5.71283,1.90427 -2.40542,2.505654 -9.02042,3.608494 -14.13195,3.307814 -5.11153,-0.30068 -4.40978,-1.1e-4 -9.22063,-0.40101 -4.81085,-0.4009 -3.5078,-0.90227 -3.5078,-0.90227 0,0 3.20679,-2.906114 4.20905,-4.209054 1.00226,-1.30293 4.3098,-3.90924 6.21409,-3.60856 1.9043,0.30068 2.33855,-0.66779 5.04465,-1.16892 2.70611,-0.50113 4.5102,-3.30789 6.01359,-3.60857 1.50339,-0.30067 3.30765,-1.102 4.71082,-2.10426 1.40317,-1.00226 6.81549,-0.60138 8.31888,-0.10025 1.50339,0.50113 4.30952,-1.6e-4 5.21157,-0.60152 0.90202,-0.60135 -0.40101,-2.00453 -0.40101,-2.00453 0,0 0.30073,2.90646 -3.7083,1.60352 -4.00904,-1.30294 -13.32994,1.30277 -13.32994,1.30277 0,0 0.40099,-1.60329 0.30076,-2.70578 -0.10023,-1.10249 4.5098,-3.30781 4.5098,-3.30781 0,0 0.7018,-0.701203 0.80202,-2.505272 0.10023,-1.80407 1.80402,-2.305286 1.80402,-2.305286 l 5.01158,-1.403016 c 0,0 -4.20958,0.500665 -4.30981,0.199988 -0.10022,-0.300678 0.50126,-1.002007 0.50126,-1.002007 0,0 2.20486,-0.601337 3.50779,-1.904275 1.30294,-1.30294 5.21173,-4.710877 5.81309,-4.911328 0,0 -0.30058,-1.603486 -1.60352,0.501261 -1.30294,2.104748 -7.41712,5.512324 -7.41712,5.512324 l -1.40302,0.601515 -0.40101,-2.50579 c 0,0 -0.73499,-0.584298 -1.33635,-1.93735 -0.60135,-1.353053 -0.20054,-0.668131 -0.35088,-2.472201 -0.15034,-1.804069 0.70176,-3.958931 0.70176,-3.958931 l 1.90428,-0.968933 c 0,0 0.40084,-0.10041 3.65818,-0.701765 3.25735,-0.601359 6.11383,-4.460194 6.11383,-4.460194 0,0 -3.00688,0.250906 -6.31434,1.30328 -3.30746,1.052373 -3.74137,3.658175 -3.74137,3.658175 0,0 -1.05275,0.902152 -1.40353,0.451135 -0.35079,-0.451016 1.05279,-3.758768 1.60403,-5.061707 0.55124,-1.302939 0.14986,-0.901754 0.14986,-0.901754 l -1.15238,1.052133 c 0,0 -0.60145,-0.200596 -0.35088,-0.551388 0.25056,-0.350791 0.40086,-3.006345 -0.15038,-4.259171 -0.55124,-1.252826 -2.65568,-2.405806 -2.75591,-1.453658 -0.10022,0.952147 -0.30104,2.505679 0.601,4.059183 0.90203,1.553504 2.30532,2.205165 2.45567,2.706295 0.15033,0.501129 -0.55105,3.290631 -1.20252,4.794023 -0.65146,1.503391 -0.95239,3.290755 -0.95239,3.290755 0,0 -0.20015,3.758343 1.20302,5.412073 1.40316,1.653728 1.15239,3.942395 1.15239,3.942395 0,0 -2.70596,2.355366 -3.40755,4.159435 -0.70158,1.804066 -2.03811,2.422076 -2.03811,2.422076 0,0 -1.90401,0.10019 -2.85616,-0.15038 -0.95215,-0.25057 -2.4722,-2.706295 -2.4722,-2.706295 0,0 -2.25525,-3.808153 -2.60604,-4.25917 -0.35079,-0.451019 -0.73794,-0.152448 -0.73794,-0.152448 l 4.11034,7.370613 c 0,0 -1.41733,3.7e-4 -4.53564,-0.85008 -3.1183,-0.850446 -4.25253,0.28348 -5.66994,0 -1.41741,-0.28348 -0.99219,-1.984373 -0.99219,-1.984373 l 1.1343,-1.417487 -0.14211,-2.268077 1.1343,-1.275374 2.26756,-1.275892 c 0,0 0.70878,0.708631 3.40186,1.559079 2.69308,0.850445 6.37842,0.425296 6.37842,0.425296 0,0 -3.76787,-2.527493 -6.60269,-2.77554 -2.83482,-0.248047 -2.37424,-0.141891 -1.16944,-0.354502 5.31528,-0.6024 5.36246,-1.972712 6.35465,-5.232754 -5.81139,0.566962 -6.80372,3.827155 -6.80372,3.827155 0,0 -2.12582,3.118009 -1.27537,1.275374 0.85044,-1.842632 -0.42523,-4.110048 -2.97657,-5.385715 -1.41741,4.677454 1.84279,5.953124 1.84279,5.953124 l -2.97657,2.125967 v 2.976563 l -1.13429,1.275373 c 0,0 0.14174,1.984524 -0.99219,2.834973 -1.13393,0.85045 0.28385,3.96889 -0.85008,4.81934 -1.13393,0.85045 -3.96882,6.23639 -3.40186,7.6538 0.56697,1.41741 -6.23653,7.08742 -8.50439,7.08742 -2.26786,0 -15.969933,12.425524 -22.064801,15.969054 -6.094865,3.54353 -10.914062,1.70119 -10.914062,1.70119 l 2.834971,-2.12597 c 0,0 -2.409746,1.70067 -4.819346,1.70067 -2.409597,0 -5.811015,-4.96094 -5.811015,-4.96094 l -2.268077,-0.47232 c 0,0 -1.275445,0.70863 -5.669421,0.56689 -4.393972,-0.14174 -2.693376,-0.56689 -2.693376,-0.56689 0,0 3.685417,-1.55915 7.795906,-1.98437 4.11049,-0.42523 16.922999,1.57871 16.922999,1.57871 0,0 1.503283,0.2506 1.553392,0.15038 0.05011,-0.10023 0.451136,-1.00201 0.451136,-1.00201 0,0 1.353177,-1.5537 2.455664,-2.75642 1.102487,-1.20271 6.464493,-4.5099 7.56698,-4.91081 1.102487,-0.4009 3.558191,-0.70192 6.564979,-1.30328 l 1.05213,-0.70125 c -0.60136,0.40091 -5.411976,0.80147 -7.015594,0.65113 -0.751695,-0.60136 3.758289,-5.178354 5.211564,-6.581514 0.95215,0 5.863141,-2.25509 7.566981,-3.95894 0,0 0.10044,-0.1 -1.15239,0.90228 -1.252821,1.00226 -7.617099,2.93987 -7.617099,2.93987 0,0 -1.102825,1.20266 -1.303279,1.80402 -0.200451,0.60136 -2.9e-5,8e-5 -0.100253,0.30076 -0.100227,0.30068 2.48e-4,0.10026 -3.006535,2.10478 -3.006783,2.004524 -1.00217,3.908914 -3.608049,4.309814 -2.605878,0.40091 -8.252208,5.91334 -8.252208,5.91334 l -9.352918,-0.64596 -8.386569,-0.53123 c 0,0 0.425667,-1.16966 1.063503,-0.95705 2.480469,0.85045 6.944871,-0.73196 9.354466,-1.75958 -1.452846,0 -4.00389,-0.85052 -5.988265,-0.67335 -1.984375,0.17718 -3.83904,1.91358 -3.83904,1.91358 0,0 -0.106233,-0.24834 0.425296,-0.95704 4.78376,-2.83483 3.189322,-4.60629 1.842781,-7.228504 -5.173549,1.59458 -3.153738,6.141674 -2.728516,6.956684 0.425225,0.81501 -0.566891,2.48047 -0.566891,2.48047 l -0.531749,0.0238 -1.417484,0.99218 -4.535641,0.14159 c 0,0 -2.409376,2.55164 -5.669421,1.70119 -3.260045,-0.85044 -5.527828,2.12597 -5.527828,2.12597 l -0.850594,0.8506 c -0.850447,0.85044 -5.669939,3.40171 -11.623063,4.53564 -3.261351,4.20219 3.119431,3.92371 0.03359,9.21597 3.207235,3.00679 3.664293,2.22742 9.276953,2.82877 5.612661,0.60136 2.605893,2.80676 4.009058,1.60404 1.403165,-1.20271 6.013909,0.80181 9.221142,2.00453 3.207234,1.2027 25.056252,2.20462 26.659871,4.61005 1.603618,2.40542 1.203028,-3.40755 1.203028,-3.40755 0,0 -10.223089,-2.20518 -21.849312,-2.80654 -11.626225,-0.60136 -15.034224,-6.61458 -15.034224,-6.61458 0,0 18.508595,0.20019 21.114473,1.002 2.605879,0.80181 22.450631,-4.81076 25.657865,-3.60805 3.207235,1.20272 10.423371,1.00205 19.243272,-0.80201 8.81989,-1.80408 12.62885,0.60166 17.23925,-0.80151 4.6104,-1.40316 11.82657,13.23 13.43019,16.43724 1.60361,3.20723 10.62387,0.60112 19.44377,3.00654 8.81989,2.40543 3.60833,-0.20042 10.62416,-3.80856 -4.6104,-5.01129 -9.22096,1.60343 -14.43271,1.20251 -5.21176,-0.4009 -4.00898,-1.60352 -9.62163,-1.60352 -5.61267,0 -4.61049,-4.81082 -6.2141,-5.81307 -1.60362,-1.00227 -5.61273,-7.01591 -6.21409,-8.21862 -0.60136,-1.20272 0.2004,-4.61043 -0.2005,-6.01359 -0.40091,-1.40317 4.00904,-6.41444 11.82667,-5.81308 7.81764,0.60135 12.90618,-1.95596 12.90618,-1.95596 l 5.95313,-4.53564 c 0,0 5.66979,3.9689 10.77247,6.80372 5.10268,2.83482 10.77247,6.8032 10.77247,6.8032 0,0 -1.15778,-3.68526 -2.92954,-3.96875 -1.77177,-0.28348 -9.99281,-7.44103 -14.81202,-9.77976 4.89008,-2.26786 20.43442,5.10245 21.9227,5.66942 1.48828,0.56697 9.49702,-4.29919 13.53664,-5.07876 4.03962,-0.77958 1.67951,0.56338 7.69307,0.96428 -4.81085,-6.013564 -14.46593,1.06948 -18.9761,2.17196 -4.51017,1.10249 -14.29887,-3.9088 -14.29887,-3.9088 0,0 -4.20931,-1.00232 -5.21157,-2.20504 -1.00226,-1.20271 1.00201,-1.30328 1.00201,-1.30328 0,0 2.00449,0.80226 3.80855,1.70429 1.80407,0.90204 8.81984,-0.50136 5.71283,-0.90227 -3.10701,-0.4009 -6.81509,-2.004534 -6.81509,-2.004534 0,0 -5.41218,1.403064 0.10025,-0.40101 5.51244,-1.80407 -1.30297,0.30077 5.81308,-5.61257 -7.11605,-2.3052 -9.95608,8.318714 -10.35699,7.717364 -0.40089,-0.60136 -1.3028,0.70192 -3.40754,1.30328 -2.10475,0.60135 -3.5077,-1.3034 -7.11584,-3.708824 -3.60813,-2.40543 -10.62416,-1.50327 -10.62416,-1.50327 l 2.40554,-2.20503 c 0,0 7.9211,0.44384 12.69225,-0.76378 -3.98408,0.88255 -10.58747,-0.94 -10.58747,-0.94 l 14.76241,-10.1601 7.22849,-6.095234 3.44889,-1.416965 c 0,0 1.41786,1.984078 3.54397,1.275373 2.12612,-0.708705 11.05565,1.417484 11.05565,1.417484 0,0 4.25224,0.14174 6.94532,1.984372 0,0 13.03996,-8.787944 13.60692,-2.976559 0.56697,5.811389 0.99226,1.417336 7.37061,7.512199 1.98437,-3.68526 -1.5593,-7.228865 -4.81935,-7.370605 -3.26004,-0.141742 2.83497,-4.677457 -8.07909,-1.984375 -10.91406,2.69308 -12.04777,2.55156 -12.61473,0.283702 4.11049,-1.559152 3.73259,-6.614583 3.73259,-6.614583 0,0 0.70826,1.13393 2.40915,0.992188 1.70089,-0.14174 7.65432,-5.244272 8.6465,-6.094717 0.99219,-0.850448 18.56786,-1.275892 22.53661,-1.275892 2.12612,3.401785 5.52805,2.267709 9.78028,1.133782 -1.55915,-4.393975 -7.08712,-1.700896 -7.37061,-1.984375 -0.28348,-0.283483 -1.98445,-1.417339 0.56689,-1.559079 2.55134,-0.141742 5.81131,-0.708779 8.50439,-4.394047 -5.24442,-3.827009 -11.33884,4.960938 -11.33884,4.960938 0,0 -3.6105,1.697516 -11.02723,1.497066 -7.41673,-0.200451 -10.82442,-1.002456 -15.83573,3.207038 -5.0113,4.209497 -8.01812,2.205035 -8.01812,2.205035 0,0 -0.20042,5.211574 -5.81308,7.216097 -5.61266,2.004521 -10.23813,-1.415417 -10.23813,-1.415417 l -1.70119,-1.134298 c 0,0 2.1262,-2.834526 4.39405,-4.251939 0.42523,-4.677455 5.52783,-5.527826 5.52783,-5.527826 l 2.83496,-2.126485 1.84279,-0.141594 6.6616,-5.244642 c 0,0 7.9375,-0.141371 11.90625,-3.826639 3.96875,-3.685267 4.20492,-2.693154 7.18148,-4.394047 2.97656,-1.700893 7.22901,-1.842782 7.22901,-1.842782 l 12.61474,-1.559078 -10.06347,0.283704 2.55127,-1.275892 0.85059,-3.685046 -1.41749,3.543453 -2.69337,1.417485 -10.86652,2.267562 c 0,0 -4.3942,2.551339 -7.22902,4.960937 -2.83482,2.409598 -10.48876,2.976563 -10.48876,2.976563 l -4.39405,2.834969 -4.67723,3.259748 1.41748,-3.259748 c 0,0 1.2756,-1.701189 1.55908,-2.693376 0.28348,-0.992188 1.41719,-2.12582 2.69286,-3.259749 1.27567,-1.133928 5.1026,-2.834969 8.50439,-3.827157 3.40178,-0.992187 8.50491,-1.606103 8.50491,-1.606103 l -1.1343,-0.709001 -6.09472,1.275891 c 0,0 -1.70105,-0.14211 0.14159,-2.126486 1.84263,-1.984375 3.11867,-4.960863 1.1343,-8.50439 z M 164.5388,94.047936 c 0.2939,-0.0651 0.57653,-0.14183 0.83819,-0.23823 -0.26497,0.0864 -0.54727,0.1646 -0.83819,0.23823 z m -43.1643,-13.25397 c 0.94207,0.0269 2.05809,0.26191 3.31092,0.88832 4.00904,2.00452 5.61257,1.80402 5.61257,1.80402 0,0 -1.20262,3.80841 -5.61257,5.21157 -4.40995,1.40317 -8.82035,1.40338 -9.62216,2.80655 -0.80181,1.40316 -2.20456,-1.20283 -0.40049,-2.40554 1.80407,-1.20271 1.60326,-6.61458 2.60553,-6.61458 h 1.00252 l -0.20051,-0.80202 c 0,0 1.23165,-0.94753 3.30419,-0.88832 z m 27.68462,17.54673 c 3.75212,0.0269 8.07436,1.12349 12.70982,4.255564 -6.81538,4.40994 -4.00902,4.41001 -7.81761,4.20956 -3.80859,-0.20045 -6.0136,1.0019 -8.01812,0.601 -2.00453,-0.40091 -7.81782,-2.00454 -10.62415,-4.00906 0,0 5.4954,-5.116274 13.75006,-5.057064 z m -40.78459,5.729374 c 1.27754,-0.0146 3.43523,0.52857 6.6244,0.84749 5.66965,0.56697 18.28505,-1.98459 23.38772,3.68505 -6.2366,2.83482 -18.7099,10.6308 -26.22217,9.21339 -7.51228,-1.41741 -13.323731,-4.96094 -13.323731,-4.96094 1.417411,-1.84263 8.079091,-4.96101 8.079091,-7.37061 0,-1.0542 0.46105,-1.40299 1.45469,-1.41438 z m -58.825863,8.14782 -0.600997,1.40302 c 0,0 9.019875,0.60125 12.026655,1.60352 3.006781,1.00226 6.815802,3.00684 3.608568,4.20956 -3.207235,1.20271 -26.058876,0.2005 -26.058876,0.2005 -3.407686,-2.20497 11.02465,-7.4166 11.02465,-7.4166 z" />
  </g>
</svg>
