<?xml version="1.0" encoding="UTF-8" standalone="no"?>
<svg
   width="850"
   height="1050"
   viewBox="0 0 224.89584 277.8125"
   version="1.1"
   id="svg8"
   inkscape:version="1.1.2 (b8e25be833, 2022-02-05)"
   sodipodi:docname="forca4.svg"
   xmlns:inkscape="http://www.inkscape.org/namespaces/inkscape"
   xmlns:sodipodi="http://sodipodi.sourceforge.net/DTD/sodipodi-0.dtd"
   xmlns="http://www.w3.org/2000/svg"
   xmlns:svg="http://www.w3.org/2000/svg"
   xmlns:rdf="http://www.w3.org/1999/02/22-rdf-syntax-ns#"
   xmlns:cc="http://creativecommons.org/ns#"
   xmlns:dc="http://purl.org/dc/elements/1.1/">
  <defs
     id="defs2">
    <inkscape:path-effect
       effect="spiro"
       id="path-effect2063"
       is_visible="true"
       lpeversion="1" />
    <inkscape:path-effect
       effect="spiro"
       id="path-effect4198"
       is_visible="true"
       lpeversion="1" />
    <inkscape:path-effect
       effect="spiro"
       id="path-effect4194"
       is_visible="true"
       lpeversion="1" />
    <inkscape:path-effect
       effect="spiro"
       id="path-effect2063-9"
       is_visible="true"
       lpeversion="1" />
  </defs>
  <sodipodi:namedview
     id="base"
     pagecolor="#ffffff"
     bordercolor="#666666"
     borderopacity="1.0"
     inkscape:pageopacity="0.0"
     inkscape:pageshadow="2"
     inkscape:zoom="2"
     inkscape:cx="689.5"
     inkscape:cy="529.25"
     inkscape:document-units="cm"
     inkscape:current-layer="layer4"
     inkscape:document-rotation="0"
     showgrid="false"
     units="px"
     inkscape:pagecheckerboard="true"
     inkscape:showpageshadow="false"
     showguides="false"
     inkscape:window-width="1920"
     inkscape:window-height="1017"
     inkscape:window-x="-8"
     inkscape:window-y="-8"
     inkscape:window-maximized="1" />
  <metadata
     id="metadata5">
    <rdf:RDF>
      <cc:Work
         rdf:about="">
        <dc:format>image/svg+xml</dc:format>
        <dc:type
           rdf:resource="http://purl.org/dc/dcmitype/StillImage" />
      </cc:Work>
    </rdf:RDF>
  </metadata>
  <g
     inkscape:groupmode="layer"
     id="layer8"
     inkscape:label="banco" />
  <g
     inkscape:groupmode="layer"
     id="layer6"
     inkscape:label="sapatos" />
  <g
     inkscape:label="forca"
     inkscape:groupmode="layer"
     id="layer1"
     style="display:inline"
     sodipodi:insensitive="true">
    <path
       id="rect846"
       style="fill:#ff0000;fill-rule:evenodd;stroke:#ff0000;stroke-width:0;stop-color:#000000"
       d="m 23.686803,15.572689 c -3.486483,9.07143 -3.486469,17.386758 0,24.946282 H 202.44806 c 3.23049,-7.994439 4.3416,-16.199348 0,-24.946282 z m 165.211787,8.67854 a 4.3703245,5.2117556 0 0 1 4.37016,5.212085 4.3703245,5.2117556 0 0 1 -4.37016,5.211569 4.3703245,5.2117556 0 0 1 -4.37061,-5.211569 4.3703245,5.2117556 0 0 1 4.37061,-5.212085 z" />
    <ellipse
       style="fill:#ff0000;fill-rule:evenodd;stroke:#ff0000;stroke-width:0;stop-color:#000000"
       id="path972"
       cx="54.33408"
       cy="267.89056"
       rx="54.145088"
       ry="9.3549109" />
    <path
       id="rect844"
       style="fill:#550000;fill-rule:evenodd;stroke:#ff0000;stroke-width:0;stop-color:#000000"
       d="m 42.333326,5.3672642 c 7.370536,-6.22450266 14.741071,-5.86857661 22.111607,0 V 267.87166 c -14.957951,4.33567 -17.143055,1.37256 -22.111607,0 z"
       sodipodi:nodetypes="ccccc" />
    <circle
       style="fill:#666666;fill-rule:evenodd;stroke:#ff0000;stroke-width:0;stop-color:#000000"
       id="path1604"
       cx="49.569092"
       cy="21.013557"
       r="4.4822459" />
    <circle
       style="fill:#666666;fill-rule:evenodd;stroke:#ff0000;stroke-width:0;stop-color:#000000"
       id="path1604-8"
       cx="58.260738"
       cy="33.569859"
       r="4.4822459" />
    <rect
       style="fill:#000000;fill-rule:evenodd;stroke:#ff0000;stroke-width:0;stop-color:#000000"
       id="rect1876"
       width="1.1339285"
       height="6.2366071"
       x="49.042412"
       y="17.878269" />
    <rect
       style="fill:#000000;fill-rule:evenodd;stroke:#ff0000;stroke-width:0;stop-color:#000000"
       id="rect1958"
       width="1.1339285"
       height="6.2366071"
       x="32.161728"
       y="-61.815247"
       transform="rotate(91.005068)" />
    <rect
       style="fill:#000000;fill-rule:evenodd;stroke:#ff0000;stroke-width:0;stop-color:#000000"
       id="rect2173"
       width="1.1339285"
       height="6.2366071"
       x="58.393375"
       y="29.133501"
       transform="rotate(1.4695485)" />
    <rect
       style="fill:#000000;fill-rule:evenodd;stroke:#ff0000;stroke-width:0;stop-color:#000000"
       id="rect2175"
       width="1.1339285"
       height="6.2366071"
       x="19.642059"
       y="-53.053661"
       transform="rotate(90.906567)" />
    <circle
       id="path2819"
       style="fill:#666666;stroke:#ff0000;stroke-width:0.264583"
       cx="234.53423"
       cy="52.538689"
       r="0" />
    <circle
       id="path2821"
       style="fill:#666666;stroke:#ff0000;stroke-width:0.264583"
       cx="234.53423"
       cy="52.538689"
       r="0" />
    <path
       style="fill:#d45500;fill-opacity:1;fill-rule:evenodd;stroke:#000000;stroke-width:0.312208;stroke-miterlimit:4;stroke-dasharray:1.87326, 1.87326;stroke-dashoffset:0;stroke-opacity:1;stop-color:#000000"
       id="path16054"
       d="m 190.93122,31.651438 c -0.82804,-0.531391 -1.44969,-1.172094 -2.34175,-1.668296 -0.21447,-0.119299 -0.43246,-0.241155 -0.68687,-0.326831 -0.24671,-0.08309 -0.53139,-0.115285 -0.79708,-0.172928 -0.9462,0.02927 -1.90493,-0.0098 -2.83859,0.08782 -0.32878,0.03438 -0.59282,0.187519 -0.87022,0.299968 -0.38854,0.157498 -1.35071,0.63806 -1.64533,0.845638 -0.61466,0.433089 -0.99513,0.901112 -1.45296,1.394621 -1.26404,1.64528 -1.6952,3.451641 -1.99463,5.240487 -0.13295,0.907506 -0.25223,1.81983 0.004,2.724098 0.13406,0.474541 0.29711,0.747571 0.52794,1.209469 0.44165,0.765778 1.04514,1.495214 1.77745,2.173661 0.37854,0.350719 0.78112,0.691708 1.16316,1.041033 0.2357,0.20184 0.48431,0.398344 0.70707,0.605516 0.63434,0.589936 0.90098,0.925184 1.47206,1.544049 0.74734,0.809855 1.48647,1.619689 2.20222,2.440088 0.86558,0.900382 1.47741,1.869868 2.11966,2.832042 0.87838,1.315936 0.0661,0.04698 0.87809,1.333833 0.80553,1.175891 1.31151,2.41302 1.70975,3.659989 0.3619,1.275058 0.38003,2.572922 0.41131,3.862929 0.0219,1.238079 0.004,2.476208 -0.003,3.7143 -0.004,0.924617 -0.007,1.849238 -0.0103,2.773856 -0.0314,0.530017 0.0401,1.063098 -9.6e-4,1.592853 -0.0184,0.23102 -0.0943,0.550269 -0.14309,0.77888 -0.1665,0.635481 -0.24654,1.276576 -0.30548,1.918444 0,0 1.99387,0.0066 1.99387,0.0066 v 0 c 0.0576,-0.638993 0.14158,-1.276806 0.30425,-1.909614 0.0484,-0.229032 0.12683,-0.563543 0.145,-0.794379 0.0416,-0.529702 -0.0354,-1.062821 -6.8e-4,-1.592792 -9.6e-4,-0.924548 -9.6e-4,-1.849096 0.003,-2.773643 0.003,-1.238732 -9.5e-4,-2.477488 -0.0147,-3.716192 -0.0262,-1.29697 -0.0396,-2.602337 -0.40192,-3.8844 -0.40483,-1.253415 -0.90283,-2.499263 -1.71913,-3.680586 -0.91889,-1.454777 0.1058,0.147733 -0.88209,-1.334764 -0.26796,-0.402079 -0.60539,-0.965167 -0.90156,-1.363585 -0.33649,-0.452662 -0.85948,-1.047064 -1.23159,-1.481514 -0.71691,-0.820645 -1.45753,-1.630686 -2.20258,-2.441898 -0.51146,-0.556883 -0.89274,-1.022293 -1.45939,-1.557897 -0.21859,-0.206608 -0.46626,-0.401335 -0.69938,-0.602003 -0.19505,-0.18016 -0.39011,-0.360319 -0.58516,-0.54048 -0.19183,-0.165781 -0.3911,-0.328485 -0.57549,-0.497349 -0.72934,-0.667958 -1.33072,-1.388095 -1.77663,-2.142388 -0.2158,-0.429617 -0.39939,-0.746769 -0.52773,-1.188709 -0.25966,-0.894179 -0.13752,-1.799296 -0.0189,-2.697591 0.29261,-1.774386 0.71343,-3.564866 1.99343,-5.191054 0.49435,-0.523339 0.7925,-0.903572 1.46061,-1.356447 0.24598,-0.166735 0.53831,-0.306485 0.82399,-0.448017 0.26385,-0.130713 0.53249,-0.259562 0.82268,-0.367786 0.2752,-0.102633 0.98031,-0.07886 0.86721,-0.262439 -0.129,-0.209396 -0.72819,-0.06859 -1.09229,-0.102887 0.26372,0.0439 0.54555,0.05873 0.79115,0.131685 0.25635,0.07615 0.47506,0.193776 0.68942,0.308124 0.90437,0.482439 1.50642,1.126954 2.31697,1.660704 0,0 1.99657,-0.08429 1.99657,-0.08429 z" />
    <path
       style="fill:#aa4400;fill-opacity:1;fill-rule:evenodd;stroke:#000000;stroke-width:0.312208;stroke-miterlimit:4;stroke-dasharray:1.87325, 1.87325;stroke-dashoffset:0;stroke-opacity:1;stop-color:#000000"
       id="path16056"
       d="m 181.80193,41.045965 c 0.037,0.08426 0.0702,0.17054 0.11121,0.252778 0.12964,0.259871 0.27142,0.512929 0.40664,0.769675 0.1474,0.279887 0.41968,0.792967 0.58922,1.053494 0.11972,0.183968 0.25595,0.355595 0.38391,0.53339 0.31027,0.346871 0.47962,0.572973 0.84896,0.847513 0.1509,0.112173 0.31679,0.200671 0.47817,0.295611 0.55026,0.323731 1.06718,0.571093 1.65539,0.808469 0.52525,0.162936 1.05893,0.370274 1.61584,0.37052 0.6427,2.64e-4 1.69491,0.145788 2.40832,-0.209455 0.15256,-0.07597 0.28587,-0.188418 0.4288,-0.282625 0.88846,-0.753542 1.24,-1.867488 1.48428,-2.992067 0.0775,-0.540785 0.16824,-1.086038 0.11147,-1.63507 -0.0177,-0.171545 -0.0614,-0.339077 -0.0921,-0.508614 0,0 -1.49672,0.03001 -1.49672,0.03001 v 0 c 0.0308,0.161208 0.0747,0.320296 0.0926,0.483624 0.0588,0.535455 -0.0327,1.068027 -0.11017,1.595077 -0.23855,1.090271 -0.58349,2.169012 -1.4777,2.865221 -0.14197,0.08165 -0.27583,0.181073 -0.42591,0.244959 -0.51742,0.220236 -1.15,0.114557 0.55636,0.177165 0.16944,0.0062 -0.33987,-0.0072 -0.5077,-0.0323 -0.33928,-0.05077 -0.78224,-0.197027 -1.10747,-0.2946 -0.19124,-0.073 -0.38582,-0.137057 -0.5737,-0.218993 -0.3787,-0.165156 -0.71522,-0.363252 -1.07596,-0.565759 -0.1589,-0.0892 -0.32587,-0.16442 -0.47614,-0.268655 -0.3688,-0.255802 -0.54123,-0.478978 -0.8498,-0.81117 -0.12712,-0.172501 -0.26306,-0.338283 -0.38137,-0.517501 -0.31255,-0.47347 -0.54784,-0.995863 -0.8092,-1.499783 -0.0538,-0.103743 -0.11675,-0.202152 -0.16964,-0.306409 -0.0388,-0.0765 -0.0701,-0.156903 -0.10516,-0.235355 0,0 -1.51241,0.05085 -1.51241,0.05085 z" />
  </g>
  <g
     inkscape:groupmode="layer"
     id="layer4"
     inkscape:label="braços"
     style="display:inline">
    <ellipse
       style="display:inline;fill:#ffbe91;fill-opacity:1;fill-rule:evenodd;stroke:none;stroke-width:0;stop-color:#000000"
       id="ellipse3806"
       cx="-26.793196"
       cy="218.34561"
       rx="4.391747"
       ry="14.779484"
       transform="matrix(0.47839279,-0.87814597,0.85998681,0.51031625,0,0)" />
    <ellipse
       style="display:inline;fill:#ffbe91;fill-opacity:1;fill-rule:evenodd;stroke:none;stroke-width:0;stop-color:#000000"
       id="ellipse3808"
       cx="-223.70386"
       cy="-119.75681"
       rx="4.391747"
       ry="14.779484"
       transform="matrix(-0.47839279,-0.87814597,-0.85998681,0.51031625,0,0)" />
  </g>
  <g
     inkscape:groupmode="layer"
     id="layer3"
     inkscape:label="tronco"
     style="display:inline" />
  <g
     inkscape:groupmode="layer"
     id="layer5"
     inkscape:label="calças"
     style="display:inline">
    <g
       id="g3820"
       transform="matrix(0.45278062,0,0,0.47251351,91.731735,33.953256)"
       style="display:inline;stroke-width:2.16196">
      <path
         style="fill:#008000;stroke:#000000;stroke-width:0.572019px;stroke-linecap:butt;stroke-linejoin:miter;stroke-opacity:1"
         d="m 207.50892,141.36309 c 0,0 -21.54464,11.90625 -26.64732,13.04018 -5.10268,1.13393 -11.90625,6.80357 -12.47321,9.07143 -0.56697,2.26786 -14.17411,32.31696 -14.17411,32.31696 0,0 15.875,9.07143 20.97768,9.07143 5.10268,0 2.26786,-10.77232 5.10268,-7.9375 2.83482,2.83482 6.2366,5.66964 4.53571,28.91517 -1.70089,23.24555 -3.96875,42.71131 -3.96875,42.71131 0,0 48.75893,15.875 85.04463,-0.56694 -1.70087,-15.30806 -10.7723,-62.93305 -1.13392,-70.87055 6.80357,8.50446 6.80357,8.50446 6.80357,8.50446 0,0 17.5759,-6.2366 20.41073,-9.63839 -11.90625,-28.34821 -17.5759,-40.06547 -22.67858,-42.33333 -5.10267,-2.26786 -28.73203,-9.25097 -31.13745,-12.4582 -4.20949,1.60361 -14.01661,4.35699 -30.66166,0.17397 z"
         id="path3810" />
      <path
         id="path3812"
         style="fill:#000000;stroke:none;stroke-width:0.572017px;stroke-linecap:butt;stroke-linejoin:miter;stroke-opacity:1"
         d="m 238.07467,141.09532 c -4.82763,1.56805 -14.68649,3.66325 -30.56574,0.26777 a 16.335674,5.7378453 0 0 0 -0.91077,1.88535 16.335674,5.7378453 0 0 0 16.33551,5.73762 16.335674,5.7378453 0 0 0 16.33608,-5.73762 16.335674,5.7378453 0 0 0 -1.19508,-2.15312 z" />
      <path
         style="fill:none;stroke:#000000;stroke-width:0.572019px;stroke-linecap:butt;stroke-linejoin:miter;stroke-opacity:1"
         d="m 182.01055,170.25069 c 0,0 6.41446,20.84702 -1.60362,25.65787"
         id="path3814" />
      <path
         style="fill:none;stroke:#000000;stroke-width:0.572019px;stroke-linecap:butt;stroke-linejoin:miter;stroke-opacity:1"
         d="m 261.97425,171.45671 c 0,0 -6.41446,20.84702 1.60362,25.65787"
         id="path3816" />
      <path
         style="fill:#000000;fill-opacity:1;fill-rule:evenodd;stroke:none;stroke-width:0;stop-color:#000000"
         id="path3818"
         d="m 200.48282,145.30773 c 0.0878,0.095 0.17096,0.19451 0.2633,0.28511 0.18571,0.18218 0.37827,0.35728 0.57036,0.53273 1.14705,1.04774 2.35785,2.01961 3.56636,2.99478 1.31381,1.06349 2.70027,2.03281 4.18276,2.84674 0.90053,0.49443 1.11492,0.57079 2.06673,1.00638 1.40209,0.5609 2.79419,1.16623 4.24486,1.5951 0.78317,0.23153 1.1585,0.29591 1.95724,0.46704 1.15263,0.20746 2.31931,0.34073 3.49144,0.35637 1.27175,0.017 2.54387,0.0234 3.81557,0.003 0.8674,-0.0136 2.00465,-0.14013 2.86715,-0.22293 3.17755,-0.42426 6.25112,-1.36373 9.29329,-2.34312 1.34157,-0.49158 2.67355,-1.0106 3.96858,-1.6156 0.47249,-0.22074 1.29314,-0.62844 1.75879,-0.90372 0.23434,-0.13853 0.4565,-0.29671 0.68475,-0.44507 0.78134,-0.52637 1.51655,-1.1353 2.16111,-1.82456 0.0908,-0.0971 0.17451,-0.20046 0.26177,-0.3007 0.27186,-0.32647 0.45577,-0.71051 0.65682,-1.08122 0.13855,-0.25546 0.14254,-0.25319 0.29638,-0.49807 0,0 -2.5959,-0.14328 -2.5959,-0.14328 v 0 c -0.30928,0.51341 -0.55524,1.06814 -0.9349,1.53579 -0.69792,0.77873 -1.47487,1.48753 -2.35219,2.06118 -0.22241,0.14267 -0.43977,0.29356 -0.66724,0.42802 -0.25611,0.1514 -0.51906,0.29108 -0.78265,0.42907 -1.55153,0.8122 -3.17742,1.46939 -4.82544,2.05767 -3.04866,0.9698 -6.12975,1.90668 -9.31759,2.2871 -0.47495,0.0427 -0.94914,0.095 -1.42485,0.12823 -0.48011,0.0336 -0.96762,-0.009 -1.44202,0.0722 -0.32555,0.0556 1.31654,0.0592 0.99076,0.005 -0.42461,-0.0707 -0.86082,-0.0245 -1.29022,-0.0548 -0.85686,-0.0603 -1.30832,-0.14382 -2.14905,-0.26926 -0.73518,-0.14999 -1.23671,-0.23862 -1.95993,-0.44083 -1.45938,-0.40803 -2.85509,-1.01114 -4.2629,-1.5634 -0.82722,-0.37604 -1.27184,-0.56266 -2.06864,-0.98437 -1.49058,-0.7889 -2.87717,-1.74519 -4.18683,-2.80622 -0.8059,-0.6505 -1.14365,-0.91474 -1.92995,-1.58239 -0.71467,-0.60683 -1.42311,-1.22697 -2.06313,-1.9138 -0.0791,-0.0849 -0.14868,-0.17827 -0.22302,-0.2674 0,0 -2.62157,0.16893 -2.62157,0.16893 z" />
    </g>
  </g>
  <g
     inkscape:groupmode="layer"
     id="layer9"
     inkscape:label="corda"
     style="display:inline"
     sodipodi:insensitive="true">
    <path
       style="fill:#d45500;fill-opacity:1;fill-rule:evenodd;stroke:#000000;stroke-width:0.312208;stroke-miterlimit:4;stroke-dasharray:1.87326, 1.87326;stroke-dashoffset:0;stroke-opacity:1;stop-color:#000000"
       id="path16172"
       d="m 185.50834,99.057143 c -0.35923,0.168396 -0.58856,0.577986 -0.86822,0.905906 -0.0243,0.02847 -0.58868,0.650221 -0.59926,0.661891 -0.32276,0.41278 -0.54671,0.88208 -0.564,1.5094 -0.005,0.17128 0.004,0.34787 0.0411,0.51105 0.10962,0.47454 0.29625,0.68811 0.52744,1.05505 0.82773,1.08994 1.89028,1.6829 2.91247,2.32671 0.93944,0.53489 1.92319,0.89375 2.92009,1.14591 0.43606,0.0929 0.87848,0.16193 1.30505,0.32581 0.71795,0.27588 1.42245,0.64344 2.13158,0.96006 1.05778,0.48749 2.15139,0.78379 3.25937,0.9228 1.07613,0.0512 2.19158,0.2811 3.24244,-0.11974 0.37892,-0.14462 0.47856,-0.23197 0.83452,-0.45821 0.45469,-0.41753 0.81284,-0.99189 1.00181,-1.70935 0.0975,-0.37017 0.12122,-0.64897 0.17113,-1.03419 0.0272,-0.79173 -0.0832,-1.59439 -0.26767,-2.34309 -0.11141,-0.45252 -0.2156,-0.72677 -0.36299,-1.1608 -0.18534,-0.55011 -0.36992,-1.10439 -0.52578,-1.67244 -0.15767,-0.57473 -0.12607,-0.62405 -0.34159,-1.163518 -0.0662,-0.166228 -0.14988,-0.318048 -0.22483,-0.477066 -0.20388,-0.308788 -0.26425,-0.443966 -0.51827,-0.664965 -0.20624,-0.179438 -0.55667,-0.381679 -0.7754,-0.502422 -0.34571,-0.190839 -0.69517,-0.368348 -1.04111,-0.55839 -0.67125,-0.401621 -1.33076,-0.846425 -1.94766,-1.3938 -0.38827,-0.344509 -0.45418,-0.432153 -0.82502,-0.826058 -0.61896,-0.697026 -1.22281,-1.494654 -1.55824,-2.52109 -0.0549,-0.168383 -0.0928,-0.34673 -0.13904,-0.520116 -0.23439,-1.144899 -0.22074,-2.347852 -0.22983,-3.527913 -0.0134,-1.116807 0.10478,-2.227228 0.18713,-3.336053 0,0 -1.62852,-0.02288 -1.62852,-0.02288 v 0 c -0.0794,1.117459 -0.19931,2.235636 -0.18667,3.360558 0.004,1.205404 -0.004,2.433807 0.22692,3.605234 0.0468,0.184148 0.084,0.37351 0.1403,0.552457 0.33235,1.057286 0.94216,1.892989 1.57042,2.615412 0.13797,0.151487 0.27266,0.308975 0.41395,0.454436 0.72826,0.749842 1.54121,1.317757 2.36647,1.828002 1.40838,0.789512 -0.32758,-0.17574 1.03318,0.556674 0.34709,0.186808 0.7368,0.366087 1.03086,0.697385 0.0907,0.102172 0.16722,0.226294 0.25082,0.339427 0.0754,0.147776 0.15987,0.287423 0.2263,0.443341 0.22659,0.531595 0.18318,0.563525 0.34108,1.150525 0.15413,0.57299 0.34134,1.13034 0.52767,1.6838 0.13154,0.38262 0.25867,0.72519 0.36051,1.12529 0.18022,0.708 0.28928,1.48562 0.26276,2.23665 -0.0512,0.3798 -0.0693,0.61289 -0.17103,0.9746 -0.18899,0.6721 -0.54035,1.19098 -0.98633,1.54795 -0.35546,0.2059 -0.45348,0.287 -0.83064,0.40803 -0.14052,0.0451 -0.56969,0.0756 -0.42657,0.10058 0.40205,0.0697 0.81009,0.0253 1.21517,0.0362 0.26822,0.007 -1.10937,-0.0338 -0.80433,-0.0407 -1.11239,-0.11535 -2.21278,-0.38823 -3.27592,-0.86807 -0.74807,-0.33023 -0.71713,-0.31012 -1.4642,-0.66601 -0.21731,-0.10363 -0.43079,-0.22336 -0.65064,-0.31602 -0.42333,-0.17842 -0.86675,-0.2624 -1.30411,-0.33813 -0.9972,-0.23093 -1.9782,-0.58088 -2.92238,-1.08857 -1.54265,-0.95557 0.5341,0.33804 -1.05017,-0.67304 -0.16855,-0.1075 -0.34325,-0.19667 -0.50902,-0.31233 -0.48167,-0.33613 -0.93527,-0.75757 -1.34114,-1.25006 -0.19407,-0.28352 -0.41207,-0.53479 -0.51411,-0.91569 -0.18907,-0.70554 0.15713,-1.35033 0.51279,-1.78781 0.15726,-0.17307 0.44924,-0.49117 0.60491,-0.67487 0.14213,-0.167727 0.32364,-0.417381 0.47909,-0.567086 0.13071,-0.125852 0.2856,-0.199247 0.40519,-0.349884 0,0 -1.64781,-0.180502 -1.64781,-0.180502 z" />
  </g>
  <g
     inkscape:groupmode="layer"
     id="layer10"
     inkscape:label="corda 2">
    <path
       style="fill:#d45500;fill-rule:evenodd;stroke:#000000;stroke-width:0.312208;stroke-dasharray:1.87325, 1.87325;stop-color:#000000"
       id="path3600"
       d="m 190.81889,71.165396 c -0.046,0.269553 -0.0475,0.543965 -0.0721,0.815642 -0.007,0.07578 -0.0528,0.447889 -0.0615,0.51925 -0.0652,0.476054 -0.0928,0.95608 -0.11232,1.435836 -0.0125,0.443386 -0.009,0.887013 -0.006,1.330505 -0.0139,0.559366 0.032,1.117409 0.10467,1.67159 0.0604,0.26507 0.10139,0.535974 0.16911,0.799398 0.0703,0.273379 0.16399,0.543433 0.25162,0.811575 0.20914,0.632979 0.30482,1.2934 0.40578,1.949824 0.0924,0.612206 0.14877,1.22873 0.17638,1.847032 0.0148,0.379839 0.0137,0.760092 0.0132,1.140156 -0.009,0.231722 0.009,0.464619 -0.002,0.696232 -0.004,0.0808 -0.0303,0.315347 -0.0383,0.389589 -0.0463,0.321556 -0.0461,0.647316 -0.0726,0.970518 -0.007,0.08852 -0.0459,0.406884 -0.0561,0.492895 -0.059,0.422875 -0.0883,0.848714 -0.10609,1.275043 -0.007,0.220318 0.004,0.441306 -0.0205,0.660966 -0.0297,0.269878 -0.0873,0.546616 -0.14655,0.811231 -0.16464,0.623271 -0.39114,1.227193 -0.59196,1.839325 -0.22896,0.81247 -0.47388,1.62043 -0.68692,2.4373 -0.0682,0.351536 -0.17005,0.694962 -0.25818,1.041685 -0.069,0.271545 -0.0722,0.330671 -0.16924,0.589394 -0.0325,0.08656 -0.0724,0.170162 -0.10855,0.255241 -0.0856,0.244152 -0.21126,0.470794 -0.3171,0.705916 -0.035,0.07786 -0.0626,0.159012 -0.099,0.236249 -0.0847,0.179785 -0.13793,0.254855 -0.24201,0.422487 -0.16925,0.239824 -0.34787,0.47816 -0.55603,0.686358 -0.067,0.06699 -0.21257,0.187751 -0.28542,0.249442 -0.23804,0.163668 -0.4732,0.33941 -0.72645,0.4798 -0.17037,0.09444 -0.25633,0.122479 -0.43553,0.194242 -0.0747,0.02878 -0.14841,0.06036 -0.22414,0.08635 -0.15788,0.05417 -0.32059,0.09346 -0.47859,0.147294 -0.24385,0.08308 -0.47611,0.185978 -0.7077,0.297923 -0.20406,0.130223 -0.45,0.216524 -0.61456,0.403069 -0.10367,0.117512 -0.18835,0.30485 -0.23066,0.453274 -0.0228,0.08008 -0.0301,0.163785 -0.0452,0.245678 0.006,0.08126 0.001,0.164145 0.0183,0.243774 0.0438,0.201525 0.17066,0.400801 0.34503,0.513711 0.0475,0.0307 0.0981,0.0672 0.15464,0.0697 0.56858,0.0251 1.13823,0.008 1.70734,0.0125 0.40654,-0.152 0.50343,-0.3759 0.60531,-0.773049 0.0658,-0.349485 0.0636,-0.707697 0.0628,-1.062085 -2.3e-4,-0.06043 -5.3e-4,-0.120849 -7.9e-4,-0.181274 0,0 -1.56341,5.29e-4 -1.56341,5.29e-4 v 0 c 2.1e-4,0.06016 5.3e-4,0.120311 5.3e-4,0.18047 -0.002,0.340802 0.006,0.685609 -0.0643,1.020979 -0.073,0.254961 -0.15733,0.4631 -0.43449,0.54794 -0.0499,0.0153 -0.10276,0.0183 -0.15415,0.0274 0.46478,0.008 0.92955,0.0165 1.39432,0.0248 -0.0502,-0.006 -0.1026,-0.002 -0.15077,-0.0179 -0.0511,-0.0165 -0.0998,-0.043 -0.14173,-0.0765 -0.0852,-0.0683 -0.17349,-0.195344 -0.20283,-0.300717 -0.018,-0.0648 -0.0133,-0.133879 -0.02,-0.200816 0.0378,-0.187098 0.0343,-0.251537 0.13599,-0.419653 0.16477,-0.272378 0.477,-0.389173 0.74225,-0.53607 0.22739,-0.10228 0.23061,-0.108495 0.46708,-0.195352 0.31335,-0.115091 0.63938,-0.194175 0.94481,-0.330886 0.0726,-0.03293 0.14645,-0.06322 0.21778,-0.0988 0.34017,-0.169675 0.65448,-0.393129 0.95556,-0.623205 0.32237,-0.289185 0.60624,-0.617146 0.83729,-0.984557 0.11815,-0.200803 0.14244,-0.231323 0.24198,-0.444577 0.0352,-0.0754 0.0644,-0.153479 0.0987,-0.22928 0.10727,-0.237 0.22583,-0.469257 0.31348,-0.714851 0.0354,-0.0892 0.0744,-0.177096 0.10631,-0.267608 0.0998,-0.282757 0.0918,-0.306501 0.16356,-0.598625 0.0852,-0.347048 0.18798,-0.690015 0.25047,-1.042352 0.20198,-0.816991 0.4552,-1.619211 0.69281,-2.426327 0.0469,-0.141026 0.17443,-0.526191 0.22427,-0.668748 0.13711,-0.392128 0.28362,-0.780465 0.37792,-1.186106 0.0597,-0.275579 0.11768,-0.553265 0.1513,-0.83358 0.0276,-0.230471 0.0195,-0.246632 0.0241,-0.463212 0.001,-0.06775 0.004,-0.135466 0.006,-0.2032 0.0136,-0.422084 0.0415,-0.843465 0.0966,-1.262396 0.014,-0.116583 0.0475,-0.385818 0.0566,-0.50306 0.025,-0.320389 0.0289,-0.642892 0.0779,-0.961311 0.0117,-0.09969 0.0375,-0.304218 0.0426,-0.406778 0.0113,-0.231611 -0.006,-0.46468 0.001,-0.69642 -1e-5,-0.382971 -5.3e-4,-0.766054 -0.0195,-1.148681 -0.0396,-0.622927 -0.10664,-1.243446 -0.19966,-1.860746 -0.0911,-0.665557 -0.1857,-1.33481 -0.39156,-1.976601 -0.086,-0.263086 -0.17636,-0.52809 -0.24676,-0.795899 -0.0682,-0.259352 -0.11071,-0.525735 -0.17382,-0.786297 -0.0714,-0.547327 -0.11566,-1.099097 -0.10012,-1.651494 0.003,-0.441701 0.003,-0.883463 0.0131,-1.325073 0.0135,-0.475377 0.04,-0.950476 0.10369,-1.422146 0.0113,-0.0903 0.0553,-0.435468 0.0641,-0.527606 0.0248,-0.258882 0.0259,-0.523494 0.0977,-0.77552 0,0 -1.5798,-0.05085 -1.5798,-0.05085 z" />
  </g>
  <g
     inkscape:groupmode="layer"
     id="layer2"
     inkscape:label="rosto"
     style="display:inline" />
  <g
     inkscape:groupmode="layer"
     id="layer7"
     inkscape:label="cabelo">
    <g
       id="g12396"
       transform="matrix(1.274685,0,0,1.5298485,89.873838,-112.42192)"
       style="fill:#999999;stroke-width:0.716101">
      <ellipse
         style="fill:#999999;fill-opacity:1;fill-rule:evenodd;stroke:none;stroke-width:0;stop-color:#000000"
         id="ellipse12372"
         cx="213.98267"
         cy="218.8495"
         rx="5.2117558"
         ry="7.8883786" />
      <ellipse
         style="fill:#999999;fill-opacity:1;fill-rule:evenodd;stroke:none;stroke-width:0;stop-color:#000000"
         id="ellipse12374"
         cx="234.02788"
         cy="218.65594"
         rx="5.2117558"
         ry="7.8883786" />
    </g>
    <ellipse
       style="fill:#ececec;fill-opacity:1;fill-rule:evenodd;stroke:none;stroke-width:0;stop-color:#000000"
       id="path12288"
       cx="362.63443"
       cy="218.60783"
       rx="6.6433468"
       ry="12.068024" />
    <ellipse
       style="fill:#ececec;fill-opacity:1;fill-rule:evenodd;stroke:none;stroke-width:0;stop-color:#000000"
       id="ellipse12370"
       cx="388.18576"
       cy="217.75171"
       rx="6.6433468"
       ry="12.068024" />
    <ellipse
       style="display:inline;fill:#ffbe91;fill-opacity:1;fill-rule:evenodd;stroke:none;stroke-width:0;stop-color:#000000"
       id="ellipse10633"
       cx="84.496925"
       cy="371.80914"
       rx="4.391747"
       ry="14.779484"
       transform="matrix(0.47839279,-0.87814597,0.85998681,0.51031625,0,0)" />
    <ellipse
       style="display:inline;fill:#ffbe91;fill-opacity:1;fill-rule:evenodd;stroke:none;stroke-width:0;stop-color:#000000"
       id="ellipse10890"
       cx="-301.5798"
       cy="-291.80795"
       rx="4.391747"
       ry="14.779484"
       transform="matrix(-0.47839279,-0.87814597,-0.85998681,0.51031625,0,0)" />
    <g
       id="g10631"
       transform="matrix(0.45278062,0,0,0.47251351,276.5996,14.136084)"
       style="display:inline;stroke-width:2.16196">
      <path
         style="fill:#008000;stroke:#000000;stroke-width:0.572019px;stroke-linecap:butt;stroke-linejoin:miter;stroke-opacity:1"
         d="m 207.50892,141.36309 c 0,0 -21.54464,11.90625 -26.64732,13.04018 -5.10268,1.13393 -11.90625,6.80357 -12.47321,9.07143 -0.56697,2.26786 -14.17411,32.31696 -14.17411,32.31696 0,0 15.875,9.07143 20.97768,9.07143 5.10268,0 2.26786,-10.77232 5.10268,-7.9375 2.83482,2.83482 6.2366,5.66964 4.53571,28.91517 -1.70089,23.24555 -3.96875,42.71131 -3.96875,42.71131 0,0 48.75893,15.875 85.04463,-0.56694 -1.70087,-15.30806 -10.7723,-62.93305 -1.13392,-70.87055 6.80357,8.50446 6.80357,8.50446 6.80357,8.50446 0,0 17.5759,-6.2366 20.41073,-9.63839 -11.90625,-28.34821 -17.5759,-40.06547 -22.67858,-42.33333 -5.10267,-2.26786 -28.73203,-9.25097 -31.13745,-12.4582 -4.20949,1.60361 -14.01661,4.35699 -30.66166,0.17397 z"
         id="path9397" />
      <path
         id="path9397-9"
         style="fill:#000000;stroke:none;stroke-width:0.572017px;stroke-linecap:butt;stroke-linejoin:miter;stroke-opacity:1"
         d="m 238.07467,141.09532 c -4.82763,1.56805 -14.68649,3.66325 -30.56574,0.26777 a 16.335674,5.7378453 0 0 0 -0.91077,1.88535 16.335674,5.7378453 0 0 0 16.33551,5.73762 16.335674,5.7378453 0 0 0 16.33608,-5.73762 16.335674,5.7378453 0 0 0 -1.19508,-2.15312 z" />
      <path
         style="fill:none;stroke:#000000;stroke-width:0.572019px;stroke-linecap:butt;stroke-linejoin:miter;stroke-opacity:1"
         d="m 182.01055,170.25069 c 0,0 6.41446,20.84702 -1.60362,25.65787"
         id="path10425" />
      <path
         style="fill:none;stroke:#000000;stroke-width:0.572019px;stroke-linecap:butt;stroke-linejoin:miter;stroke-opacity:1"
         d="m 261.97425,171.45671 c 0,0 -6.41446,20.84702 1.60362,25.65787"
         id="path10507" />
      <path
         style="fill:#000000;fill-opacity:1;fill-rule:evenodd;stroke:none;stroke-width:0;stop-color:#000000"
         id="path10544"
         d="m 200.48282,145.30773 c 0.0878,0.095 0.17096,0.19451 0.2633,0.28511 0.18571,0.18218 0.37827,0.35728 0.57036,0.53273 1.14705,1.04774 2.35785,2.01961 3.56636,2.99478 1.31381,1.06349 2.70027,2.03281 4.18276,2.84674 0.90053,0.49443 1.11492,0.57079 2.06673,1.00638 1.40209,0.5609 2.79419,1.16623 4.24486,1.5951 0.78317,0.23153 1.1585,0.29591 1.95724,0.46704 1.15263,0.20746 2.31931,0.34073 3.49144,0.35637 1.27175,0.017 2.54387,0.0234 3.81557,0.003 0.8674,-0.0136 2.00465,-0.14013 2.86715,-0.22293 3.17755,-0.42426 6.25112,-1.36373 9.29329,-2.34312 1.34157,-0.49158 2.67355,-1.0106 3.96858,-1.6156 0.47249,-0.22074 1.29314,-0.62844 1.75879,-0.90372 0.23434,-0.13853 0.4565,-0.29671 0.68475,-0.44507 0.78134,-0.52637 1.51655,-1.1353 2.16111,-1.82456 0.0908,-0.0971 0.17451,-0.20046 0.26177,-0.3007 0.27186,-0.32647 0.45577,-0.71051 0.65682,-1.08122 0.13855,-0.25546 0.14254,-0.25319 0.29638,-0.49807 0,0 -2.5959,-0.14328 -2.5959,-0.14328 v 0 c -0.30928,0.51341 -0.55524,1.06814 -0.9349,1.53579 -0.69792,0.77873 -1.47487,1.48753 -2.35219,2.06118 -0.22241,0.14267 -0.43977,0.29356 -0.66724,0.42802 -0.25611,0.1514 -0.51906,0.29108 -0.78265,0.42907 -1.55153,0.8122 -3.17742,1.46939 -4.82544,2.05767 -3.04866,0.9698 -6.12975,1.90668 -9.31759,2.2871 -0.47495,0.0427 -0.94914,0.095 -1.42485,0.12823 -0.48011,0.0336 -0.96762,-0.009 -1.44202,0.0722 -0.32555,0.0556 1.31654,0.0592 0.99076,0.005 -0.42461,-0.0707 -0.86082,-0.0245 -1.29022,-0.0548 -0.85686,-0.0603 -1.30832,-0.14382 -2.14905,-0.26926 -0.73518,-0.14999 -1.23671,-0.23862 -1.95993,-0.44083 -1.45938,-0.40803 -2.85509,-1.01114 -4.2629,-1.5634 -0.82722,-0.37604 -1.27184,-0.56266 -2.06864,-0.98437 -1.49058,-0.7889 -2.87717,-1.74519 -4.18683,-2.80622 -0.8059,-0.6505 -1.14365,-0.91474 -1.92995,-1.58239 -0.71467,-0.60683 -1.42311,-1.22697 -2.06313,-1.9138 -0.0791,-0.0849 -0.14868,-0.17827 -0.22302,-0.2674 0,0 -2.62157,0.16893 -2.62157,0.16893 z" />
    </g>
    <path
       style="display:inline;fill:#b3b3b3;stroke:#000000;stroke-width:0.264583px;stroke-linecap:butt;stroke-linejoin:miter;stroke-opacity:1"
       d="m 358.49023,141.0707 c 12.41902,2.89658 25.12751,3.70863 38.50656,-0.30805 l -1.60665,69.95232 c -3.24539,4.21668 -7.84365,3.56226 -13.00862,0.86736 l -2.89081,-43.36846 -1.44538,-7.15581 -7.94972,48.78953 c -4.81801,6.75875 -9.63602,5.63699 -14.45402,0.86738 z"
       id="path11072"
       sodipodi:nodetypes="ccccccccc" />
    <path
       style="display:inline;fill:#000000;fill-opacity:1;fill-rule:evenodd;stroke:none;stroke-width:0;stop-color:#000000"
       id="path12042"
       d="m 359.25021,155.84578 c 0.65849,-0.14662 1.28784,-0.43667 1.88258,-0.76139 0.19338,-0.10563 0.39434,-0.20077 0.57062,-0.33506 0.19525,-0.14872 0.35796,-0.33909 0.53694,-0.50863 0.67529,-0.75487 1.18179,-1.66141 1.50205,-2.63843 0.16091,-0.49085 0.1978,-0.75756 0.29577,-1.25812 0.04,-0.18645 0.08,-0.3729 0.12007,-0.55935 0,0 -1.65501,-0.0376 -1.65501,-0.0376 v 0 c -0.0393,0.18741 -0.0785,0.37482 -0.11778,0.56224 -0.0982,0.50246 -0.1277,0.73459 -0.29092,1.22721 -0.31639,0.95492 -0.81489,1.83629 -1.49446,2.55784 -0.17901,0.15728 -0.34435,0.33325 -0.53701,0.47186 -0.17807,0.12811 -0.37651,0.22264 -0.56962,0.3243 -0.59453,0.31302 -1.2329,0.61033 -1.90125,0.68108 0,0 1.6581,0.27408 1.6581,0.27408 z" />
    <path
       style="display:inline;fill:#000000;fill-opacity:1;fill-rule:evenodd;stroke:none;stroke-width:0;stop-color:#000000"
       id="path12044"
       d="m 396.26113,157.43542 c -1.51454,-1.31266 -2.65138,-3.01929 -3.80197,-4.66776 -0.58509,-0.91095 -1.1465,-1.84858 -1.56794,-2.85651 -0.25693,-0.61449 -0.29431,-0.81914 -0.46677,-1.44078 0,0 -1.64728,0.0487 -1.64728,0.0487 v 0 c 0.17435,0.62076 0.22161,0.8579 0.47956,1.46973 0.42912,1.01783 1.00441,1.9617 1.5928,2.88466 0.78535,1.12665 0.76908,1.12114 1.59229,2.22978 0.65219,0.87836 1.31752,1.76079 2.14532,2.46963 0,0 1.67399,-0.1375 1.67399,-0.1375 z" />
    <path
       style="display:inline;fill:#000000;fill-opacity:1;fill-rule:evenodd;stroke:none;stroke-width:0;stop-color:#000000"
       id="path12046"
       d="m 395.04102,161.17182 c -0.83684,-0.47858 -1.55548,-1.15727 -2.27436,-1.80437 0,0 -1.62558,0.14523 -1.62558,0.14523 v 0 c 0.71591,0.65788 1.43462,1.32658 2.23873,1.86649 0,0 1.66121,-0.20735 1.66121,-0.20735 z" />
    <path
       style="display:inline;fill:#000000;fill-opacity:1;fill-rule:evenodd;stroke:none;stroke-width:0;stop-color:#000000"
       id="path12050"
       d="m 358.76952,168.77303 c -9.6e-4,-0.0923 -0.009,-0.18486 -0.004,-0.27704 0.005,-0.0794 0.0949,-0.77046 0.0982,-0.79634 0.0608,-0.48462 0.1132,-0.96908 0.15828,-1.45556 0.0115,-0.1694 0.0222,-0.33881 0.0333,-0.50822 0,0 -1.65894,-0.012 -1.65894,-0.012 v 0 c -0.0115,0.16789 -0.0232,0.33579 -0.0346,0.50368 -0.0446,0.48425 -0.0957,0.96635 -0.15967,1.44828 -0.0138,0.10404 -0.0974,0.68522 -0.10771,0.82027 -0.008,0.0921 -0.003,0.1847 -0.004,0.27705 0,0 1.67877,0 1.67877,0 z" />
    <path
       style="display:inline;fill:#000000;fill-opacity:1;fill-rule:evenodd;stroke:none;stroke-width:0;stop-color:#000000"
       id="path12052"
       d="m 369.97433,190.24785 c -0.19335,0.45808 -0.23341,0.52426 -0.39588,1.06828 -0.0937,0.3137 -0.16636,0.63598 -0.25831,0.95041 -0.0791,0.27026 -0.63619,2.04075 -0.71246,2.25938 -0.16371,0.46938 -0.3469,0.92863 -0.52036,1.39294 -0.76462,2.13775 -1.58124,4.2439 -2.43789,6.33043 0,0 1.60386,0.0879 1.60386,0.0879 v 0 c 0.85322,-2.09205 1.6704,-4.2016 2.44755,-6.33607 0.17774,-0.46776 0.36565,-0.93017 0.5332,-1.4033 0.076,-0.21442 0.64508,-2.00399 0.72514,-2.26729 0.0943,-0.3102 0.17303,-0.62717 0.27162,-0.93544 0.1664,-0.52034 0.21532,-0.60115 0.41305,-1.03888 0,0 -1.66952,-0.10842 -1.66952,-0.10842 z" />
    <path
       style="display:inline;fill:#000000;fill-opacity:1;fill-rule:evenodd;stroke:none;stroke-width:0;stop-color:#000000"
       id="path12054"
       d="m 386.40497,174.76722 c 0.0362,0.12891 0.065,0.26031 0.1086,0.38665 0.10223,0.29563 0.38895,0.95913 0.49349,1.21738 0.30872,0.76251 0.60535,1.52891 0.92177,2.28816 0.45932,1.14866 0.23507,0.55205 0.66814,1.79171 0,0 1.63069,-0.0588 1.63069,-0.0588 v 0 c -0.42523,-1.24992 -0.2024,-0.64984 -0.66289,-1.80251 -0.31181,-0.75977 -0.6089,-1.5247 -0.91219,-2.28809 -0.0447,-0.11269 -0.41413,-1.01167 -0.4749,-1.19516 -0.0413,-0.12452 -0.0647,-0.25479 -0.0971,-0.38218 0,0 -1.67557,0.0428 -1.67557,0.0428 z" />
    <path
       style="display:inline;fill:#000000;fill-opacity:1;fill-rule:evenodd;stroke:none;stroke-width:0;stop-color:#000000"
       id="path12169"
       d="m 358.48768,144.5506 c 0.34814,0.11188 0.34012,0.12159 0.75761,0.1871 0.9771,0.15342 1.95881,0.27357 2.93632,0.4242 1.61861,0.2494 3.2355,0.51109 4.85382,0.76266 3.4836,0.59536 6.99922,0.91679 10.50563,1.31839 2.02585,0.25338 4.06301,0.37774 6.1016,0.4384 1.88579,0.0376 3.77215,0.0287 5.6582,0.0266 1.19674,-0.13078 2.3252,-0.57957 3.40285,-1.1184 0.29005,-0.14504 0.58504,-0.28203 0.86135,-0.45384 0.26634,-0.1656 0.5083,-0.37059 0.76243,-0.55586 0.6419,-0.50687 1.29695,-1.00837 1.88291,-1.58709 0.36137,-0.35692 0.74512,-0.81693 1.0775,-1.20198 0,0 -0.66,-0.0507 -0.66,-0.0507 v 0 c -0.35078,0.40465 -0.69571,0.81908 -1.07725,1.19351 -0.5861,0.57518 -1.23825,1.07607 -1.87972,1.57992 -0.25363,0.18211 -0.49562,0.38329 -0.76089,0.54633 -0.2768,0.17014 -0.57126,0.3071 -0.86146,0.45086 -1.07689,0.53345 -2.20537,0.97443 -3.40104,1.0893 -1.45052,0.001 -2.9012,0.005 -4.3515,-0.0248 -2.04119,-0.0581 -4.08117,-0.17913 -6.10974,-0.4315 -3.51179,-0.4011 -7.03301,-0.71985 -10.52229,-1.31321 -0.8225,-0.12798 -1.64502,-0.25584 -2.46753,-0.38376 -0.79237,-0.12692 -1.58426,-0.25707 -2.3771,-0.38068 -0.62453,-0.0974 -1.24996,-0.18818 -1.87492,-0.28227 -0.34627,-0.0475 -0.69321,-0.0897 -1.03878,-0.14241 -0.41028,-0.0627 -0.40569,-0.0708 -0.75008,-0.16836 0,0 -0.66792,0.0774 -0.66792,0.0774 z" />
    <path
       style="display:inline;fill:#000000;fill-opacity:1;fill-rule:evenodd;stroke:none;stroke-width:0;stop-color:#000000"
       id="path12171"
       d="m 392.09148,143.03941 c 9.6e-4,0.43113 0.003,0.86227 0.003,1.29338 0,0 0.66598,0 0.66598,0 v 0 c 6.7e-4,-0.43111 9.6e-4,-0.86225 0.003,-1.29338 0,0 -0.67129,0 -0.67129,0 z" />
    <path
       style="display:inline;fill:#000000;fill-opacity:1;fill-rule:evenodd;stroke:none;stroke-width:0;stop-color:#000000"
       id="path12175"
       d="m 381.68548,143.81615 c -0.0127,0.58639 0.0643,1.16856 0.11332,1.7516 0.009,0.35302 0.0897,0.69793 0.15582,1.04251 0,0 0.65771,-0.0136 0.65771,-0.0136 v 0 c -0.0654,-0.34216 -0.14276,-0.68472 -0.153,-1.03505 -0.0496,-0.5807 -0.12754,-1.16133 -0.1044,-1.74553 0,0 -0.66938,0 -0.66938,0 z" />
    <path
       style="display:inline;fill:#000000;fill-opacity:1;fill-rule:evenodd;stroke:none;stroke-width:0;stop-color:#000000"
       id="path12177"
       d="m 373.5546,143.7936 c 6.8e-4,0.0565 0.005,0.11321 9.6e-4,0.16965 -0.004,0.0705 -0.0437,0.40754 -0.0496,0.45979 -0.0297,0.26008 -0.0565,0.52001 -0.0796,0.78082 -0.0251,0.33466 -0.0262,0.66949 -0.0658,1.00266 0,0 0.66404,0.008 0.66404,0.008 v 0 c 0.038,-0.334 0.0393,-0.66942 0.065,-1.00468 0.0226,-0.26015 0.0487,-0.51939 0.0795,-0.77865 0.009,-0.0764 0.0477,-0.37929 0.0533,-0.46828 0.004,-0.0564 9.5e-4,-0.11308 9.5e-4,-0.16966 0,0 -0.67034,0 -0.67034,0 z" />
    <path
       style="display:inline;fill:#000000;fill-opacity:1;fill-rule:evenodd;stroke:none;stroke-width:0;stop-color:#000000"
       id="path12179"
       d="m 367.95319,143.39391 c 3.3e-4,0.0355 0.003,0.28064 0.003,0.28732 -0.009,0.16046 -0.0335,0.31955 -0.0491,0.47944 -0.0331,0.33979 -0.0273,0.28355 -0.0567,0.62361 -0.0338,0.38367 -0.0482,0.76873 -0.0611,1.15365 0,0 0.66272,0.003 0.66272,0.003 v 0 c 0.0115,-0.38363 0.0261,-0.76732 0.0593,-1.14974 0.0247,-0.28499 0.0281,-0.33766 0.058,-0.62224 0.017,-0.16245 0.0437,-0.32396 0.0538,-0.48704 0.007,-0.0955 -0.003,-0.19168 0.003,-0.28732 0,0 -0.6713,0 -0.6713,0 z" />
    <path
       style="display:inline;fill:#000000;fill-opacity:1;fill-rule:evenodd;stroke:none;stroke-width:0;stop-color:#000000"
       id="path12181"
       d="m 362.21021,142.098 c -0.0102,0.0379 -0.0211,0.0754 -0.0288,0.11374 -0.0396,0.19735 -0.0227,0.16902 -0.0554,0.38051 -0.0414,0.26792 -0.0914,0.53428 -0.1316,0.80256 -0.0264,0.36566 -0.13216,0.7141 -0.23199,1.06297 0,0 0.66227,0.02 0.66227,0.02 v 0 c 0.10007,-0.35196 0.20499,-0.70359 0.2316,-1.0722 0.0408,-0.26895 0.0916,-0.53549 0.13506,-0.80383 0.0287,-0.17719 0.0207,-0.2042 0.0593,-0.37031 0.008,-0.0343 0.0207,-0.0673 0.0308,-0.10097 0,0 -0.6713,-0.0326 -0.6713,-0.0326 z" />
    <path
       style="display:inline;fill:#000000;fill-opacity:1;fill-rule:evenodd;stroke:none;stroke-width:0;stop-color:#000000"
       id="path12183"
       d="m 387.38915,144.16425 c 0.0203,0.0766 0.0404,0.1532 0.0607,0.22982 0.0205,0.0986 0.0357,0.19849 0.0615,0.29574 0.0914,0.3469 0.21195,0.68485 0.30698,1.03068 0.11651,0.42406 0.21958,0.85205 0.33276,1.2771 0,0 0.65931,-0.0186 0.65931,-0.0186 v 0 c -0.11282,-0.42566 -0.21503,-0.85431 -0.33048,-1.27919 -0.0934,-0.34368 -0.21227,-0.6796 -0.30101,-1.02461 -0.0454,-0.17632 -0.0595,-0.36054 -0.11879,-0.53346 0,0 -0.6708,0.0225 -0.6708,0.0225 z" />
    <g
       id="g9021"
       style="display:inline;stroke-width:0.88494"
       transform="matrix(1.0903203,0,0,1.1711596,163.00053,-45.564344)">
      <path
         id="path6109"
         style="fill:#ffbe91;fill-opacity:1;fill-rule:evenodd;stroke-width:0;stop-color:#000000"
         d="m 205.73495,97.961288 c -1.60876,7.195922 -4.00123,13.029382 -8.81989,13.029382 -4.39208,0 -6.46805,-5.83346 -8.81989,-13.029382 -2.24153,-6.858424 3.9488,-13.029382 8.81989,-13.029382 4.87109,0 10.39199,5.997438 8.81989,13.029382 z"
         sodipodi:nodetypes="sssss" />
      <circle
         style="fill:#808080;fill-rule:evenodd;stroke:#ff0000;stroke-width:0;stop-color:#000000"
         id="path6519"
         cx="194.66597"
         cy="95.712189"
         r="1.2756697" />
      <circle
         style="fill:#808080;fill-rule:evenodd;stroke:#ff0000;stroke-width:0;stop-color:#000000"
         id="circle6601"
         cx="199.89386"
         cy="95.712189"
         r="1.2756697" />
      <g
         id="g6793"
         transform="translate(-26.750777,-14.525759)"
         style="fill:#808080;stroke-width:0.88494">
        <ellipse
           style="fill:#808080;fill-rule:evenodd;stroke:#ff0000;stroke-width:0;stop-color:#000000"
           id="circle6787"
           cx="223.47511"
           cy="114.59182"
           rx="0.21097137"
           ry="0.37363502" />
        <ellipse
           style="fill:#808080;fill-rule:evenodd;stroke:#ff0000;stroke-width:0;stop-color:#000000"
           id="circle6789"
           cx="224.60223"
           cy="114.59182"
           rx="0.21097137"
           ry="0.37363502" />
      </g>
      <path
         style="fill:#808080;fill-opacity:1;fill-rule:evenodd;stroke:none;stroke-width:0;stop-color:#000000"
         id="path8699"
         d="m 198.05417,103.20996 c 0.20097,-0.0191 1.37926,-0.13081 1.38133,-0.13108 0.38451,-0.0613 0.75887,-0.15899 1.13832,-0.2385 0,0 -4.08899,-0.44951 -4.08899,-0.44951 v 0 c -0.39097,0.0641 -0.77855,0.14392 -1.17293,0.19235 -0.50192,0.0617 -0.97996,0.0684 -1.48077,0.0835 0,0 4.22304,0.5433 4.22304,0.5433 z" />
      <ellipse
         style="fill:#333333;fill-rule:evenodd;stroke:#ff0000;stroke-width:0;stop-color:#000000"
         id="circle9294"
         cx="199.91968"
         cy="96.140465"
         rx="0.35435271"
         ry="0.42522326" />
      <ellipse
         style="fill:#333333;fill-rule:evenodd;stroke:#ff0000;stroke-width:0;stop-color:#000000"
         id="ellipse9314"
         cx="194.6113"
         cy="96.129005"
         rx="0.35435271"
         ry="0.42522326" />
    </g>
    <path
       style="display:inline;fill:#000000;stroke:#000000;stroke-width:0.264583px;stroke-linecap:butt;stroke-linejoin:miter;stroke-opacity:1"
       d="m 368.19878,63.075415 c 0,0 1.39119,-1.451963 5.81773,-0.923972 4.42655,0.527978 9.99135,-2.771929 10.75017,-0.527991 0.75885,2.243937 0.88533,4.091877 1.89711,5.279844 1.01178,1.187968 4.17359,-4.091877 1.64414,-7.919762 -2.52946,-3.827869 -4.68106,-5.525637 -7.58836,-5.807805 -2.95176,-0.286482 -9.91659,0.825457 -10.87665,1.847938 -2.21478,2.358744 -3.41475,1.847932 -2.90887,4.22385 0.50589,2.375935 1.26473,3.827898 1.26473,3.827898 z"
       id="path12708"
       sodipodi:nodetypes="csssssssc" />
    <path
       style="display:inline;fill:none;stroke:#000000;stroke-width:0.264584px;stroke-linecap:butt;stroke-linejoin:miter;stroke-opacity:1"
       d="m 368.48264,70.483749 c 0.0455,0.01406 0.0915,-0.102872 0.12509,-0.317772 0.0336,-0.214901 0.0543,-0.525127 0.0563,-0.843097 0.002,-0.31797 -0.0147,-0.639769 -0.0454,-0.874546 -0.0307,-0.234778 -0.0751,-0.379643 -0.1206,-0.393698 -0.0455,-0.01406 -0.0915,0.102872 -0.1251,0.317772 -0.0336,0.214901 -0.0543,0.525127 -0.0563,0.843097 -0.002,0.31797 0.0147,0.639769 0.0455,0.874546 0.0307,0.234778 0.0751,0.379643 0.1206,0.393698 z"
       id="path2061" />
    <path
       style="display:inline;fill:none;stroke:#000000;stroke-width:0.264584px;stroke-linecap:butt;stroke-linejoin:miter;stroke-opacity:1"
       d="m 387.0035,70.483749 c 0.0455,0.01406 0.0915,-0.102872 0.12509,-0.317772 0.0336,-0.214901 0.0543,-0.525127 0.0563,-0.843097 0.002,-0.31797 -0.0147,-0.639769 -0.0454,-0.874546 -0.0307,-0.234778 -0.0751,-0.379643 -0.1206,-0.393698 -0.0455,-0.01406 -0.0915,0.102872 -0.1251,0.317772 -0.0336,0.214901 -0.0543,0.525127 -0.0563,0.843097 -0.002,0.31797 0.0147,0.639769 0.0455,0.874546 0.0307,0.234778 0.0751,0.379643 0.1206,0.393698 z"
       id="path2375" />
    <g
       id="g3800"
       transform="matrix(1.274685,0,0,1.5298485,5.6839356,-110.17686)"
       style="fill:#999999;stroke-width:0.716101">
      <ellipse
         style="fill:#999999;fill-opacity:1;fill-rule:evenodd;stroke:none;stroke-width:0;stop-color:#000000"
         id="ellipse3796"
         cx="213.98267"
         cy="218.8495"
         rx="5.2117558"
         ry="7.8883786" />
      <ellipse
         style="fill:#999999;fill-opacity:1;fill-rule:evenodd;stroke:none;stroke-width:0;stop-color:#000000"
         id="ellipse3798"
         cx="234.02788"
         cy="218.65594"
         rx="5.2117558"
         ry="7.8883786" />
    </g>
    <ellipse
       style="fill:#ececec;fill-opacity:1;fill-rule:evenodd;stroke:none;stroke-width:0;stop-color:#000000"
       id="ellipse3802"
       cx="278.44452"
       cy="220.85291"
       rx="6.6433468"
       ry="12.068024" />
    <ellipse
       style="fill:#ececec;fill-opacity:1;fill-rule:evenodd;stroke:none;stroke-width:0;stop-color:#000000"
       id="ellipse3804"
       cx="303.99585"
       cy="219.99678"
       rx="6.6433468"
       ry="12.068024" />
    <path
       style="display:inline;fill:#b3b3b3;stroke:#000000;stroke-width:0.264583px;stroke-linecap:butt;stroke-linejoin:miter;stroke-opacity:1"
       d="m 274.30033,143.31576 c 12.41902,2.89658 25.12751,3.70863 38.50656,-0.30805 l -1.60665,69.95232 c -3.24539,4.21668 -7.84365,3.56226 -13.00862,0.86736 l -2.89081,-43.36846 -1.44538,-7.15581 -7.94972,48.78953 c -4.81801,6.75875 -9.63602,5.63699 -14.45402,0.86738 z"
       id="path3822"
       sodipodi:nodetypes="ccccccccc" />
    <path
       style="display:inline;fill:#000000;fill-opacity:1;fill-rule:evenodd;stroke:none;stroke-width:0;stop-color:#000000"
       id="path3824"
       d="m 275.06031,158.09084 c 0.65849,-0.14662 1.28784,-0.43667 1.88258,-0.76139 0.19338,-0.10563 0.39434,-0.20077 0.57062,-0.33506 0.19525,-0.14872 0.35796,-0.33909 0.53694,-0.50863 0.67529,-0.75487 1.18179,-1.66141 1.50205,-2.63843 0.16091,-0.49085 0.1978,-0.75756 0.29577,-1.25812 0.04,-0.18645 0.08,-0.3729 0.12007,-0.55935 0,0 -1.65501,-0.0376 -1.65501,-0.0376 v 0 c -0.0393,0.18741 -0.0785,0.37482 -0.11778,0.56224 -0.0982,0.50246 -0.1277,0.73459 -0.29092,1.22721 -0.31639,0.95492 -0.81489,1.83629 -1.49446,2.55784 -0.17901,0.15728 -0.34435,0.33325 -0.53701,0.47186 -0.17807,0.12811 -0.37651,0.22264 -0.56962,0.3243 -0.59453,0.31302 -1.2329,0.61033 -1.90125,0.68108 0,0 1.6581,0.27408 1.6581,0.27408 z" />
    <path
       style="display:inline;fill:#000000;fill-opacity:1;fill-rule:evenodd;stroke:none;stroke-width:0;stop-color:#000000"
       id="path3826"
       d="m 312.07123,159.68048 c -1.51454,-1.31266 -2.65138,-3.01929 -3.80197,-4.66776 -0.58509,-0.91095 -1.1465,-1.84858 -1.56794,-2.85651 -0.25693,-0.61449 -0.29431,-0.81914 -0.46677,-1.44078 0,0 -1.64728,0.0487 -1.64728,0.0487 v 0 c 0.17435,0.62076 0.22161,0.8579 0.47956,1.46973 0.42912,1.01783 1.00441,1.9617 1.5928,2.88466 0.78535,1.12665 0.76908,1.12114 1.59229,2.22978 0.65219,0.87836 1.31752,1.76079 2.14532,2.46963 0,0 1.67399,-0.1375 1.67399,-0.1375 z" />
    <path
       style="display:inline;fill:#000000;fill-opacity:1;fill-rule:evenodd;stroke:none;stroke-width:0;stop-color:#000000"
       id="path3828"
       d="m 310.85112,163.41688 c -0.83684,-0.47858 -1.55548,-1.15727 -2.27436,-1.80437 0,0 -1.62558,0.14523 -1.62558,0.14523 v 0 c 0.71591,0.65788 1.43462,1.32658 2.23873,1.86649 0,0 1.66121,-0.20735 1.66121,-0.20735 z" />
    <path
       style="display:inline;fill:#000000;fill-opacity:1;fill-rule:evenodd;stroke:none;stroke-width:0;stop-color:#000000"
       id="path3830"
       d="m 274.57962,171.01809 c -9.6e-4,-0.0923 -0.009,-0.18486 -0.004,-0.27704 0.005,-0.0794 0.0949,-0.77046 0.0982,-0.79634 0.0608,-0.48462 0.1132,-0.96908 0.15828,-1.45556 0.0115,-0.1694 0.0222,-0.33881 0.0333,-0.50822 0,0 -1.65894,-0.012 -1.65894,-0.012 v 0 c -0.0115,0.16789 -0.0232,0.33579 -0.0346,0.50368 -0.0446,0.48425 -0.0957,0.96635 -0.15967,1.44828 -0.0138,0.10404 -0.0974,0.68522 -0.10771,0.82027 -0.008,0.0921 -0.003,0.1847 -0.004,0.27705 0,0 1.67877,0 1.67877,0 z" />
    <path
       style="display:inline;fill:#000000;fill-opacity:1;fill-rule:evenodd;stroke:none;stroke-width:0;stop-color:#000000"
       id="path3832"
       d="m 285.78443,192.49291 c -0.19335,0.45808 -0.23341,0.52426 -0.39588,1.06828 -0.0937,0.3137 -0.16636,0.63598 -0.25831,0.95041 -0.0791,0.27026 -0.63619,2.04075 -0.71246,2.25938 -0.16371,0.46938 -0.3469,0.92863 -0.52036,1.39294 -0.76462,2.13775 -1.58124,4.2439 -2.43789,6.33043 0,0 1.60386,0.0879 1.60386,0.0879 v 0 c 0.85322,-2.09205 1.6704,-4.2016 2.44755,-6.33607 0.17774,-0.46776 0.36565,-0.93017 0.5332,-1.4033 0.076,-0.21442 0.64508,-2.00399 0.72514,-2.26729 0.0943,-0.3102 0.17303,-0.62717 0.27162,-0.93544 0.1664,-0.52034 0.21532,-0.60115 0.41305,-1.03888 0,0 -1.66952,-0.10842 -1.66952,-0.10842 z" />
    <path
       style="display:inline;fill:#000000;fill-opacity:1;fill-rule:evenodd;stroke:none;stroke-width:0;stop-color:#000000"
       id="path3834"
       d="m 302.21507,177.01228 c 0.0362,0.12891 0.065,0.26031 0.1086,0.38665 0.10223,0.29563 0.38895,0.95913 0.49349,1.21738 0.30872,0.76251 0.60535,1.52891 0.92177,2.28816 0.45932,1.14866 0.23507,0.55205 0.66814,1.79171 0,0 1.63069,-0.0588 1.63069,-0.0588 v 0 c -0.42523,-1.24992 -0.2024,-0.64984 -0.66289,-1.80251 -0.31181,-0.75977 -0.6089,-1.5247 -0.91219,-2.28809 -0.0447,-0.11269 -0.41413,-1.01167 -0.4749,-1.19516 -0.0413,-0.12452 -0.0647,-0.25479 -0.0971,-0.38218 0,0 -1.67557,0.0428 -1.67557,0.0428 z" />
    <path
       style="display:inline;fill:#000000;fill-opacity:1;fill-rule:evenodd;stroke:none;stroke-width:0;stop-color:#000000"
       id="path3836"
       d="m 274.29778,146.79566 c 0.34814,0.11188 0.34012,0.12159 0.75761,0.1871 0.9771,0.15342 1.95881,0.27357 2.93632,0.4242 1.61861,0.2494 3.2355,0.51109 4.85382,0.76266 3.4836,0.59536 6.99922,0.91679 10.50563,1.31839 2.02585,0.25338 4.06301,0.37774 6.1016,0.4384 1.88579,0.0376 3.77215,0.0287 5.6582,0.0266 1.19674,-0.13078 2.3252,-0.57957 3.40285,-1.1184 0.29005,-0.14504 0.58504,-0.28203 0.86135,-0.45384 0.26634,-0.1656 0.5083,-0.37059 0.76243,-0.55586 0.6419,-0.50687 1.29695,-1.00837 1.88291,-1.58709 0.36137,-0.35692 0.74512,-0.81693 1.0775,-1.20198 0,0 -0.66,-0.0507 -0.66,-0.0507 v 0 c -0.35078,0.40465 -0.69571,0.81908 -1.07725,1.19351 -0.5861,0.57518 -1.23825,1.07607 -1.87972,1.57992 -0.25363,0.18211 -0.49562,0.38329 -0.76089,0.54633 -0.2768,0.17014 -0.57126,0.3071 -0.86146,0.45086 -1.07689,0.53345 -2.20537,0.97443 -3.40104,1.0893 -1.45052,0.001 -2.9012,0.005 -4.3515,-0.0248 -2.04119,-0.0581 -4.08117,-0.17913 -6.10974,-0.4315 -3.51179,-0.4011 -7.03301,-0.71985 -10.52229,-1.31321 -0.8225,-0.12798 -1.64502,-0.25584 -2.46753,-0.38376 -0.79237,-0.12692 -1.58426,-0.25707 -2.3771,-0.38068 -0.62453,-0.0974 -1.24996,-0.18818 -1.87492,-0.28227 -0.34627,-0.0475 -0.69321,-0.0897 -1.03878,-0.14241 -0.41028,-0.0627 -0.40569,-0.0708 -0.75008,-0.16836 0,0 -0.66792,0.0774 -0.66792,0.0774 z" />
    <path
       style="display:inline;fill:#000000;fill-opacity:1;fill-rule:evenodd;stroke:none;stroke-width:0;stop-color:#000000"
       id="path3838"
       d="m 307.90158,145.28447 c 9.6e-4,0.43113 0.003,0.86227 0.003,1.29338 0,0 0.66598,0 0.66598,0 v 0 c 6.7e-4,-0.43111 9.6e-4,-0.86225 0.003,-1.29338 0,0 -0.67129,0 -0.67129,0 z" />
    <path
       style="display:inline;fill:#000000;fill-opacity:1;fill-rule:evenodd;stroke:none;stroke-width:0;stop-color:#000000"
       id="path3840"
       d="m 297.49558,146.06121 c -0.0127,0.58639 0.0643,1.16856 0.11332,1.7516 0.009,0.35302 0.0897,0.69793 0.15582,1.04251 0,0 0.65771,-0.0136 0.65771,-0.0136 v 0 c -0.0654,-0.34216 -0.14276,-0.68472 -0.153,-1.03505 -0.0496,-0.5807 -0.12754,-1.16133 -0.1044,-1.74553 0,0 -0.66938,0 -0.66938,0 z" />
    <path
       style="display:inline;fill:#000000;fill-opacity:1;fill-rule:evenodd;stroke:none;stroke-width:0;stop-color:#000000"
       id="path3842"
       d="m 289.3647,146.03866 c 6.8e-4,0.0565 0.005,0.11321 9.6e-4,0.16965 -0.004,0.0705 -0.0437,0.40754 -0.0496,0.45979 -0.0297,0.26008 -0.0565,0.52001 -0.0796,0.78082 -0.0251,0.33466 -0.0262,0.66949 -0.0658,1.00266 0,0 0.66404,0.008 0.66404,0.008 v 0 c 0.038,-0.334 0.0393,-0.66942 0.065,-1.00468 0.0226,-0.26015 0.0487,-0.51939 0.0795,-0.77865 0.009,-0.0764 0.0477,-0.37929 0.0533,-0.46828 0.004,-0.0564 9.5e-4,-0.11308 9.5e-4,-0.16966 0,0 -0.67034,0 -0.67034,0 z" />
    <path
       style="display:inline;fill:#000000;fill-opacity:1;fill-rule:evenodd;stroke:none;stroke-width:0;stop-color:#000000"
       id="path3844"
       d="m 283.76329,145.63897 c 3.3e-4,0.0355 0.003,0.28064 0.003,0.28732 -0.009,0.16046 -0.0335,0.31955 -0.0491,0.47944 -0.0331,0.33979 -0.0273,0.28355 -0.0567,0.62361 -0.0338,0.38367 -0.0482,0.76873 -0.0611,1.15365 0,0 0.66272,0.003 0.66272,0.003 v 0 c 0.0115,-0.38363 0.0261,-0.76732 0.0593,-1.14974 0.0247,-0.28499 0.0281,-0.33766 0.058,-0.62224 0.017,-0.16245 0.0437,-0.32396 0.0538,-0.48704 0.007,-0.0955 -0.003,-0.19168 0.003,-0.28732 0,0 -0.6713,0 -0.6713,0 z" />
    <path
       style="display:inline;fill:#000000;fill-opacity:1;fill-rule:evenodd;stroke:none;stroke-width:0;stop-color:#000000"
       id="path3846"
       d="m 278.02031,144.34306 c -0.0102,0.0379 -0.0211,0.0754 -0.0288,0.11374 -0.0396,0.19735 -0.0227,0.16902 -0.0554,0.38051 -0.0414,0.26792 -0.0914,0.53428 -0.1316,0.80256 -0.0264,0.36566 -0.13216,0.7141 -0.23199,1.06297 0,0 0.66227,0.02 0.66227,0.02 v 0 c 0.10007,-0.35196 0.20499,-0.70359 0.2316,-1.0722 0.0408,-0.26895 0.0916,-0.53549 0.13506,-0.80383 0.0287,-0.17719 0.0207,-0.2042 0.0593,-0.37031 0.008,-0.0343 0.0207,-0.0673 0.0308,-0.10097 0,0 -0.6713,-0.0326 -0.6713,-0.0326 z" />
    <path
       style="display:inline;fill:#000000;fill-opacity:1;fill-rule:evenodd;stroke:none;stroke-width:0;stop-color:#000000"
       id="path3848"
       d="m 303.19925,146.40931 c 0.0203,0.0766 0.0404,0.1532 0.0607,0.22982 0.0205,0.0986 0.0357,0.19849 0.0615,0.29574 0.0914,0.3469 0.21195,0.68485 0.30698,1.03068 0.11651,0.42406 0.21958,0.85205 0.33276,1.2771 0,0 0.65931,-0.0186 0.65931,-0.0186 v 0 c -0.11282,-0.42566 -0.21503,-0.85431 -0.33048,-1.27919 -0.0934,-0.34368 -0.21227,-0.6796 -0.30101,-1.02461 -0.0454,-0.17632 -0.0595,-0.36054 -0.11879,-0.53346 0,0 -0.6708,0.0225 -0.6708,0.0225 z" />
    <g
       id="g3889"
       transform="translate(-101.54262,16.500581)">
      <g
         id="g3868"
         style="display:inline;stroke-width:0.88494"
         transform="matrix(1.0903203,0,0,1.1711596,78.810628,-43.31928)">
        <path
           id="path3850"
           style="fill:#ffbe91;fill-opacity:1;fill-rule:evenodd;stroke-width:0;stop-color:#000000"
           d="m 205.73495,97.961288 c -1.60876,7.195922 -4.00123,13.029382 -8.81989,13.029382 -4.39208,0 -6.46805,-5.83346 -8.81989,-13.029382 -2.24153,-6.858424 3.9488,-13.029382 8.81989,-13.029382 4.87109,0 10.39199,5.997438 8.81989,13.029382 z"
           sodipodi:nodetypes="sssss" />
        <circle
           style="fill:#808080;fill-rule:evenodd;stroke:#ff0000;stroke-width:0;stop-color:#000000"
           id="circle3852"
           cx="194.66597"
           cy="95.712189"
           r="1.2756697" />
        <circle
           style="fill:#808080;fill-rule:evenodd;stroke:#ff0000;stroke-width:0;stop-color:#000000"
           id="circle3854"
           cx="199.89386"
           cy="95.712189"
           r="1.2756697" />
        <g
           id="g3860"
           transform="translate(-26.750777,-14.525759)"
           style="fill:#808080;stroke-width:0.88494">
          <ellipse
             style="fill:#808080;fill-rule:evenodd;stroke:#ff0000;stroke-width:0;stop-color:#000000"
             id="ellipse3856"
             cx="223.47511"
             cy="114.59182"
             rx="0.21097137"
             ry="0.37363502" />
          <ellipse
             style="fill:#808080;fill-rule:evenodd;stroke:#ff0000;stroke-width:0;stop-color:#000000"
             id="ellipse3858"
             cx="224.60223"
             cy="114.59182"
             rx="0.21097137"
             ry="0.37363502" />
        </g>
        <path
           style="fill:#808080;fill-opacity:1;fill-rule:evenodd;stroke:none;stroke-width:0;stop-color:#000000"
           id="path3862"
           d="m 198.05417,103.20996 c 0.20097,-0.0191 1.37926,-0.13081 1.38133,-0.13108 0.38451,-0.0613 0.75887,-0.15899 1.13832,-0.2385 0,0 -4.08899,-0.44951 -4.08899,-0.44951 v 0 c -0.39097,0.0641 -0.77855,0.14392 -1.17293,0.19235 -0.50192,0.0617 -0.97996,0.0684 -1.48077,0.0835 0,0 4.22304,0.5433 4.22304,0.5433 z" />
        <ellipse
           style="fill:#333333;fill-rule:evenodd;stroke:#ff0000;stroke-width:0;stop-color:#000000"
           id="ellipse3864"
           cx="199.91968"
           cy="96.140465"
           rx="0.35435271"
           ry="0.42522326" />
        <ellipse
           style="fill:#333333;fill-rule:evenodd;stroke:#ff0000;stroke-width:0;stop-color:#000000"
           id="ellipse3866"
           cx="194.6113"
           cy="96.129005"
           rx="0.35435271"
           ry="0.42522326" />
      </g>
      <path
         style="display:inline;fill:#000000;stroke:#000000;stroke-width:0.264583px;stroke-linecap:butt;stroke-linejoin:miter;stroke-opacity:1"
         d="m 284.00888,65.320479 c 0,0 1.39119,-1.451963 5.81773,-0.923972 4.42655,0.527978 9.99135,-2.771929 10.75017,-0.527991 0.75885,2.243937 0.88533,4.091877 1.89711,5.279844 1.01178,1.187968 4.17359,-4.091877 1.64414,-7.919762 -2.52946,-3.827869 -4.68106,-5.525637 -7.58836,-5.807805 -2.95176,-0.286482 -9.91659,0.825457 -10.87665,1.847938 -2.21478,2.358744 -3.41475,1.847932 -2.90887,4.22385 0.50589,2.375935 1.26473,3.827898 1.26473,3.827898 z"
         id="path3870"
         sodipodi:nodetypes="csssssssc" />
      <path
         style="display:inline;fill:none;stroke:#000000;stroke-width:0.264584px;stroke-linecap:butt;stroke-linejoin:miter;stroke-opacity:1"
         d="m 284.29274,72.728813 c 0.0455,0.01406 0.0915,-0.102872 0.12509,-0.317772 0.0336,-0.214901 0.0543,-0.525127 0.0563,-0.843097 0.002,-0.31797 -0.0147,-0.639769 -0.0454,-0.874546 -0.0307,-0.234778 -0.0751,-0.379643 -0.1206,-0.393698 -0.0455,-0.01406 -0.0915,0.102872 -0.1251,0.317772 -0.0336,0.214901 -0.0543,0.525127 -0.0563,0.843097 -0.002,0.31797 0.0147,0.639769 0.0455,0.874546 0.0307,0.234778 0.0751,0.379643 0.1206,0.393698 z"
         id="path3872" />
      <path
         style="display:inline;fill:none;stroke:#000000;stroke-width:0.264584px;stroke-linecap:butt;stroke-linejoin:miter;stroke-opacity:1"
         d="m 302.8136,72.728813 c 0.0455,0.01406 0.0915,-0.102872 0.12509,-0.317772 0.0336,-0.214901 0.0543,-0.525127 0.0563,-0.843097 0.002,-0.31797 -0.0147,-0.639769 -0.0454,-0.874546 -0.0307,-0.234778 -0.0751,-0.379643 -0.1206,-0.393698 -0.0455,-0.01406 -0.0915,0.102872 -0.1251,0.317772 -0.0336,0.214901 -0.0543,0.525127 -0.0563,0.843097 -0.002,0.31797 0.0147,0.639769 0.0455,0.874546 0.0307,0.234778 0.0751,0.379643 0.1206,0.393698 z"
         id="path3874" />
    </g>
  </g>
</svg>
