<?xml version="1.0" encoding="UTF-8" standalone="no"?>
<svg
   width="850"
   height="1050"
   viewBox="0 0 224.89584 277.8125"
   version="1.1"
   id="svg8"
   inkscape:version="1.1.2 (b8e25be833, 2022-02-05)"
   sodipodi:docname="forca7.svg"
   xmlns:inkscape="http://www.inkscape.org/namespaces/inkscape"
   xmlns:sodipodi="http://sodipodi.sourceforge.net/DTD/sodipodi-0.dtd"
   xmlns="http://www.w3.org/2000/svg"
   xmlns:svg="http://www.w3.org/2000/svg"
   xmlns:rdf="http://www.w3.org/1999/02/22-rdf-syntax-ns#"
   xmlns:cc="http://creativecommons.org/ns#"
   xmlns:dc="http://purl.org/dc/elements/1.1/">
  <defs
     id="defs2">
    <inkscape:path-effect
       effect="spiro"
       id="path-effect2063"
       is_visible="true"
       lpeversion="1" />
    <inkscape:path-effect
       effect="spiro"
       id="path-effect4198"
       is_visible="true"
       lpeversion="1" />
    <inkscape:path-effect
       effect="spiro"
       id="path-effect4194"
       is_visible="true"
       lpeversion="1" />
    <inkscape:path-effect
       effect="spiro"
       id="path-effect2063-9"
       is_visible="true"
       lpeversion="1" />
  </defs>
  <sodipodi:namedview
     id="base"
     pagecolor="#ffffff"
     bordercolor="#666666"
     borderopacity="1.0"
     inkscape:pageopacity="0.0"
     inkscape:pageshadow="2"
     inkscape:zoom="0.5"
     inkscape:cx="1228"
     inkscape:cy="777"
     inkscape:document-units="cm"
     inkscape:current-layer="layer7"
     inkscape:document-rotation="0"
     showgrid="false"
     units="px"
     inkscape:pagecheckerboard="true"
     inkscape:showpageshadow="false"
     showguides="false"
     inkscape:window-width="1920"
     inkscape:window-height="1017"
     inkscape:window-x="-8"
     inkscape:window-y="-8"
     inkscape:window-maximized="1" />
  <metadata
     id="metadata5">
    <rdf:RDF>
      <cc:Work
         rdf:about="">
        <dc:format>image/svg+xml</dc:format>
        <dc:type
           rdf:resource="http://purl.org/dc/dcmitype/StillImage" />
      </cc:Work>
    </rdf:RDF>
  </metadata>
  <g
     inkscape:groupmode="layer"
     id="layer8"
     inkscape:label="banco" />
  <g
     inkscape:groupmode="layer"
     id="layer6"
     inkscape:label="sapatos">
    <g
       id="g4775"
       transform="translate(-70.29305,26.130502)">
      <g
         id="g3800"
         transform="matrix(1.274685,0,0,1.5298485,-24.478565,-110.17686)"
         style="fill:#999999;stroke-width:0.716101">
        <ellipse
           style="fill:#999999;fill-opacity:1;fill-rule:evenodd;stroke:none;stroke-width:0;stop-color:#000000"
           id="ellipse3796"
           cx="213.98267"
           cy="218.8495"
           rx="5.2117558"
           ry="7.8883786" />
        <ellipse
           style="fill:#999999;fill-opacity:1;fill-rule:evenodd;stroke:none;stroke-width:0;stop-color:#000000"
           id="ellipse3798"
           cx="234.02788"
           cy="218.65594"
           rx="5.2117558"
           ry="7.8883786" />
      </g>
      <ellipse
         style="fill:#ececec;fill-opacity:1;fill-rule:evenodd;stroke:none;stroke-width:0;stop-color:#000000"
         id="ellipse3802"
         cx="248.28201"
         cy="220.85291"
         rx="6.6433468"
         ry="12.068024" />
      <ellipse
         style="fill:#ececec;fill-opacity:1;fill-rule:evenodd;stroke:none;stroke-width:0;stop-color:#000000"
         id="ellipse3804"
         cx="273.83334"
         cy="219.99678"
         rx="6.6433468"
         ry="12.068024" />
    </g>
  </g>
  <g
     inkscape:label="forca"
     inkscape:groupmode="layer"
     id="layer1"
     style="display:inline">
    <path
       id="rect846"
       style="fill:#ff0000;fill-rule:evenodd;stroke:#ff0000;stroke-width:0;stop-color:#000000"
       d="m 23.686803,15.572689 c -3.486483,9.07143 -3.486469,17.386758 0,24.946282 H 202.44806 c 3.23049,-7.994439 4.3416,-16.199348 0,-24.946282 z m 165.211787,8.67854 a 4.3703245,5.2117556 0 0 1 4.37016,5.212085 4.3703245,5.2117556 0 0 1 -4.37016,5.211569 4.3703245,5.2117556 0 0 1 -4.37061,-5.211569 4.3703245,5.2117556 0 0 1 4.37061,-5.212085 z" />
    <ellipse
       style="fill:#ff0000;fill-rule:evenodd;stroke:#ff0000;stroke-width:0;stop-color:#000000"
       id="path972"
       cx="54.33408"
       cy="267.89056"
       rx="54.145088"
       ry="9.3549109" />
    <path
       id="rect844"
       style="fill:#550000;fill-rule:evenodd;stroke:#ff0000;stroke-width:0;stop-color:#000000"
       d="m 42.333326,5.3672642 c 7.370536,-6.22450266 14.741071,-5.86857661 22.111607,0 V 267.87166 c -14.957951,4.33567 -17.143055,1.37256 -22.111607,0 z"
       sodipodi:nodetypes="ccccc" />
    <circle
       style="fill:#666666;fill-rule:evenodd;stroke:#ff0000;stroke-width:0;stop-color:#000000"
       id="path1604"
       cx="49.569092"
       cy="21.013557"
       r="4.4822459" />
    <circle
       style="fill:#666666;fill-rule:evenodd;stroke:#ff0000;stroke-width:0;stop-color:#000000"
       id="path1604-8"
       cx="58.260738"
       cy="33.569859"
       r="4.4822459" />
    <rect
       style="fill:#000000;fill-rule:evenodd;stroke:#ff0000;stroke-width:0;stop-color:#000000"
       id="rect1876"
       width="1.1339285"
       height="6.2366071"
       x="49.042412"
       y="17.878269" />
    <rect
       style="fill:#000000;fill-rule:evenodd;stroke:#ff0000;stroke-width:0;stop-color:#000000"
       id="rect1958"
       width="1.1339285"
       height="6.2366071"
       x="32.161728"
       y="-61.815247"
       transform="rotate(91.005068)" />
    <rect
       style="fill:#000000;fill-rule:evenodd;stroke:#ff0000;stroke-width:0;stop-color:#000000"
       id="rect2173"
       width="1.1339285"
       height="6.2366071"
       x="58.393375"
       y="29.133501"
       transform="rotate(1.4695485)" />
    <rect
       style="fill:#000000;fill-rule:evenodd;stroke:#ff0000;stroke-width:0;stop-color:#000000"
       id="rect2175"
       width="1.1339285"
       height="6.2366071"
       x="19.642059"
       y="-53.053661"
       transform="rotate(90.906567)" />
    <circle
       id="path2819"
       style="fill:#666666;stroke:#ff0000;stroke-width:0.264583"
       cx="234.53423"
       cy="52.538689"
       r="0" />
    <circle
       id="path2821"
       style="fill:#666666;stroke:#ff0000;stroke-width:0.264583"
       cx="234.53423"
       cy="52.538689"
       r="0" />
    <path
       style="fill:#d45500;fill-opacity:1;fill-rule:evenodd;stroke:#000000;stroke-width:0.312208;stroke-miterlimit:4;stroke-dasharray:1.87326, 1.87326;stroke-dashoffset:0;stroke-opacity:1;stop-color:#000000"
       id="path16054"
       d="m 192.01253,26.526431 c -0.44512,-0.599625 -0.7793,-1.322599 -1.25883,-1.882517 -0.11529,-0.134618 -0.23248,-0.272121 -0.36924,-0.368799 -0.13262,-0.09376 -0.28565,-0.130088 -0.42847,-0.195133 -0.50864,0.03303 -1.02402,-0.01106 -1.52591,0.0991 -0.17674,0.03879 -0.31868,0.211598 -0.4678,0.338486 -0.20886,0.177722 -0.72609,0.719992 -0.88446,0.954224 -0.33042,0.488701 -0.53494,1.016821 -0.78105,1.573701 -0.6795,1.856546 -0.91128,3.894857 -1.07224,5.913403 -0.0715,1.024037 -0.13559,2.05351 0.002,3.073892 0.0721,0.535476 0.15972,0.843565 0.2838,1.364774 0.23742,0.86411 0.56183,1.687211 0.95549,2.452775 0.20349,0.395754 0.4199,0.780528 0.62527,1.174709 0.1267,0.227758 0.26034,0.449495 0.38009,0.683269 0.34099,0.665688 0.48433,1.043984 0.79132,1.742316 0.40174,0.913846 0.79906,1.827669 1.18382,2.753413 0.4653,1.015998 0.7942,2.109973 1.13944,3.195697 0.47219,1.484912 0.0355,0.05301 0.47203,1.505107 0.43302,1.326884 0.70501,2.722869 0.91909,4.129958 0.19455,1.438785 0.20429,2.903304 0.22111,4.358958 0.0118,1.397057 0.002,2.794171 -0.002,4.191243 -0.002,1.043344 -0.004,2.086693 -0.006,3.130039 -0.0169,0.598075 0.0215,1.199608 -5.2e-4,1.797387 -0.01,0.260685 -0.0507,0.620928 -0.0769,0.878894 -0.0895,0.717081 -0.13253,1.440498 -0.16421,2.164786 0,0 1.07182,0.0074 1.07182,0.0074 v 0 c 0.031,-0.721045 0.0761,-1.440757 0.16355,-2.154823 0.026,-0.258441 0.0682,-0.635906 0.078,-0.896383 0.0224,-0.597719 -0.019,-1.199295 -3.7e-4,-1.797318 -5.1e-4,-1.043267 -5.1e-4,-2.086533 0.002,-3.129799 0.002,-1.397794 -5.1e-4,-2.795615 -0.008,-4.193378 -0.0141,-1.46351 -0.0213,-2.936496 -0.21605,-4.383185 -0.21762,-1.414363 -0.48533,-2.820187 -0.92414,-4.1532 -0.49395,-1.641581 0.0569,0.166703 -0.47417,-1.506158 -0.14405,-0.453709 -0.32543,-1.089101 -0.48464,-1.538679 -0.18089,-0.510787 -0.46203,-1.181515 -0.66206,-1.671751 -0.38538,-0.926022 -0.78351,-1.840078 -1.18401,-2.755456 -0.27494,-0.628391 -0.47991,-1.153563 -0.78451,-1.757942 -0.11751,-0.233138 -0.25065,-0.45287 -0.37596,-0.679305 -0.10485,-0.203294 -0.20971,-0.406586 -0.31456,-0.609881 -0.10312,-0.187069 -0.21024,-0.370665 -0.30936,-0.561213 -0.39206,-0.753728 -0.71534,-1.566336 -0.95504,-2.417486 -0.11601,-0.484783 -0.2147,-0.842659 -0.28369,-1.341348 -0.13958,-1.008998 -0.0739,-2.030339 -0.0102,-3.043981 0.15729,-2.00223 0.38351,-4.022621 1.07159,-5.857623 0.26574,-0.59054 0.42601,-1.019598 0.78516,-1.530625 0.13223,-0.188145 0.28938,-0.34584 0.44295,-0.505546 0.14183,-0.147497 0.28624,-0.292891 0.44223,-0.415012 0.14794,-0.115812 0.52698,-0.08899 0.46618,-0.296138 -0.0693,-0.236284 -0.39144,-0.0774 -0.58717,-0.116099 0.14177,0.04954 0.29327,0.06627 0.42529,0.148595 0.1378,0.08593 0.25537,0.218658 0.37061,0.347689 0.48615,0.544388 0.80979,1.271663 1.2455,1.873951 0,0 1.07328,-0.09511 1.07328,-0.09511 z" />
    <path
       style="fill:#aa4400;fill-opacity:1;fill-rule:evenodd;stroke:#000000;stroke-width:0.312208;stroke-miterlimit:4;stroke-dasharray:1.87325, 1.87325;stroke-dashoffset:0;stroke-opacity:1;stop-color:#000000"
       id="path16056"
       d="m 181.80193,41.045965 c 0.037,0.08426 0.0702,0.17054 0.11121,0.252778 0.12964,0.259871 0.27142,0.512929 0.40664,0.769675 0.1474,0.279887 0.41968,0.792967 0.58922,1.053494 0.11972,0.183968 0.25595,0.355595 0.38391,0.53339 0.31027,0.346871 0.47962,0.572973 0.84896,0.847513 0.1509,0.112173 0.31679,0.200671 0.47817,0.295611 0.55026,0.323731 1.06718,0.571093 1.65539,0.808469 0.52525,0.162936 1.05893,0.370274 1.61584,0.37052 0.6427,2.64e-4 1.69491,0.145788 2.40832,-0.209455 0.15256,-0.07597 0.28587,-0.188418 0.4288,-0.282625 0.88846,-0.753542 1.24,-1.867488 1.48428,-2.992067 0.0775,-0.540785 0.16824,-1.086038 0.11147,-1.63507 -0.0177,-0.171545 -0.0614,-0.339077 -0.0921,-0.508614 0,0 -1.49672,0.03001 -1.49672,0.03001 v 0 c 0.0308,0.161208 0.0747,0.320296 0.0926,0.483624 0.0588,0.535455 -0.0327,1.068027 -0.11017,1.595077 -0.23855,1.090271 -0.58349,2.169012 -1.4777,2.865221 -0.14197,0.08165 -0.27583,0.181073 -0.42591,0.244959 -0.51742,0.220236 -1.15,0.114557 0.55636,0.177165 0.16944,0.0062 -0.33987,-0.0072 -0.5077,-0.0323 -0.33928,-0.05077 -0.78224,-0.197027 -1.10747,-0.2946 -0.19124,-0.073 -0.38582,-0.137057 -0.5737,-0.218993 -0.3787,-0.165156 -0.71522,-0.363252 -1.07596,-0.565759 -0.1589,-0.0892 -0.32587,-0.16442 -0.47614,-0.268655 -0.3688,-0.255802 -0.54123,-0.478978 -0.8498,-0.81117 -0.12712,-0.172501 -0.26306,-0.338283 -0.38137,-0.517501 -0.31255,-0.47347 -0.54784,-0.995863 -0.8092,-1.499783 -0.0538,-0.103743 -0.11675,-0.202152 -0.16964,-0.306409 -0.0388,-0.0765 -0.0701,-0.156903 -0.10516,-0.235355 0,0 -1.51241,0.05085 -1.51241,0.05085 z" />
    <path
       style="fill:#d45500;fill-rule:evenodd;stroke:#000000;stroke-width:0.312208;stroke-dasharray:1.87325, 1.87325;stop-color:#000000"
       id="path5053"
       d="m 190.88185,71.996691 c 0.012,1.303912 -0.27263,2.467586 -0.27163,3.771537 0.0849,1.471803 -0.16629,2.922159 -0.33884,4.377651 -0.15888,1.400265 -0.19531,2.810634 -0.2158,4.218548 0.0191,0.695823 -0.0437,1.395675 -0.0119,2.091254 0.0366,0.799727 0.16234,1.600814 0.25705,2.395006 0.0768,0.828264 0.1569,1.651793 0.27514,2.47514 l 1.55907,-0.02225 v 0 c -0.11804,-0.822028 -0.1984,-1.644372 -0.27347,-2.471483 -0.0946,-0.788099 -0.21764,-1.582296 -0.25272,-2.376099 -0.0307,-0.695018 0.0274,-1.393915 0.0105,-2.08915 0.0231,-1.402617 0.0555,-2.807589 0.21568,-4.202592 0.17199,-1.461725 0.42399,-2.918018 0.33732,-4.396033 0.001,-1.303952 0.62329,-2.900752 0.63529,-4.204663 l -1.99387,-0.0066 z"
       sodipodi:nodetypes="ccccscccscscccccc" />
  </g>
  <g
     inkscape:groupmode="layer"
     id="layer4"
     inkscape:label="braços"
     style="display:inline">
    <ellipse
       style="display:inline;fill:#ffbe91;fill-opacity:1;fill-rule:evenodd;stroke:none;stroke-width:0;stop-color:#000000"
       id="ellipse3806"
       cx="-40.454697"
       cy="225.94522"
       rx="4.391747"
       ry="14.779484"
       transform="matrix(0.47839279,-0.87814597,0.85998681,0.51031625,0,0)" />
    <ellipse
       style="display:inline;fill:#ffbe91;fill-opacity:1;fill-rule:evenodd;stroke:none;stroke-width:0;stop-color:#000000"
       id="ellipse3808"
       cx="-237.36536"
       cy="-112.1572"
       rx="4.391747"
       ry="14.779484"
       transform="matrix(-0.47839279,-0.87814597,-0.85998681,0.51031625,0,0)" />
  </g>
  <g
     inkscape:groupmode="layer"
     id="layer3"
     inkscape:label="tronco"
     style="display:inline" />
  <g
     inkscape:groupmode="layer"
     id="layer5"
     inkscape:label="calças"
     style="display:inline">
    <g
       id="g3820"
       transform="matrix(0.45278062,0,0,0.47251351,91.731735,49.828257)"
       style="display:inline;stroke-width:2.16196">
      <path
         style="fill:#008000;stroke:#000000;stroke-width:0.572019px;stroke-linecap:butt;stroke-linejoin:miter;stroke-opacity:1"
         d="m 207.50892,141.36309 c 0,0 -21.54464,11.90625 -26.64732,13.04018 -5.10268,1.13393 -11.90625,6.80357 -12.47321,9.07143 -0.56697,2.26786 -14.17411,32.31696 -14.17411,32.31696 0,0 15.875,9.07143 20.97768,9.07143 5.10268,0 2.26786,-10.77232 5.10268,-7.9375 2.83482,2.83482 6.2366,5.66964 4.53571,28.91517 -1.70089,23.24555 -3.96875,42.71131 -3.96875,42.71131 0,0 48.75893,15.875 85.04463,-0.56694 -1.70087,-15.30806 -10.7723,-62.93305 -1.13392,-70.87055 6.80357,8.50446 6.80357,8.50446 6.80357,8.50446 0,0 17.5759,-6.2366 20.41073,-9.63839 -11.90625,-28.34821 -17.5759,-40.06547 -22.67858,-42.33333 -5.10267,-2.26786 -28.73203,-9.25097 -31.13745,-12.4582 -4.20949,1.60361 -14.01661,4.35699 -30.66166,0.17397 z"
         id="path3810" />
      <path
         id="path3812"
         style="fill:#000000;stroke:none;stroke-width:0.572017px;stroke-linecap:butt;stroke-linejoin:miter;stroke-opacity:1"
         d="m 238.07467,141.09532 c -4.82763,1.56805 -14.68649,3.66325 -30.56574,0.26777 a 16.335674,5.7378453 0 0 0 -0.91077,1.88535 16.335674,5.7378453 0 0 0 16.33551,5.73762 16.335674,5.7378453 0 0 0 16.33608,-5.73762 16.335674,5.7378453 0 0 0 -1.19508,-2.15312 z" />
      <path
         style="fill:none;stroke:#000000;stroke-width:0.572019px;stroke-linecap:butt;stroke-linejoin:miter;stroke-opacity:1"
         d="m 182.01055,170.25069 c 0,0 6.41446,20.84702 -1.60362,25.65787"
         id="path3814" />
      <path
         style="fill:none;stroke:#000000;stroke-width:0.572019px;stroke-linecap:butt;stroke-linejoin:miter;stroke-opacity:1"
         d="m 261.97425,171.45671 c 0,0 -6.41446,20.84702 1.60362,25.65787"
         id="path3816" />
      <path
         style="fill:#000000;fill-opacity:1;fill-rule:evenodd;stroke:none;stroke-width:0;stop-color:#000000"
         id="path3818"
         d="m 200.48282,145.30773 c 0.0878,0.095 0.17096,0.19451 0.2633,0.28511 0.18571,0.18218 0.37827,0.35728 0.57036,0.53273 1.14705,1.04774 2.35785,2.01961 3.56636,2.99478 1.31381,1.06349 2.70027,2.03281 4.18276,2.84674 0.90053,0.49443 1.11492,0.57079 2.06673,1.00638 1.40209,0.5609 2.79419,1.16623 4.24486,1.5951 0.78317,0.23153 1.1585,0.29591 1.95724,0.46704 1.15263,0.20746 2.31931,0.34073 3.49144,0.35637 1.27175,0.017 2.54387,0.0234 3.81557,0.003 0.8674,-0.0136 2.00465,-0.14013 2.86715,-0.22293 3.17755,-0.42426 6.25112,-1.36373 9.29329,-2.34312 1.34157,-0.49158 2.67355,-1.0106 3.96858,-1.6156 0.47249,-0.22074 1.29314,-0.62844 1.75879,-0.90372 0.23434,-0.13853 0.4565,-0.29671 0.68475,-0.44507 0.78134,-0.52637 1.51655,-1.1353 2.16111,-1.82456 0.0908,-0.0971 0.17451,-0.20046 0.26177,-0.3007 0.27186,-0.32647 0.45577,-0.71051 0.65682,-1.08122 0.13855,-0.25546 0.14254,-0.25319 0.29638,-0.49807 0,0 -2.5959,-0.14328 -2.5959,-0.14328 v 0 c -0.30928,0.51341 -0.55524,1.06814 -0.9349,1.53579 -0.69792,0.77873 -1.47487,1.48753 -2.35219,2.06118 -0.22241,0.14267 -0.43977,0.29356 -0.66724,0.42802 -0.25611,0.1514 -0.51906,0.29108 -0.78265,0.42907 -1.55153,0.8122 -3.17742,1.46939 -4.82544,2.05767 -3.04866,0.9698 -6.12975,1.90668 -9.31759,2.2871 -0.47495,0.0427 -0.94914,0.095 -1.42485,0.12823 -0.48011,0.0336 -0.96762,-0.009 -1.44202,0.0722 -0.32555,0.0556 1.31654,0.0592 0.99076,0.005 -0.42461,-0.0707 -0.86082,-0.0245 -1.29022,-0.0548 -0.85686,-0.0603 -1.30832,-0.14382 -2.14905,-0.26926 -0.73518,-0.14999 -1.23671,-0.23862 -1.95993,-0.44083 -1.45938,-0.40803 -2.85509,-1.01114 -4.2629,-1.5634 -0.82722,-0.37604 -1.27184,-0.56266 -2.06864,-0.98437 -1.49058,-0.7889 -2.87717,-1.74519 -4.18683,-2.80622 -0.8059,-0.6505 -1.14365,-0.91474 -1.92995,-1.58239 -0.71467,-0.60683 -1.42311,-1.22697 -2.06313,-1.9138 -0.0791,-0.0849 -0.14868,-0.17827 -0.22302,-0.2674 0,0 -2.62157,0.16893 -2.62157,0.16893 z" />
    </g>
    <g
       id="g4481"
       transform="translate(-100.96908,31.419011)">
      <path
         style="display:inline;fill:#b3b3b3;stroke:#000000;stroke-width:0.264583px;stroke-linecap:butt;stroke-linejoin:miter;stroke-opacity:1"
         d="m 274.30033,143.31576 c 12.41902,2.89658 25.12751,3.70863 38.50656,-0.30805 l -1.60665,69.95232 c -3.24539,4.21668 -7.84365,3.56226 -13.00862,0.86736 l -2.89081,-43.36846 -1.44538,-7.15581 -7.94972,48.78953 c -4.81801,6.75875 -9.63602,5.63699 -14.45402,0.86738 z"
         id="path3822"
         sodipodi:nodetypes="ccccccccc" />
      <path
         style="display:inline;fill:#000000;fill-opacity:1;fill-rule:evenodd;stroke:none;stroke-width:0;stop-color:#000000"
         id="path3824"
         d="m 275.06031,158.09084 c 0.65849,-0.14662 1.28784,-0.43667 1.88258,-0.76139 0.19338,-0.10563 0.39434,-0.20077 0.57062,-0.33506 0.19525,-0.14872 0.35796,-0.33909 0.53694,-0.50863 0.67529,-0.75487 1.18179,-1.66141 1.50205,-2.63843 0.16091,-0.49085 0.1978,-0.75756 0.29577,-1.25812 0.04,-0.18645 0.08,-0.3729 0.12007,-0.55935 0,0 -1.65501,-0.0376 -1.65501,-0.0376 v 0 c -0.0393,0.18741 -0.0785,0.37482 -0.11778,0.56224 -0.0982,0.50246 -0.1277,0.73459 -0.29092,1.22721 -0.31639,0.95492 -0.81489,1.83629 -1.49446,2.55784 -0.17901,0.15728 -0.34435,0.33325 -0.53701,0.47186 -0.17807,0.12811 -0.37651,0.22264 -0.56962,0.3243 -0.59453,0.31302 -1.2329,0.61033 -1.90125,0.68108 0,0 1.6581,0.27408 1.6581,0.27408 z" />
      <path
         style="display:inline;fill:#000000;fill-opacity:1;fill-rule:evenodd;stroke:none;stroke-width:0;stop-color:#000000"
         id="path3826"
         d="m 312.07123,159.68048 c -1.51454,-1.31266 -2.65138,-3.01929 -3.80197,-4.66776 -0.58509,-0.91095 -1.1465,-1.84858 -1.56794,-2.85651 -0.25693,-0.61449 -0.29431,-0.81914 -0.46677,-1.44078 0,0 -1.64728,0.0487 -1.64728,0.0487 v 0 c 0.17435,0.62076 0.22161,0.8579 0.47956,1.46973 0.42912,1.01783 1.00441,1.9617 1.5928,2.88466 0.78535,1.12665 0.76908,1.12114 1.59229,2.22978 0.65219,0.87836 1.31752,1.76079 2.14532,2.46963 0,0 1.67399,-0.1375 1.67399,-0.1375 z" />
      <path
         style="display:inline;fill:#000000;fill-opacity:1;fill-rule:evenodd;stroke:none;stroke-width:0;stop-color:#000000"
         id="path3828"
         d="m 310.85112,163.41688 c -0.83684,-0.47858 -1.55548,-1.15727 -2.27436,-1.80437 0,0 -1.62558,0.14523 -1.62558,0.14523 v 0 c 0.71591,0.65788 1.43462,1.32658 2.23873,1.86649 0,0 1.66121,-0.20735 1.66121,-0.20735 z" />
      <path
         style="display:inline;fill:#000000;fill-opacity:1;fill-rule:evenodd;stroke:none;stroke-width:0;stop-color:#000000"
         id="path3830"
         d="m 274.57962,171.01809 c -9.6e-4,-0.0923 -0.009,-0.18486 -0.004,-0.27704 0.005,-0.0794 0.0949,-0.77046 0.0982,-0.79634 0.0608,-0.48462 0.1132,-0.96908 0.15828,-1.45556 0.0115,-0.1694 0.0222,-0.33881 0.0333,-0.50822 0,0 -1.65894,-0.012 -1.65894,-0.012 v 0 c -0.0115,0.16789 -0.0232,0.33579 -0.0346,0.50368 -0.0446,0.48425 -0.0957,0.96635 -0.15967,1.44828 -0.0138,0.10404 -0.0974,0.68522 -0.10771,0.82027 -0.008,0.0921 -0.003,0.1847 -0.004,0.27705 0,0 1.67877,0 1.67877,0 z" />
      <path
         style="display:inline;fill:#000000;fill-opacity:1;fill-rule:evenodd;stroke:none;stroke-width:0;stop-color:#000000"
         id="path3832"
         d="m 285.78443,192.49291 c -0.19335,0.45808 -0.23341,0.52426 -0.39588,1.06828 -0.0937,0.3137 -0.16636,0.63598 -0.25831,0.95041 -0.0791,0.27026 -0.63619,2.04075 -0.71246,2.25938 -0.16371,0.46938 -0.3469,0.92863 -0.52036,1.39294 -0.76462,2.13775 -1.58124,4.2439 -2.43789,6.33043 0,0 1.60386,0.0879 1.60386,0.0879 v 0 c 0.85322,-2.09205 1.6704,-4.2016 2.44755,-6.33607 0.17774,-0.46776 0.36565,-0.93017 0.5332,-1.4033 0.076,-0.21442 0.64508,-2.00399 0.72514,-2.26729 0.0943,-0.3102 0.17303,-0.62717 0.27162,-0.93544 0.1664,-0.52034 0.21532,-0.60115 0.41305,-1.03888 0,0 -1.66952,-0.10842 -1.66952,-0.10842 z" />
      <path
         style="display:inline;fill:#000000;fill-opacity:1;fill-rule:evenodd;stroke:none;stroke-width:0;stop-color:#000000"
         id="path3834"
         d="m 302.21507,177.01228 c 0.0362,0.12891 0.065,0.26031 0.1086,0.38665 0.10223,0.29563 0.38895,0.95913 0.49349,1.21738 0.30872,0.76251 0.60535,1.52891 0.92177,2.28816 0.45932,1.14866 0.23507,0.55205 0.66814,1.79171 0,0 1.63069,-0.0588 1.63069,-0.0588 v 0 c -0.42523,-1.24992 -0.2024,-0.64984 -0.66289,-1.80251 -0.31181,-0.75977 -0.6089,-1.5247 -0.91219,-2.28809 -0.0447,-0.11269 -0.41413,-1.01167 -0.4749,-1.19516 -0.0413,-0.12452 -0.0647,-0.25479 -0.0971,-0.38218 0,0 -1.67557,0.0428 -1.67557,0.0428 z" />
      <path
         style="display:inline;fill:#000000;fill-opacity:1;fill-rule:evenodd;stroke:none;stroke-width:0;stop-color:#000000"
         id="path3836"
         d="m 274.29778,146.79566 c 0.34814,0.11188 0.34012,0.12159 0.75761,0.1871 0.9771,0.15342 1.95881,0.27357 2.93632,0.4242 1.61861,0.2494 3.2355,0.51109 4.85382,0.76266 3.4836,0.59536 6.99922,0.91679 10.50563,1.31839 2.02585,0.25338 4.06301,0.37774 6.1016,0.4384 1.88579,0.0376 3.77215,0.0287 5.6582,0.0266 1.19674,-0.13078 2.3252,-0.57957 3.40285,-1.1184 0.29005,-0.14504 0.58504,-0.28203 0.86135,-0.45384 0.26634,-0.1656 0.5083,-0.37059 0.76243,-0.55586 0.6419,-0.50687 1.29695,-1.00837 1.88291,-1.58709 0.36137,-0.35692 0.74512,-0.81693 1.0775,-1.20198 0,0 -0.66,-0.0507 -0.66,-0.0507 v 0 c -0.35078,0.40465 -0.69571,0.81908 -1.07725,1.19351 -0.5861,0.57518 -1.23825,1.07607 -1.87972,1.57992 -0.25363,0.18211 -0.49562,0.38329 -0.76089,0.54633 -0.2768,0.17014 -0.57126,0.3071 -0.86146,0.45086 -1.07689,0.53345 -2.20537,0.97443 -3.40104,1.0893 -1.45052,0.001 -2.9012,0.005 -4.3515,-0.0248 -2.04119,-0.0581 -4.08117,-0.17913 -6.10974,-0.4315 -3.51179,-0.4011 -7.03301,-0.71985 -10.52229,-1.31321 -0.8225,-0.12798 -1.64502,-0.25584 -2.46753,-0.38376 -0.79237,-0.12692 -1.58426,-0.25707 -2.3771,-0.38068 -0.62453,-0.0974 -1.24996,-0.18818 -1.87492,-0.28227 -0.34627,-0.0475 -0.69321,-0.0897 -1.03878,-0.14241 -0.41028,-0.0627 -0.40569,-0.0708 -0.75008,-0.16836 0,0 -0.66792,0.0774 -0.66792,0.0774 z" />
      <path
         style="display:inline;fill:#000000;fill-opacity:1;fill-rule:evenodd;stroke:none;stroke-width:0;stop-color:#000000"
         id="path3838"
         d="m 307.90158,145.28447 c 9.6e-4,0.43113 0.003,0.86227 0.003,1.29338 0,0 0.66598,0 0.66598,0 v 0 c 6.7e-4,-0.43111 9.6e-4,-0.86225 0.003,-1.29338 0,0 -0.67129,0 -0.67129,0 z" />
      <path
         style="display:inline;fill:#000000;fill-opacity:1;fill-rule:evenodd;stroke:none;stroke-width:0;stop-color:#000000"
         id="path3840"
         d="m 297.49558,146.06121 c -0.0127,0.58639 0.0643,1.16856 0.11332,1.7516 0.009,0.35302 0.0897,0.69793 0.15582,1.04251 0,0 0.65771,-0.0136 0.65771,-0.0136 v 0 c -0.0654,-0.34216 -0.14276,-0.68472 -0.153,-1.03505 -0.0496,-0.5807 -0.12754,-1.16133 -0.1044,-1.74553 0,0 -0.66938,0 -0.66938,0 z" />
      <path
         style="display:inline;fill:#000000;fill-opacity:1;fill-rule:evenodd;stroke:none;stroke-width:0;stop-color:#000000"
         id="path3842"
         d="m 289.3647,146.03866 c 6.8e-4,0.0565 0.005,0.11321 9.6e-4,0.16965 -0.004,0.0705 -0.0437,0.40754 -0.0496,0.45979 -0.0297,0.26008 -0.0565,0.52001 -0.0796,0.78082 -0.0251,0.33466 -0.0262,0.66949 -0.0658,1.00266 0,0 0.66404,0.008 0.66404,0.008 v 0 c 0.038,-0.334 0.0393,-0.66942 0.065,-1.00468 0.0226,-0.26015 0.0487,-0.51939 0.0795,-0.77865 0.009,-0.0764 0.0477,-0.37929 0.0533,-0.46828 0.004,-0.0564 9.5e-4,-0.11308 9.5e-4,-0.16966 0,0 -0.67034,0 -0.67034,0 z" />
      <path
         style="display:inline;fill:#000000;fill-opacity:1;fill-rule:evenodd;stroke:none;stroke-width:0;stop-color:#000000"
         id="path3844"
         d="m 283.76329,145.63897 c 3.3e-4,0.0355 0.003,0.28064 0.003,0.28732 -0.009,0.16046 -0.0335,0.31955 -0.0491,0.47944 -0.0331,0.33979 -0.0273,0.28355 -0.0567,0.62361 -0.0338,0.38367 -0.0482,0.76873 -0.0611,1.15365 0,0 0.66272,0.003 0.66272,0.003 v 0 c 0.0115,-0.38363 0.0261,-0.76732 0.0593,-1.14974 0.0247,-0.28499 0.0281,-0.33766 0.058,-0.62224 0.017,-0.16245 0.0437,-0.32396 0.0538,-0.48704 0.007,-0.0955 -0.003,-0.19168 0.003,-0.28732 0,0 -0.6713,0 -0.6713,0 z" />
      <path
         style="display:inline;fill:#000000;fill-opacity:1;fill-rule:evenodd;stroke:none;stroke-width:0;stop-color:#000000"
         id="path3846"
         d="m 278.02031,144.34306 c -0.0102,0.0379 -0.0211,0.0754 -0.0288,0.11374 -0.0396,0.19735 -0.0227,0.16902 -0.0554,0.38051 -0.0414,0.26792 -0.0914,0.53428 -0.1316,0.80256 -0.0264,0.36566 -0.13216,0.7141 -0.23199,1.06297 0,0 0.66227,0.02 0.66227,0.02 v 0 c 0.10007,-0.35196 0.20499,-0.70359 0.2316,-1.0722 0.0408,-0.26895 0.0916,-0.53549 0.13506,-0.80383 0.0287,-0.17719 0.0207,-0.2042 0.0593,-0.37031 0.008,-0.0343 0.0207,-0.0673 0.0308,-0.10097 0,0 -0.6713,-0.0326 -0.6713,-0.0326 z" />
      <path
         style="display:inline;fill:#000000;fill-opacity:1;fill-rule:evenodd;stroke:none;stroke-width:0;stop-color:#000000"
         id="path3848"
         d="m 303.19925,146.40931 c 0.0203,0.0766 0.0404,0.1532 0.0607,0.22982 0.0205,0.0986 0.0357,0.19849 0.0615,0.29574 0.0914,0.3469 0.21195,0.68485 0.30698,1.03068 0.11651,0.42406 0.21958,0.85205 0.33276,1.2771 0,0 0.65931,-0.0186 0.65931,-0.0186 v 0 c -0.11282,-0.42566 -0.21503,-0.85431 -0.33048,-1.27919 -0.0934,-0.34368 -0.21227,-0.6796 -0.30101,-1.02461 -0.0454,-0.17632 -0.0595,-0.36054 -0.11879,-0.53346 0,0 -0.6708,0.0225 -0.6708,0.0225 z" />
    </g>
  </g>
  <g
     inkscape:groupmode="layer"
     id="layer9"
     inkscape:label="corda"
     style="display:inline">
    <path
       style="fill:#d45500;fill-opacity:1;fill-rule:evenodd;stroke:#000000;stroke-width:0.312208;stroke-miterlimit:4;stroke-dasharray:1.87326, 1.87326;stroke-dashoffset:0;stroke-opacity:1;stop-color:#000000"
       id="path16172"
       d="m 186.62369,113.37235 c -0.2233,0.11435 -0.36586,0.39248 -0.53971,0.61516 -0.0151,0.0194 -0.36594,0.44153 -0.37252,0.44945 -0.20064,0.2803 -0.33985,0.59897 -0.3506,1.02495 -0.003,0.11631 0.002,0.23622 0.0255,0.34703 0.0681,0.32224 0.18416,0.46726 0.32787,0.71643 0.51455,0.74012 1.17506,1.14277 1.81049,1.57995 0.58399,0.36321 1.19552,0.60689 1.81522,0.77812 0.27107,0.0631 0.5461,0.10996 0.81127,0.22124 0.4463,0.18734 0.88424,0.43693 1.32506,0.65193 0.65755,0.33103 1.33737,0.53223 2.02613,0.62662 0.66895,0.0348 1.36236,0.19089 2.0156,-0.0813 0.23555,-0.0982 0.29749,-0.15752 0.51877,-0.31115 0.28265,-0.28352 0.50529,-0.67354 0.62276,-1.16073 0.0606,-0.25136 0.0754,-0.44068 0.10638,-0.70226 0.0169,-0.53763 -0.0517,-1.08267 -0.1664,-1.59107 -0.0693,-0.30729 -0.13402,-0.49351 -0.22564,-0.78824 -0.11522,-0.37355 -0.22996,-0.74993 -0.32684,-1.13567 -0.098,-0.39027 -0.0784,-0.42376 -0.21235,-0.79008 -0.0411,-0.11288 -0.0932,-0.21597 -0.13976,-0.32396 -0.12674,-0.20968 -0.16427,-0.30147 -0.32217,-0.45153 -0.12821,-0.12185 -0.34605,-0.25918 -0.48202,-0.34117 -0.2149,-0.12959 -0.43214,-0.25013 -0.64719,-0.37917 -0.41727,-0.27273 -0.82724,-0.57477 -1.21072,-0.94646 -0.24137,-0.23394 -0.28234,-0.29346 -0.51286,-0.56093 -0.38477,-0.47332 -0.76014,-1.01495 -0.96866,-1.71195 -0.0341,-0.11434 -0.0577,-0.23545 -0.0864,-0.35318 -0.1457,-0.77744 -0.13722,-1.5943 -0.14287,-2.39563 -0.008,-0.75836 0.0651,-1.51239 0.11633,-2.26533 0,0 -1.01234,-0.0155 -1.01234,-0.0155 v 0 c -0.0494,0.75881 -0.1239,1.5181 -0.11604,2.28198 0.002,0.81852 -0.002,1.65267 0.14106,2.44812 0.0291,0.12505 0.0522,0.25363 0.0872,0.37515 0.2066,0.71795 0.58568,1.28543 0.97623,1.77599 0.0858,0.10286 0.16949,0.20981 0.25732,0.30858 0.45271,0.50918 0.95807,0.89482 1.47108,1.2413 0.87549,0.53612 -0.20364,-0.11934 0.64226,0.37801 0.21576,0.12685 0.45801,0.24859 0.64081,0.47355 0.0564,0.0694 0.10395,0.15367 0.15592,0.23049 0.0469,0.10035 0.0994,0.19518 0.14068,0.30105 0.14085,0.36098 0.11387,0.38267 0.21202,0.78127 0.0958,0.38908 0.21219,0.76755 0.32802,1.14338 0.0818,0.25981 0.1608,0.49243 0.2241,0.76412 0.11203,0.48077 0.17983,1.00881 0.16334,1.51879 -0.0318,0.25791 -0.0431,0.41618 -0.10631,0.6618 -0.11749,0.45639 -0.3359,0.80873 -0.61314,1.05113 -0.22096,0.13982 -0.2819,0.19489 -0.51635,0.27708 -0.0874,0.0306 -0.35414,0.0513 -0.26517,0.0683 0.24993,0.0473 0.50358,0.0172 0.75539,0.0246 0.16673,0.005 -0.68962,-0.023 -0.5,-0.0276 -0.6915,-0.0783 -1.37554,-0.26363 -2.03642,-0.58946 -0.46502,-0.22424 -0.44579,-0.21059 -0.91019,-0.45225 -0.13509,-0.0704 -0.2678,-0.15168 -0.40446,-0.2146 -0.26316,-0.12115 -0.5388,-0.17818 -0.81068,-0.2296 -0.61989,-0.15682 -1.22972,-0.39445 -1.81665,-0.73919 -0.95896,-0.64888 0.33202,0.22954 -0.65282,-0.45703 -0.10478,-0.073 -0.21337,-0.13355 -0.31642,-0.21209 -0.29942,-0.22824 -0.5814,-0.51442 -0.8337,-0.84885 -0.12064,-0.19252 -0.25616,-0.36314 -0.31959,-0.62179 -0.11753,-0.4791 0.0977,-0.91694 0.31877,-1.21401 0.0978,-0.11752 0.27926,-0.33353 0.37603,-0.45827 0.0884,-0.1139 0.20119,-0.28342 0.29782,-0.38508 0.0813,-0.0855 0.17754,-0.1353 0.25188,-0.23759 0,0 -1.02433,-0.12257 -1.02433,-0.12257 z" />
  </g>
  <g
     inkscape:groupmode="layer"
     id="layer10"
     inkscape:label="corda 2" />
  <g
     inkscape:groupmode="layer"
     id="layer2"
     inkscape:label="rosto"
     style="display:inline" />
  <g
     inkscape:groupmode="layer"
     id="layer7"
     inkscape:label="cabelo">
    <g
       id="g12396"
       transform="matrix(1.274685,0,0,1.5298485,89.873838,-112.42192)"
       style="fill:#999999;stroke-width:0.716101">
      <ellipse
         style="fill:#999999;fill-opacity:1;fill-rule:evenodd;stroke:none;stroke-width:0;stop-color:#000000"
         id="ellipse12372"
         cx="213.98267"
         cy="218.8495"
         rx="5.2117558"
         ry="7.8883786" />
      <ellipse
         style="fill:#999999;fill-opacity:1;fill-rule:evenodd;stroke:none;stroke-width:0;stop-color:#000000"
         id="ellipse12374"
         cx="234.02788"
         cy="218.65594"
         rx="5.2117558"
         ry="7.8883786" />
    </g>
    <ellipse
       style="fill:#ececec;fill-opacity:1;fill-rule:evenodd;stroke:none;stroke-width:0;stop-color:#000000"
       id="path12288"
       cx="362.63443"
       cy="218.60783"
       rx="6.6433468"
       ry="12.068024" />
    <ellipse
       style="fill:#ececec;fill-opacity:1;fill-rule:evenodd;stroke:none;stroke-width:0;stop-color:#000000"
       id="ellipse12370"
       cx="388.18576"
       cy="217.75171"
       rx="6.6433468"
       ry="12.068024" />
    <ellipse
       style="display:inline;fill:#ffbe91;fill-opacity:1;fill-rule:evenodd;stroke:none;stroke-width:0;stop-color:#000000"
       id="ellipse10633"
       cx="84.496925"
       cy="371.80914"
       rx="4.391747"
       ry="14.779484"
       transform="matrix(0.47839279,-0.87814597,0.85998681,0.51031625,0,0)" />
    <ellipse
       style="display:inline;fill:#ffbe91;fill-opacity:1;fill-rule:evenodd;stroke:none;stroke-width:0;stop-color:#000000"
       id="ellipse10890"
       cx="-301.5798"
       cy="-291.80795"
       rx="4.391747"
       ry="14.779484"
       transform="matrix(-0.47839279,-0.87814597,-0.85998681,0.51031625,0,0)" />
    <g
       id="g10631"
       transform="matrix(0.45278062,0,0,0.47251351,276.5996,14.136084)"
       style="display:inline;stroke-width:2.16196">
      <path
         style="fill:#008000;stroke:#000000;stroke-width:0.572019px;stroke-linecap:butt;stroke-linejoin:miter;stroke-opacity:1"
         d="m 207.50892,141.36309 c 0,0 -21.54464,11.90625 -26.64732,13.04018 -5.10268,1.13393 -11.90625,6.80357 -12.47321,9.07143 -0.56697,2.26786 -14.17411,32.31696 -14.17411,32.31696 0,0 15.875,9.07143 20.97768,9.07143 5.10268,0 2.26786,-10.77232 5.10268,-7.9375 2.83482,2.83482 6.2366,5.66964 4.53571,28.91517 -1.70089,23.24555 -3.96875,42.71131 -3.96875,42.71131 0,0 48.75893,15.875 85.04463,-0.56694 -1.70087,-15.30806 -10.7723,-62.93305 -1.13392,-70.87055 6.80357,8.50446 6.80357,8.50446 6.80357,8.50446 0,0 17.5759,-6.2366 20.41073,-9.63839 -11.90625,-28.34821 -17.5759,-40.06547 -22.67858,-42.33333 -5.10267,-2.26786 -28.73203,-9.25097 -31.13745,-12.4582 -4.20949,1.60361 -14.01661,4.35699 -30.66166,0.17397 z"
         id="path9397" />
      <path
         id="path9397-9"
         style="fill:#000000;stroke:none;stroke-width:0.572017px;stroke-linecap:butt;stroke-linejoin:miter;stroke-opacity:1"
         d="m 238.07467,141.09532 c -4.82763,1.56805 -14.68649,3.66325 -30.56574,0.26777 a 16.335674,5.7378453 0 0 0 -0.91077,1.88535 16.335674,5.7378453 0 0 0 16.33551,5.73762 16.335674,5.7378453 0 0 0 16.33608,-5.73762 16.335674,5.7378453 0 0 0 -1.19508,-2.15312 z" />
      <path
         style="fill:none;stroke:#000000;stroke-width:0.572019px;stroke-linecap:butt;stroke-linejoin:miter;stroke-opacity:1"
         d="m 182.01055,170.25069 c 0,0 6.41446,20.84702 -1.60362,25.65787"
         id="path10425" />
      <path
         style="fill:none;stroke:#000000;stroke-width:0.572019px;stroke-linecap:butt;stroke-linejoin:miter;stroke-opacity:1"
         d="m 261.97425,171.45671 c 0,0 -6.41446,20.84702 1.60362,25.65787"
         id="path10507" />
      <path
         style="fill:#000000;fill-opacity:1;fill-rule:evenodd;stroke:none;stroke-width:0;stop-color:#000000"
         id="path10544"
         d="m 200.48282,145.30773 c 0.0878,0.095 0.17096,0.19451 0.2633,0.28511 0.18571,0.18218 0.37827,0.35728 0.57036,0.53273 1.14705,1.04774 2.35785,2.01961 3.56636,2.99478 1.31381,1.06349 2.70027,2.03281 4.18276,2.84674 0.90053,0.49443 1.11492,0.57079 2.06673,1.00638 1.40209,0.5609 2.79419,1.16623 4.24486,1.5951 0.78317,0.23153 1.1585,0.29591 1.95724,0.46704 1.15263,0.20746 2.31931,0.34073 3.49144,0.35637 1.27175,0.017 2.54387,0.0234 3.81557,0.003 0.8674,-0.0136 2.00465,-0.14013 2.86715,-0.22293 3.17755,-0.42426 6.25112,-1.36373 9.29329,-2.34312 1.34157,-0.49158 2.67355,-1.0106 3.96858,-1.6156 0.47249,-0.22074 1.29314,-0.62844 1.75879,-0.90372 0.23434,-0.13853 0.4565,-0.29671 0.68475,-0.44507 0.78134,-0.52637 1.51655,-1.1353 2.16111,-1.82456 0.0908,-0.0971 0.17451,-0.20046 0.26177,-0.3007 0.27186,-0.32647 0.45577,-0.71051 0.65682,-1.08122 0.13855,-0.25546 0.14254,-0.25319 0.29638,-0.49807 0,0 -2.5959,-0.14328 -2.5959,-0.14328 v 0 c -0.30928,0.51341 -0.55524,1.06814 -0.9349,1.53579 -0.69792,0.77873 -1.47487,1.48753 -2.35219,2.06118 -0.22241,0.14267 -0.43977,0.29356 -0.66724,0.42802 -0.25611,0.1514 -0.51906,0.29108 -0.78265,0.42907 -1.55153,0.8122 -3.17742,1.46939 -4.82544,2.05767 -3.04866,0.9698 -6.12975,1.90668 -9.31759,2.2871 -0.47495,0.0427 -0.94914,0.095 -1.42485,0.12823 -0.48011,0.0336 -0.96762,-0.009 -1.44202,0.0722 -0.32555,0.0556 1.31654,0.0592 0.99076,0.005 -0.42461,-0.0707 -0.86082,-0.0245 -1.29022,-0.0548 -0.85686,-0.0603 -1.30832,-0.14382 -2.14905,-0.26926 -0.73518,-0.14999 -1.23671,-0.23862 -1.95993,-0.44083 -1.45938,-0.40803 -2.85509,-1.01114 -4.2629,-1.5634 -0.82722,-0.37604 -1.27184,-0.56266 -2.06864,-0.98437 -1.49058,-0.7889 -2.87717,-1.74519 -4.18683,-2.80622 -0.8059,-0.6505 -1.14365,-0.91474 -1.92995,-1.58239 -0.71467,-0.60683 -1.42311,-1.22697 -2.06313,-1.9138 -0.0791,-0.0849 -0.14868,-0.17827 -0.22302,-0.2674 0,0 -2.62157,0.16893 -2.62157,0.16893 z" />
    </g>
    <path
       style="display:inline;fill:#b3b3b3;stroke:#000000;stroke-width:0.264583px;stroke-linecap:butt;stroke-linejoin:miter;stroke-opacity:1"
       d="m 358.49023,141.0707 c 12.41902,2.89658 25.12751,3.70863 38.50656,-0.30805 l -1.60665,69.95232 c -3.24539,4.21668 -7.84365,3.56226 -13.00862,0.86736 l -2.89081,-43.36846 -1.44538,-7.15581 -7.94972,48.78953 c -4.81801,6.75875 -9.63602,5.63699 -14.45402,0.86738 z"
       id="path11072"
       sodipodi:nodetypes="ccccccccc" />
    <path
       style="display:inline;fill:#000000;fill-opacity:1;fill-rule:evenodd;stroke:none;stroke-width:0;stop-color:#000000"
       id="path12042"
       d="m 359.25021,155.84578 c 0.65849,-0.14662 1.28784,-0.43667 1.88258,-0.76139 0.19338,-0.10563 0.39434,-0.20077 0.57062,-0.33506 0.19525,-0.14872 0.35796,-0.33909 0.53694,-0.50863 0.67529,-0.75487 1.18179,-1.66141 1.50205,-2.63843 0.16091,-0.49085 0.1978,-0.75756 0.29577,-1.25812 0.04,-0.18645 0.08,-0.3729 0.12007,-0.55935 0,0 -1.65501,-0.0376 -1.65501,-0.0376 v 0 c -0.0393,0.18741 -0.0785,0.37482 -0.11778,0.56224 -0.0982,0.50246 -0.1277,0.73459 -0.29092,1.22721 -0.31639,0.95492 -0.81489,1.83629 -1.49446,2.55784 -0.17901,0.15728 -0.34435,0.33325 -0.53701,0.47186 -0.17807,0.12811 -0.37651,0.22264 -0.56962,0.3243 -0.59453,0.31302 -1.2329,0.61033 -1.90125,0.68108 0,0 1.6581,0.27408 1.6581,0.27408 z" />
    <path
       style="display:inline;fill:#000000;fill-opacity:1;fill-rule:evenodd;stroke:none;stroke-width:0;stop-color:#000000"
       id="path12044"
       d="m 396.26113,157.43542 c -1.51454,-1.31266 -2.65138,-3.01929 -3.80197,-4.66776 -0.58509,-0.91095 -1.1465,-1.84858 -1.56794,-2.85651 -0.25693,-0.61449 -0.29431,-0.81914 -0.46677,-1.44078 0,0 -1.64728,0.0487 -1.64728,0.0487 v 0 c 0.17435,0.62076 0.22161,0.8579 0.47956,1.46973 0.42912,1.01783 1.00441,1.9617 1.5928,2.88466 0.78535,1.12665 0.76908,1.12114 1.59229,2.22978 0.65219,0.87836 1.31752,1.76079 2.14532,2.46963 0,0 1.67399,-0.1375 1.67399,-0.1375 z" />
    <path
       style="display:inline;fill:#000000;fill-opacity:1;fill-rule:evenodd;stroke:none;stroke-width:0;stop-color:#000000"
       id="path12046"
       d="m 395.04102,161.17182 c -0.83684,-0.47858 -1.55548,-1.15727 -2.27436,-1.80437 0,0 -1.62558,0.14523 -1.62558,0.14523 v 0 c 0.71591,0.65788 1.43462,1.32658 2.23873,1.86649 0,0 1.66121,-0.20735 1.66121,-0.20735 z" />
    <path
       style="display:inline;fill:#000000;fill-opacity:1;fill-rule:evenodd;stroke:none;stroke-width:0;stop-color:#000000"
       id="path12050"
       d="m 358.76952,168.77303 c -9.6e-4,-0.0923 -0.009,-0.18486 -0.004,-0.27704 0.005,-0.0794 0.0949,-0.77046 0.0982,-0.79634 0.0608,-0.48462 0.1132,-0.96908 0.15828,-1.45556 0.0115,-0.1694 0.0222,-0.33881 0.0333,-0.50822 0,0 -1.65894,-0.012 -1.65894,-0.012 v 0 c -0.0115,0.16789 -0.0232,0.33579 -0.0346,0.50368 -0.0446,0.48425 -0.0957,0.96635 -0.15967,1.44828 -0.0138,0.10404 -0.0974,0.68522 -0.10771,0.82027 -0.008,0.0921 -0.003,0.1847 -0.004,0.27705 0,0 1.67877,0 1.67877,0 z" />
    <path
       style="display:inline;fill:#000000;fill-opacity:1;fill-rule:evenodd;stroke:none;stroke-width:0;stop-color:#000000"
       id="path12052"
       d="m 369.97433,190.24785 c -0.19335,0.45808 -0.23341,0.52426 -0.39588,1.06828 -0.0937,0.3137 -0.16636,0.63598 -0.25831,0.95041 -0.0791,0.27026 -0.63619,2.04075 -0.71246,2.25938 -0.16371,0.46938 -0.3469,0.92863 -0.52036,1.39294 -0.76462,2.13775 -1.58124,4.2439 -2.43789,6.33043 0,0 1.60386,0.0879 1.60386,0.0879 v 0 c 0.85322,-2.09205 1.6704,-4.2016 2.44755,-6.33607 0.17774,-0.46776 0.36565,-0.93017 0.5332,-1.4033 0.076,-0.21442 0.64508,-2.00399 0.72514,-2.26729 0.0943,-0.3102 0.17303,-0.62717 0.27162,-0.93544 0.1664,-0.52034 0.21532,-0.60115 0.41305,-1.03888 0,0 -1.66952,-0.10842 -1.66952,-0.10842 z" />
    <path
       style="display:inline;fill:#000000;fill-opacity:1;fill-rule:evenodd;stroke:none;stroke-width:0;stop-color:#000000"
       id="path12054"
       d="m 386.40497,174.76722 c 0.0362,0.12891 0.065,0.26031 0.1086,0.38665 0.10223,0.29563 0.38895,0.95913 0.49349,1.21738 0.30872,0.76251 0.60535,1.52891 0.92177,2.28816 0.45932,1.14866 0.23507,0.55205 0.66814,1.79171 0,0 1.63069,-0.0588 1.63069,-0.0588 v 0 c -0.42523,-1.24992 -0.2024,-0.64984 -0.66289,-1.80251 -0.31181,-0.75977 -0.6089,-1.5247 -0.91219,-2.28809 -0.0447,-0.11269 -0.41413,-1.01167 -0.4749,-1.19516 -0.0413,-0.12452 -0.0647,-0.25479 -0.0971,-0.38218 0,0 -1.67557,0.0428 -1.67557,0.0428 z" />
    <path
       style="display:inline;fill:#000000;fill-opacity:1;fill-rule:evenodd;stroke:none;stroke-width:0;stop-color:#000000"
       id="path12169"
       d="m 358.48768,144.5506 c 0.34814,0.11188 0.34012,0.12159 0.75761,0.1871 0.9771,0.15342 1.95881,0.27357 2.93632,0.4242 1.61861,0.2494 3.2355,0.51109 4.85382,0.76266 3.4836,0.59536 6.99922,0.91679 10.50563,1.31839 2.02585,0.25338 4.06301,0.37774 6.1016,0.4384 1.88579,0.0376 3.77215,0.0287 5.6582,0.0266 1.19674,-0.13078 2.3252,-0.57957 3.40285,-1.1184 0.29005,-0.14504 0.58504,-0.28203 0.86135,-0.45384 0.26634,-0.1656 0.5083,-0.37059 0.76243,-0.55586 0.6419,-0.50687 1.29695,-1.00837 1.88291,-1.58709 0.36137,-0.35692 0.74512,-0.81693 1.0775,-1.20198 0,0 -0.66,-0.0507 -0.66,-0.0507 v 0 c -0.35078,0.40465 -0.69571,0.81908 -1.07725,1.19351 -0.5861,0.57518 -1.23825,1.07607 -1.87972,1.57992 -0.25363,0.18211 -0.49562,0.38329 -0.76089,0.54633 -0.2768,0.17014 -0.57126,0.3071 -0.86146,0.45086 -1.07689,0.53345 -2.20537,0.97443 -3.40104,1.0893 -1.45052,0.001 -2.9012,0.005 -4.3515,-0.0248 -2.04119,-0.0581 -4.08117,-0.17913 -6.10974,-0.4315 -3.51179,-0.4011 -7.03301,-0.71985 -10.52229,-1.31321 -0.8225,-0.12798 -1.64502,-0.25584 -2.46753,-0.38376 -0.79237,-0.12692 -1.58426,-0.25707 -2.3771,-0.38068 -0.62453,-0.0974 -1.24996,-0.18818 -1.87492,-0.28227 -0.34627,-0.0475 -0.69321,-0.0897 -1.03878,-0.14241 -0.41028,-0.0627 -0.40569,-0.0708 -0.75008,-0.16836 0,0 -0.66792,0.0774 -0.66792,0.0774 z" />
    <path
       style="display:inline;fill:#000000;fill-opacity:1;fill-rule:evenodd;stroke:none;stroke-width:0;stop-color:#000000"
       id="path12171"
       d="m 392.09148,143.03941 c 9.6e-4,0.43113 0.003,0.86227 0.003,1.29338 0,0 0.66598,0 0.66598,0 v 0 c 6.7e-4,-0.43111 9.6e-4,-0.86225 0.003,-1.29338 0,0 -0.67129,0 -0.67129,0 z" />
    <path
       style="display:inline;fill:#000000;fill-opacity:1;fill-rule:evenodd;stroke:none;stroke-width:0;stop-color:#000000"
       id="path12175"
       d="m 381.68548,143.81615 c -0.0127,0.58639 0.0643,1.16856 0.11332,1.7516 0.009,0.35302 0.0897,0.69793 0.15582,1.04251 0,0 0.65771,-0.0136 0.65771,-0.0136 v 0 c -0.0654,-0.34216 -0.14276,-0.68472 -0.153,-1.03505 -0.0496,-0.5807 -0.12754,-1.16133 -0.1044,-1.74553 0,0 -0.66938,0 -0.66938,0 z" />
    <path
       style="display:inline;fill:#000000;fill-opacity:1;fill-rule:evenodd;stroke:none;stroke-width:0;stop-color:#000000"
       id="path12177"
       d="m 373.5546,143.7936 c 6.8e-4,0.0565 0.005,0.11321 9.6e-4,0.16965 -0.004,0.0705 -0.0437,0.40754 -0.0496,0.45979 -0.0297,0.26008 -0.0565,0.52001 -0.0796,0.78082 -0.0251,0.33466 -0.0262,0.66949 -0.0658,1.00266 0,0 0.66404,0.008 0.66404,0.008 v 0 c 0.038,-0.334 0.0393,-0.66942 0.065,-1.00468 0.0226,-0.26015 0.0487,-0.51939 0.0795,-0.77865 0.009,-0.0764 0.0477,-0.37929 0.0533,-0.46828 0.004,-0.0564 9.5e-4,-0.11308 9.5e-4,-0.16966 0,0 -0.67034,0 -0.67034,0 z" />
    <path
       style="display:inline;fill:#000000;fill-opacity:1;fill-rule:evenodd;stroke:none;stroke-width:0;stop-color:#000000"
       id="path12179"
       d="m 367.95319,143.39391 c 3.3e-4,0.0355 0.003,0.28064 0.003,0.28732 -0.009,0.16046 -0.0335,0.31955 -0.0491,0.47944 -0.0331,0.33979 -0.0273,0.28355 -0.0567,0.62361 -0.0338,0.38367 -0.0482,0.76873 -0.0611,1.15365 0,0 0.66272,0.003 0.66272,0.003 v 0 c 0.0115,-0.38363 0.0261,-0.76732 0.0593,-1.14974 0.0247,-0.28499 0.0281,-0.33766 0.058,-0.62224 0.017,-0.16245 0.0437,-0.32396 0.0538,-0.48704 0.007,-0.0955 -0.003,-0.19168 0.003,-0.28732 0,0 -0.6713,0 -0.6713,0 z" />
    <path
       style="display:inline;fill:#000000;fill-opacity:1;fill-rule:evenodd;stroke:none;stroke-width:0;stop-color:#000000"
       id="path12181"
       d="m 362.21021,142.098 c -0.0102,0.0379 -0.0211,0.0754 -0.0288,0.11374 -0.0396,0.19735 -0.0227,0.16902 -0.0554,0.38051 -0.0414,0.26792 -0.0914,0.53428 -0.1316,0.80256 -0.0264,0.36566 -0.13216,0.7141 -0.23199,1.06297 0,0 0.66227,0.02 0.66227,0.02 v 0 c 0.10007,-0.35196 0.20499,-0.70359 0.2316,-1.0722 0.0408,-0.26895 0.0916,-0.53549 0.13506,-0.80383 0.0287,-0.17719 0.0207,-0.2042 0.0593,-0.37031 0.008,-0.0343 0.0207,-0.0673 0.0308,-0.10097 0,0 -0.6713,-0.0326 -0.6713,-0.0326 z" />
    <path
       style="display:inline;fill:#000000;fill-opacity:1;fill-rule:evenodd;stroke:none;stroke-width:0;stop-color:#000000"
       id="path12183"
       d="m 387.38915,144.16425 c 0.0203,0.0766 0.0404,0.1532 0.0607,0.22982 0.0205,0.0986 0.0357,0.19849 0.0615,0.29574 0.0914,0.3469 0.21195,0.68485 0.30698,1.03068 0.11651,0.42406 0.21958,0.85205 0.33276,1.2771 0,0 0.65931,-0.0186 0.65931,-0.0186 v 0 c -0.11282,-0.42566 -0.21503,-0.85431 -0.33048,-1.27919 -0.0934,-0.34368 -0.21227,-0.6796 -0.30101,-1.02461 -0.0454,-0.17632 -0.0595,-0.36054 -0.11879,-0.53346 0,0 -0.6708,0.0225 -0.6708,0.0225 z" />
    <g
       id="g9021"
       style="display:inline;stroke-width:0.88494"
       transform="matrix(1.0903203,0,0,1.1711596,163.00053,-45.564344)">
      <path
         id="path6109"
         style="fill:#ffbe91;fill-opacity:1;fill-rule:evenodd;stroke-width:0;stop-color:#000000"
         d="m 205.73495,97.961288 c -1.60876,7.195922 -4.00123,13.029382 -8.81989,13.029382 -4.39208,0 -6.46805,-5.83346 -8.81989,-13.029382 -2.24153,-6.858424 3.9488,-13.029382 8.81989,-13.029382 4.87109,0 10.39199,5.997438 8.81989,13.029382 z"
         sodipodi:nodetypes="sssss" />
      <circle
         style="fill:#808080;fill-rule:evenodd;stroke:#ff0000;stroke-width:0;stop-color:#000000"
         id="path6519"
         cx="194.66597"
         cy="95.712189"
         r="1.2756697" />
      <circle
         style="fill:#808080;fill-rule:evenodd;stroke:#ff0000;stroke-width:0;stop-color:#000000"
         id="circle6601"
         cx="199.89386"
         cy="95.712189"
         r="1.2756697" />
      <g
         id="g6793"
         transform="translate(-26.750777,-14.525759)"
         style="fill:#808080;stroke-width:0.88494">
        <ellipse
           style="fill:#808080;fill-rule:evenodd;stroke:#ff0000;stroke-width:0;stop-color:#000000"
           id="circle6787"
           cx="223.47511"
           cy="114.59182"
           rx="0.21097137"
           ry="0.37363502" />
        <ellipse
           style="fill:#808080;fill-rule:evenodd;stroke:#ff0000;stroke-width:0;stop-color:#000000"
           id="circle6789"
           cx="224.60223"
           cy="114.59182"
           rx="0.21097137"
           ry="0.37363502" />
      </g>
      <path
         style="fill:#808080;fill-opacity:1;fill-rule:evenodd;stroke:none;stroke-width:0;stop-color:#000000"
         id="path8699"
         d="m 198.05417,103.20996 c 0.20097,-0.0191 1.37926,-0.13081 1.38133,-0.13108 0.38451,-0.0613 0.75887,-0.15899 1.13832,-0.2385 0,0 -4.08899,-0.44951 -4.08899,-0.44951 v 0 c -0.39097,0.0641 -0.77855,0.14392 -1.17293,0.19235 -0.50192,0.0617 -0.97996,0.0684 -1.48077,0.0835 0,0 4.22304,0.5433 4.22304,0.5433 z" />
      <ellipse
         style="fill:#333333;fill-rule:evenodd;stroke:#ff0000;stroke-width:0;stop-color:#000000"
         id="circle9294"
         cx="199.91968"
         cy="96.140465"
         rx="0.35435271"
         ry="0.42522326" />
      <ellipse
         style="fill:#333333;fill-rule:evenodd;stroke:#ff0000;stroke-width:0;stop-color:#000000"
         id="ellipse9314"
         cx="194.6113"
         cy="96.129005"
         rx="0.35435271"
         ry="0.42522326" />
    </g>
    <path
       style="display:inline;fill:#000000;stroke:#000000;stroke-width:0.264583px;stroke-linecap:butt;stroke-linejoin:miter;stroke-opacity:1"
       d="m 368.19878,63.075415 c 0,0 1.39119,-1.451963 5.81773,-0.923972 4.42655,0.527978 9.99135,-2.771929 10.75017,-0.527991 0.75885,2.243937 0.88533,4.091877 1.89711,5.279844 1.01178,1.187968 4.17359,-4.091877 1.64414,-7.919762 -2.52946,-3.827869 -4.68106,-5.525637 -7.58836,-5.807805 -2.95176,-0.286482 -9.91659,0.825457 -10.87665,1.847938 -2.21478,2.358744 -3.41475,1.847932 -2.90887,4.22385 0.50589,2.375935 1.26473,3.827898 1.26473,3.827898 z"
       id="path12708"
       sodipodi:nodetypes="csssssssc" />
    <path
       style="display:inline;fill:none;stroke:#000000;stroke-width:0.264584px;stroke-linecap:butt;stroke-linejoin:miter;stroke-opacity:1"
       d="m 368.48264,70.483749 c 0.0455,0.01406 0.0915,-0.102872 0.12509,-0.317772 0.0336,-0.214901 0.0543,-0.525127 0.0563,-0.843097 0.002,-0.31797 -0.0147,-0.639769 -0.0454,-0.874546 -0.0307,-0.234778 -0.0751,-0.379643 -0.1206,-0.393698 -0.0455,-0.01406 -0.0915,0.102872 -0.1251,0.317772 -0.0336,0.214901 -0.0543,0.525127 -0.0563,0.843097 -0.002,0.31797 0.0147,0.639769 0.0455,0.874546 0.0307,0.234778 0.0751,0.379643 0.1206,0.393698 z"
       id="path2061" />
    <path
       style="display:inline;fill:none;stroke:#000000;stroke-width:0.264584px;stroke-linecap:butt;stroke-linejoin:miter;stroke-opacity:1"
       d="m 387.0035,70.483749 c 0.0455,0.01406 0.0915,-0.102872 0.12509,-0.317772 0.0336,-0.214901 0.0543,-0.525127 0.0563,-0.843097 0.002,-0.31797 -0.0147,-0.639769 -0.0454,-0.874546 -0.0307,-0.234778 -0.0751,-0.379643 -0.1206,-0.393698 -0.0455,-0.01406 -0.0915,0.102872 -0.1251,0.317772 -0.0336,0.214901 -0.0543,0.525127 -0.0563,0.843097 -0.002,0.31797 0.0147,0.639769 0.0455,0.874546 0.0307,0.234778 0.0751,0.379643 0.1206,0.393698 z"
       id="path2375" />
    <g
       id="g3889"
       transform="translate(-101.54262,16.500581)">
      <g
         id="g3868"
         style="display:inline;stroke-width:0.88494"
         transform="matrix(1.0903203,0,0,1.1711596,78.810628,-27.444279)">
        <path
           id="path3850"
           style="fill:#ffbe91;fill-opacity:1;fill-rule:evenodd;stroke-width:0;stop-color:#000000"
           d="m 205.73495,97.961288 c -1.60876,7.195922 -4.00123,13.029382 -8.81989,13.029382 -4.39208,0 -6.46805,-5.83346 -8.81989,-13.029382 -2.24153,-6.858424 3.9488,-13.029382 8.81989,-13.029382 4.87109,0 10.39199,5.997438 8.81989,13.029382 z"
           sodipodi:nodetypes="sssss" />
        <circle
           style="fill:#808080;fill-rule:evenodd;stroke:#ff0000;stroke-width:0;stop-color:#000000"
           id="circle3852"
           cx="194.66597"
           cy="95.712189"
           r="1.2756697" />
        <circle
           style="fill:#808080;fill-rule:evenodd;stroke:#ff0000;stroke-width:0;stop-color:#000000"
           id="circle3854"
           cx="199.89386"
           cy="95.712189"
           r="1.2756697" />
        <g
           id="g3860"
           transform="translate(-26.750777,-14.525759)"
           style="fill:#808080;stroke-width:0.88494">
          <ellipse
             style="fill:#808080;fill-rule:evenodd;stroke:#ff0000;stroke-width:0;stop-color:#000000"
             id="ellipse3856"
             cx="223.47511"
             cy="114.59182"
             rx="0.21097137"
             ry="0.37363502" />
          <ellipse
             style="fill:#808080;fill-rule:evenodd;stroke:#ff0000;stroke-width:0;stop-color:#000000"
             id="ellipse3858"
             cx="224.60223"
             cy="114.59182"
             rx="0.21097137"
             ry="0.37363502" />
        </g>
        <path
           style="fill:#808080;fill-opacity:1;fill-rule:evenodd;stroke:none;stroke-width:0;stop-color:#000000"
           id="path3862"
           d="m 198.05417,103.20996 c 0.20097,-0.0191 1.37926,-0.13081 1.38133,-0.13108 0.38451,-0.0613 0.75887,-0.15899 1.13832,-0.2385 0,0 -4.08899,-0.44951 -4.08899,-0.44951 v 0 c -0.39097,0.0641 -0.77855,0.14392 -1.17293,0.19235 -0.50192,0.0617 -0.97996,0.0684 -1.48077,0.0835 0,0 4.22304,0.5433 4.22304,0.5433 z" />
        <ellipse
           style="fill:#333333;fill-rule:evenodd;stroke:#ff0000;stroke-width:0;stop-color:#000000"
           id="ellipse3864"
           cx="199.91968"
           cy="96.140465"
           rx="0.35435271"
           ry="0.42522326" />
        <ellipse
           style="fill:#333333;fill-rule:evenodd;stroke:#ff0000;stroke-width:0;stop-color:#000000"
           id="ellipse3866"
           cx="194.6113"
           cy="96.129005"
           rx="0.35435271"
           ry="0.42522326" />
      </g>
      <path
         style="display:inline;fill:#000000;stroke:#000000;stroke-width:0.264583px;stroke-linecap:butt;stroke-linejoin:miter;stroke-opacity:1"
         d="m 284.00888,81.19548 c 0,0 1.39119,-1.451963 5.81773,-0.923972 4.42655,0.527978 9.99135,-2.771929 10.75017,-0.527991 0.75885,2.243937 0.88533,4.091877 1.89711,5.279844 1.01178,1.187968 4.17359,-4.091877 1.64414,-7.919762 -2.52946,-3.827869 -4.68106,-5.525637 -7.58836,-5.807805 -2.95176,-0.286482 -9.91659,0.825457 -10.87665,1.847938 -2.21478,2.358744 -3.41475,1.847932 -2.90887,4.22385 0.50589,2.375935 1.26473,3.827898 1.26473,3.827898 z"
         id="path3870"
         sodipodi:nodetypes="csssssssc" />
      <path
         style="display:inline;fill:none;stroke:#000000;stroke-width:0.264584px;stroke-linecap:butt;stroke-linejoin:miter;stroke-opacity:1"
         d="m 284.29274,88.603814 c 0.0455,0.01406 0.0915,-0.102872 0.12509,-0.317772 0.0336,-0.214901 0.0543,-0.525127 0.0563,-0.843097 0.002,-0.31797 -0.0147,-0.639769 -0.0454,-0.874546 -0.0307,-0.234778 -0.0751,-0.379643 -0.1206,-0.393698 -0.0455,-0.01406 -0.0915,0.102872 -0.1251,0.317772 -0.0336,0.214901 -0.0543,0.525127 -0.0563,0.843097 -0.002,0.31797 0.0147,0.639769 0.0455,0.874546 0.0307,0.234778 0.0751,0.379643 0.1206,0.393698 z"
         id="path3872" />
      <path
         style="display:inline;fill:none;stroke:#000000;stroke-width:0.264584px;stroke-linecap:butt;stroke-linejoin:miter;stroke-opacity:1"
         d="m 302.8136,88.603814 c 0.0455,0.01406 0.0915,-0.102872 0.12509,-0.317772 0.0336,-0.214901 0.0543,-0.525127 0.0563,-0.843097 0.002,-0.31797 -0.0147,-0.639769 -0.0454,-0.874546 -0.0307,-0.234778 -0.0751,-0.379643 -0.1206,-0.393698 -0.0455,-0.01406 -0.0915,0.102872 -0.1251,0.317772 -0.0336,0.214901 -0.0543,0.525127 -0.0563,0.843097 -0.002,0.31797 0.0147,0.639769 0.0455,0.874546 0.0307,0.234778 0.0751,0.379643 0.1206,0.393698 z"
         id="path3874" />
    </g>
    <text
       xml:space="preserve"
       style="font-size:8.46667px;line-height:1.25;font-family:sans-serif;-inkscape-font-specification:'sans-serif, Normal';text-align:center;text-anchor:middle;stroke-width:0.264583"
       x="113.24167"
       y="125.4125"
       id="text9994"><tspan
         sodipodi:role="line"
         id="tspan9992"
         style="stroke-width:0.264583"
         x="113.24167"
         y="125.4125"><tspan
           style="font-size:25.4px"
           id="tspan14474">F</tspan><tspan
           style="font-size:14.1111px"
           id="tspan18586">im de Jogo</tspan></tspan></text>
    <text
       xml:space="preserve"
       style="font-size:8.46667px;line-height:1.25;font-family:sans-serif;-inkscape-font-specification:'sans-serif, Normal';text-align:center;text-anchor:middle;stroke-width:0.264583"
       x="118.00416"
       y="168.80417"
       id="text10856"><tspan
         sodipodi:role="line"
         id="tspan10854"
         style="stroke-width:0.264583"
         x="118.00416"
         y="168.80417"><tspan
           style="font-size:25.4px"
           id="tspan16782">V</tspan><tspan
           style="font-size:14.1111px"
           id="tspan19728">ocê perdeu!</tspan></tspan></text>
  </g>
</svg>
