<?xml version="1.0" encoding="UTF-8" standalone="no"?>
<svg
   width="850"
   height="1050"
   viewBox="0 0 224.89584 277.8125"
   version="1.1"
   id="svg8"
   inkscape:version="1.1.2 (b8e25be833, 2022-02-05)"
   sodipodi:docname="forca.svg"
   xmlns:inkscape="http://www.inkscape.org/namespaces/inkscape"
   xmlns:sodipodi="http://sodipodi.sourceforge.net/DTD/sodipodi-0.dtd"
   xmlns="http://www.w3.org/2000/svg"
   xmlns:svg="http://www.w3.org/2000/svg"
   xmlns:rdf="http://www.w3.org/1999/02/22-rdf-syntax-ns#"
   xmlns:cc="http://creativecommons.org/ns#"
   xmlns:dc="http://purl.org/dc/elements/1.1/">
  <defs
     id="defs2">
    <inkscape:path-effect
       effect="spiro"
       id="path-effect4198"
       is_visible="true"
       lpeversion="1" />
    <inkscape:path-effect
       effect="spiro"
       id="path-effect4194"
       is_visible="true"
       lpeversion="1" />
  </defs>
  <sodipodi:namedview
     id="base"
     pagecolor="#ffffff"
     bordercolor="#666666"
     borderopacity="1.0"
     inkscape:pageopacity="0.0"
     inkscape:pageshadow="2"
     inkscape:zoom="0.5"
     inkscape:cx="978"
     inkscape:cy="733"
     inkscape:document-units="cm"
     inkscape:current-layer="g9021"
     inkscape:document-rotation="0"
     showgrid="false"
     units="px"
     inkscape:pagecheckerboard="true"
     inkscape:showpageshadow="false"
     showguides="false"
     inkscape:window-width="1920"
     inkscape:window-height="1017"
     inkscape:window-x="-8"
     inkscape:window-y="-8"
     inkscape:window-maximized="1" />
  <metadata
     id="metadata5">
    <rdf:RDF>
      <cc:Work
         rdf:about="">
        <dc:format>image/svg+xml</dc:format>
        <dc:type
           rdf:resource="http://purl.org/dc/dcmitype/StillImage" />
      </cc:Work>
    </rdf:RDF>
  </metadata>
  <g
     inkscape:groupmode="layer"
     id="layer8"
     inkscape:label="banco" />
  <g
     inkscape:groupmode="layer"
     id="layer6"
     inkscape:label="sapatos">
    <g
       id="g12396"
       transform="matrix(1,0,0,1.1499546,-26.458337,-43.260797)"
       style="stroke-width:0.932523">
      <ellipse
         style="fill:#4d4d4d;fill-opacity:1;fill-rule:evenodd;stroke:none;stroke-width:0;stop-color:#000000"
         id="ellipse12372"
         cx="213.98267"
         cy="218.8495"
         rx="5.2117558"
         ry="7.8883786" />
      <ellipse
         style="fill:#4d4d4d;fill-opacity:1;fill-rule:evenodd;stroke:none;stroke-width:0;stop-color:#000000"
         id="ellipse12374"
         cx="234.02788"
         cy="218.65594"
         rx="5.2117558"
         ry="7.8883786" />
    </g>
    <ellipse
       style="fill:#000000;fill-opacity:1;fill-rule:evenodd;stroke:none;stroke-width:0;stop-color:#000000"
       id="path12288"
       cx="187.52438"
       cy="205.14629"
       rx="5.2117558"
       ry="9.0712776" />
    <ellipse
       style="fill:#000000;fill-opacity:1;fill-rule:evenodd;stroke:none;stroke-width:0;stop-color:#000000"
       id="ellipse12370"
       cx="207.5696"
       cy="204.92371"
       rx="5.2117558"
       ry="9.0712776" />
  </g>
  <g
     inkscape:label="forca"
     inkscape:groupmode="layer"
     id="layer1"
     style="display:inline">
    <path
       id="rect846"
       style="fill:#ff0000;fill-rule:evenodd;stroke:#ff0000;stroke-width:0;stop-color:#000000"
       d="m 23.803316,15.572689 c -3.641834,9.07143 -3.64182,17.386758 0,24.946282 H 210.52985 c 3.37444,-7.994439 4.53506,-16.199348 0,-24.946282 z m 172.573324,8.67854 a 4.5650583,5.2117556 0 0 1 4.56489,5.212085 4.5650583,5.2117556 0 0 1 -4.56489,5.211569 4.5650583,5.2117556 0 0 1 -4.56535,-5.211569 4.5650583,5.2117556 0 0 1 4.56535,-5.212085 z" />
    <ellipse
       style="fill:#ff0000;fill-rule:evenodd;stroke:#ff0000;stroke-width:0;stop-color:#000000"
       id="path972"
       cx="54.33408"
       cy="267.89056"
       rx="54.145088"
       ry="9.3549109" />
    <path
       id="rect844"
       style="fill:#550000;fill-rule:evenodd;stroke:#ff0000;stroke-width:0;stop-color:#000000"
       d="m 42.333326,5.3672642 c 7.370536,-6.22450266 14.741071,-5.86857661 22.111607,0 V 267.87166 c -14.957951,4.33567 -17.143055,1.37256 -22.111607,0 z"
       sodipodi:nodetypes="ccccc" />
    <circle
       style="fill:#666666;fill-rule:evenodd;stroke:#ff0000;stroke-width:0;stop-color:#000000"
       id="path1604"
       cx="49.569092"
       cy="21.013557"
       r="4.4822459" />
    <circle
       style="fill:#666666;fill-rule:evenodd;stroke:#ff0000;stroke-width:0;stop-color:#000000"
       id="path1604-8"
       cx="58.260738"
       cy="33.569859"
       r="4.4822459" />
    <rect
       style="fill:#000000;fill-rule:evenodd;stroke:#ff0000;stroke-width:0;stop-color:#000000"
       id="rect1876"
       width="1.1339285"
       height="6.2366071"
       x="49.042412"
       y="17.878269" />
    <rect
       style="fill:#000000;fill-rule:evenodd;stroke:#ff0000;stroke-width:0;stop-color:#000000"
       id="rect1958"
       width="1.1339285"
       height="6.2366071"
       x="32.161728"
       y="-61.815247"
       transform="rotate(91.005068)" />
    <rect
       style="fill:#000000;fill-rule:evenodd;stroke:#ff0000;stroke-width:0;stop-color:#000000"
       id="rect2173"
       width="1.1339285"
       height="6.2366071"
       x="58.393375"
       y="29.133501"
       transform="rotate(1.4695485)" />
    <rect
       style="fill:#000000;fill-rule:evenodd;stroke:#ff0000;stroke-width:0;stop-color:#000000"
       id="rect2175"
       width="1.1339285"
       height="6.2366071"
       x="19.642059"
       y="-53.053661"
       transform="rotate(90.906567)" />
    <circle
       id="path2819"
       style="fill:#666666;stroke:#ff0000;stroke-width:0.264583"
       cx="234.53423"
       cy="52.538689"
       r="0" />
    <circle
       id="path2821"
       style="fill:#666666;stroke:#ff0000;stroke-width:0.264583"
       cx="234.53423"
       cy="52.538689"
       r="0" />
    <path
       style="fill:#d45500;fill-opacity:1;fill-rule:evenodd;stroke:#000000;stroke-width:0.312208;stroke-miterlimit:4;stroke-dasharray:1.87325, 1.87325;stroke-dashoffset:0;stroke-opacity:1;stop-color:#000000"
       id="path16054"
       d="m 198.58637,33.395035 c -0.6496,-0.687125 -1.13729,-1.515599 -1.83712,-2.157222 -0.16826,-0.154262 -0.33927,-0.31183 -0.53885,-0.422616 -0.19355,-0.107437 -0.41688,-0.149071 -0.62532,-0.223607 -0.7423,0.03785 -1.49443,-0.01267 -2.22689,0.113556 -0.25793,0.04445 -0.46508,0.242475 -0.6827,0.387879 -0.30481,0.203656 -1.05964,0.825056 -1.29077,1.093468 -0.48221,0.560014 -0.78069,1.165201 -1.13986,1.803342 -0.99165,2.127461 -1.3299,4.463211 -1.5648,6.776312 -0.1043,1.173469 -0.19788,2.353167 0.003,3.522448 0.10517,0.613614 0.23309,0.966661 0.41417,1.563926 0.34648,0.990206 0.81992,1.933416 1.39442,2.810695 0.29697,0.453504 0.6128,0.894427 0.91251,1.346128 0.18491,0.260993 0.37995,0.515086 0.55471,0.782974 0.49764,0.762828 0.70682,1.196327 1.15484,1.996562 0.58629,1.047199 1.16614,2.09437 1.72766,3.155203 0.67905,1.164257 1.15904,2.417869 1.66289,3.662027 0.68909,1.701596 0.0518,0.06075 0.68886,1.724737 0.63195,1.52051 1.02889,3.120202 1.34132,4.73262 0.28391,1.648738 0.29813,3.326966 0.32267,4.995034 0.0172,1.600923 0.003,3.201909 -0.002,4.802847 -0.003,1.195594 -0.005,2.391193 -0.008,3.586789 -0.0246,0.685348 0.0315,1.374659 -10e-4,2.059668 -0.0144,0.298725 -0.074,0.711536 -0.11226,1.007147 -0.13062,0.821721 -0.19342,1.650701 -0.23965,2.48068 0,0 1.5642,0.0086 1.5642,0.0086 v 0 c 0.0452,-0.826262 0.11107,-1.650998 0.23869,-2.469264 0.038,-0.296154 0.0995,-0.7287 0.11375,-1.027187 0.0326,-0.68494 -0.0278,-1.374301 -5.3e-4,-2.05959 -0.001,-1.195504 -0.001,-2.391008 0.002,-3.586512 0.002,-1.601766 -0.001,-3.203564 -0.0116,-4.805294 -0.0206,-1.677072 -0.0311,-3.365002 -0.31531,-5.022797 -0.31759,-1.620753 -0.70828,-3.231721 -1.34867,-4.759253 -0.72087,-1.881127 0.083,0.191029 -0.69201,-1.725943 -0.21021,-0.519915 -0.47493,-1.248027 -0.70728,-1.76321 -0.26397,-0.585322 -0.67426,-1.353926 -0.96618,-1.9157 -0.56243,-1.061151 -1.14345,-2.108589 -1.72795,-3.157543 -0.40124,-0.720087 -0.70036,-1.321895 -1.1449,-2.014468 -0.17148,-0.267158 -0.36578,-0.518954 -0.54867,-0.778431 -0.15302,-0.23296 -0.30604,-0.465918 -0.45906,-0.698878 -0.15049,-0.214368 -0.30682,-0.424755 -0.45147,-0.643107 -0.57218,-0.863717 -1.04397,-1.794904 -1.39379,-2.770256 -0.16929,-0.555525 -0.31332,-0.965624 -0.414,-1.537084 -0.20371,-1.156235 -0.10789,-2.326614 -0.0148,-3.488171 0.22956,-2.294404 0.55969,-4.609619 1.56386,-6.712392 0.38782,-0.676714 0.62172,-1.168382 1.14586,-1.753981 0.19297,-0.215599 0.42231,-0.396306 0.64643,-0.579316 0.20699,-0.169021 0.41774,-0.335632 0.6454,-0.475573 0.21589,-0.132712 0.76906,-0.101968 0.68033,-0.339352 -0.1012,-0.270764 -0.57127,-0.08869 -0.85691,-0.13304 0.20689,0.05676 0.42799,0.07594 0.62066,0.170278 0.20111,0.09847 0.37269,0.250565 0.54086,0.398425 0.70948,0.623827 1.18179,1.45723 1.81768,2.147406 0,0 1.56632,-0.108995 1.56632,-0.108995 z" />
    <path
       style="fill:#aa4400;fill-opacity:1;fill-rule:evenodd;stroke:#000000;stroke-width:0.312208;stroke-miterlimit:4;stroke-dasharray:1.87325, 1.87325;stroke-dashoffset:0;stroke-opacity:1;stop-color:#000000"
       id="path16056"
       d="m 188.96377,41.045965 c 0.0387,0.08426 0.0733,0.17054 0.11617,0.252778 0.13541,0.259871 0.28351,0.512929 0.42475,0.769675 0.15397,0.279887 0.43838,0.792967 0.61548,1.053494 0.12505,0.183968 0.26735,0.355595 0.40102,0.53339 0.32409,0.346871 0.50099,0.572973 0.88678,0.847513 0.15763,0.112173 0.33091,0.200671 0.49948,0.295611 0.57478,0.323731 1.11473,0.571093 1.72915,0.808469 0.54866,0.162936 1.10612,0.370274 1.68784,0.37052 0.67134,2.64e-4 1.77043,0.145788 2.51563,-0.209455 0.15936,-0.07597 0.29861,-0.188418 0.44791,-0.282625 0.92805,-0.753542 1.29525,-1.867488 1.55041,-2.992067 0.081,-0.540785 0.17574,-1.086038 0.11644,-1.63507 -0.0185,-0.171545 -0.0641,-0.339077 -0.0962,-0.508614 0,0 -1.56341,0.03001 -1.56341,0.03001 v 0 c 0.0322,0.161208 0.078,0.320296 0.0967,0.483624 0.0614,0.535455 -0.0342,1.068027 -0.11508,1.595077 -0.24918,1.090271 -0.60949,2.169012 -1.54354,2.865221 -0.1483,0.08165 -0.28812,0.181073 -0.44489,0.244959 -0.54047,0.220236 -1.20124,0.114557 0.58115,0.177165 0.17699,0.0062 -0.35501,-0.0072 -0.53032,-0.0323 -0.3544,-0.05077 -0.8171,-0.197027 -1.15682,-0.2946 -0.19976,-0.073 -0.40301,-0.137057 -0.59926,-0.218993 -0.39557,-0.165156 -0.74709,-0.363252 -1.1239,-0.565759 -0.16598,-0.0892 -0.34039,-0.16442 -0.49736,-0.268655 -0.38523,-0.255802 -0.56535,-0.478978 -0.88766,-0.81117 -0.13279,-0.172501 -0.27479,-0.338283 -0.39837,-0.517501 -0.32647,-0.47347 -0.57225,-0.995863 -0.84525,-1.499783 -0.0562,-0.103743 -0.12196,-0.202152 -0.1772,-0.306409 -0.0405,-0.0765 -0.0732,-0.156903 -0.10985,-0.235355 0,0 -1.5798,0.05085 -1.5798,0.05085 z" />
  </g>
  <g
     inkscape:groupmode="layer"
     id="layer4"
     inkscape:label="braços"
     style="display:inline">
    <ellipse
       style="fill:#ffbe91;fill-opacity:1;fill-rule:evenodd;stroke:none;stroke-width:0;stop-color:#000000"
       id="ellipse10633"
       cx="-22.842989"
       cy="225.9987"
       rx="3.3347292"
       ry="11.470238"
       transform="rotate(-60.378805)" />
    <ellipse
       style="fill:#ffbe91;fill-opacity:1;fill-rule:evenodd;stroke:none;stroke-width:0;stop-color:#000000"
       id="ellipse10890"
       cx="-219.72902"
       cy="-119.7115"
       rx="3.3347292"
       ry="11.470238"
       transform="matrix(-0.49426348,-0.86931215,-0.86931215,0.49426348,0,0)" />
  </g>
  <g
     inkscape:groupmode="layer"
     id="layer3"
     inkscape:label="tronco"
     style="display:inline">
    <g
       id="g10631"
       transform="matrix(0.35520981,0,0,0.35517836,119.60848,55.337718)"
       style="stroke-width:2.81536">
      <path
         style="fill:#008000;stroke:#000000;stroke-width:0.744897px;stroke-linecap:butt;stroke-linejoin:miter;stroke-opacity:1"
         d="m 207.50892,141.36309 c 0,0 -21.54464,11.90625 -26.64732,13.04018 -5.10268,1.13393 -11.90625,6.80357 -12.47321,9.07143 -0.56697,2.26786 -14.17411,32.31696 -14.17411,32.31696 0,0 15.875,9.07143 20.97768,9.07143 5.10268,0 2.26786,-10.77232 5.10268,-7.9375 2.83482,2.83482 6.2366,5.66964 4.53571,28.91517 -1.70089,23.24555 -3.96875,42.71131 -3.96875,42.71131 0,0 48.75893,15.875 85.04463,-0.56694 -1.70087,-15.30806 -10.7723,-62.93305 -1.13392,-70.87055 6.80357,8.50446 6.80357,8.50446 6.80357,8.50446 0,0 17.5759,-6.2366 20.41073,-9.63839 -11.90625,-28.34821 -17.5759,-40.06547 -22.67858,-42.33333 -5.10267,-2.26786 -28.73203,-9.25097 -31.13745,-12.4582 -4.20949,1.60361 -14.01661,4.35699 -30.66166,0.17397 z"
         id="path9397" />
      <path
         id="path9397-9"
         style="fill:#000000;stroke:none;stroke-width:0.744894px;stroke-linecap:butt;stroke-linejoin:miter;stroke-opacity:1"
         d="m 238.07467,141.09532 c -4.82763,1.56805 -14.68649,3.66325 -30.56574,0.26777 a 16.335674,5.7378453 0 0 0 -0.91077,1.88535 16.335674,5.7378453 0 0 0 16.33551,5.73762 16.335674,5.7378453 0 0 0 16.33608,-5.73762 16.335674,5.7378453 0 0 0 -1.19508,-2.15312 z" />
      <path
         style="fill:none;stroke:#000000;stroke-width:0.744897px;stroke-linecap:butt;stroke-linejoin:miter;stroke-opacity:1"
         d="m 182.01055,170.25069 c 0,0 6.41446,20.84702 -1.60362,25.65787"
         id="path10425" />
      <path
         style="fill:none;stroke:#000000;stroke-width:0.744897px;stroke-linecap:butt;stroke-linejoin:miter;stroke-opacity:1"
         d="m 261.97425,171.45671 c 0,0 -6.41446,20.84702 1.60362,25.65787"
         id="path10507" />
      <path
         style="fill:#000000;fill-opacity:1;fill-rule:evenodd;stroke:none;stroke-width:0;stop-color:#000000"
         id="path10544"
         d="m 200.48282,145.30773 c 0.0878,0.095 0.17096,0.19451 0.2633,0.28511 0.18571,0.18218 0.37827,0.35728 0.57036,0.53273 1.14705,1.04774 2.35785,2.01961 3.56636,2.99478 1.31381,1.06349 2.70027,2.03281 4.18276,2.84674 0.90053,0.49443 1.11492,0.57079 2.06673,1.00638 1.40209,0.5609 2.79419,1.16623 4.24486,1.5951 0.78317,0.23153 1.1585,0.29591 1.95724,0.46704 1.15263,0.20746 2.31931,0.34073 3.49144,0.35637 1.27175,0.017 2.54387,0.0234 3.81557,0.003 0.8674,-0.0136 2.00465,-0.14013 2.86715,-0.22293 3.17755,-0.42426 6.25112,-1.36373 9.29329,-2.34312 1.34157,-0.49158 2.67355,-1.0106 3.96858,-1.6156 0.47249,-0.22074 1.29314,-0.62844 1.75879,-0.90372 0.23434,-0.13853 0.4565,-0.29671 0.68475,-0.44507 0.78134,-0.52637 1.51655,-1.1353 2.16111,-1.82456 0.0908,-0.0971 0.17451,-0.20046 0.26177,-0.3007 0.27186,-0.32647 0.45577,-0.71051 0.65682,-1.08122 0.13855,-0.25546 0.14254,-0.25319 0.29638,-0.49807 0,0 -2.5959,-0.14328 -2.5959,-0.14328 v 0 c -0.30928,0.51341 -0.55524,1.06814 -0.9349,1.53579 -0.69792,0.77873 -1.47487,1.48753 -2.35219,2.06118 -0.22241,0.14267 -0.43977,0.29356 -0.66724,0.42802 -0.25611,0.1514 -0.51906,0.29108 -0.78265,0.42907 -1.55153,0.8122 -3.17742,1.46939 -4.82544,2.05767 -3.04866,0.9698 -6.12975,1.90668 -9.31759,2.2871 -0.47495,0.0427 -0.94914,0.095 -1.42485,0.12823 -0.48011,0.0336 -0.96762,-0.009 -1.44202,0.0722 -0.32555,0.0556 1.31654,0.0592 0.99076,0.005 -0.42461,-0.0707 -0.86082,-0.0245 -1.29022,-0.0548 -0.85686,-0.0603 -1.30832,-0.14382 -2.14905,-0.26926 -0.73518,-0.14999 -1.23671,-0.23862 -1.95993,-0.44083 -1.45938,-0.40803 -2.85509,-1.01114 -4.2629,-1.5634 -0.82722,-0.37604 -1.27184,-0.56266 -2.06864,-0.98437 -1.49058,-0.7889 -2.87717,-1.74519 -4.18683,-2.80622 -0.8059,-0.6505 -1.14365,-0.91474 -1.92995,-1.58239 -0.71467,-0.60683 -1.42311,-1.22697 -2.06313,-1.9138 -0.0791,-0.0849 -0.14868,-0.17827 -0.22302,-0.2674 0,0 -2.62157,0.16893 -2.62157,0.16893 z" />
    </g>
  </g>
  <g
     inkscape:groupmode="layer"
     id="layer5"
     inkscape:label="calças"
     style="display:inline">
    <path
       style="fill:#b3b3b3;stroke:#000000;stroke-width:0.264583px;stroke-linecap:butt;stroke-linejoin:miter;stroke-opacity:1"
       d="m 183.85229,150.75177 c 9.74281,2.1773 19.71272,2.7877 30.20869,-0.23155 l -1.26043,52.58167 c -2.54603,3.16959 -6.1534,2.67768 -10.20536,0.65198 l -2.26786,-32.59915 -1.13392,-5.37887 -6.23661,36.67405 c -3.77976,5.08041 -7.55953,4.23721 -11.33929,0.65199 z"
       id="path11072"
       sodipodi:nodetypes="ccccccccc" />
    <path
       style="fill:#000000;fill-opacity:1;fill-rule:evenodd;stroke:none;stroke-width:0;stop-color:#000000"
       id="path12042"
       d="m 184.4485,161.85789 c 0.51659,-0.11021 1.01032,-0.32824 1.4769,-0.57232 0.15171,-0.0794 0.30936,-0.15092 0.44766,-0.25186 0.15317,-0.11179 0.28082,-0.25489 0.42123,-0.38233 0.52977,-0.56742 0.92712,-1.24884 1.17837,-1.98325 0.12623,-0.36896 0.15517,-0.56944 0.23203,-0.9457 0.0314,-0.14015 0.0628,-0.2803 0.0942,-0.42045 0,0 -1.29837,-0.0283 -1.29837,-0.0283 v 0 c -0.0308,0.14087 -0.0616,0.28174 -0.0924,0.42262 -0.077,0.37769 -0.10018,0.55218 -0.22823,0.92247 -0.24821,0.71779 -0.63929,1.3803 -1.17242,1.92267 -0.14043,0.11823 -0.27014,0.2505 -0.42128,0.35469 -0.1397,0.0963 -0.29538,0.16735 -0.44688,0.24377 -0.46641,0.23529 -0.96721,0.45877 -1.49154,0.51195 0,0 1.30079,0.20602 1.30079,0.20602 z" />
    <path
       style="fill:#000000;fill-opacity:1;fill-rule:evenodd;stroke:none;stroke-width:0;stop-color:#000000"
       id="path12044"
       d="m 213.48385,163.05279 c -1.18817,-0.9867 -2.08003,-2.26954 -2.98268,-3.50866 -0.459,-0.68474 -0.89944,-1.38954 -1.23006,-2.14718 -0.20156,-0.4619 -0.23089,-0.61573 -0.36618,-1.083 0,0 -1.2923,0.0366 -1.2923,0.0366 v 0 c 0.13677,0.46661 0.17385,0.64486 0.37621,1.10476 0.33665,0.76508 0.78797,1.47457 1.24957,2.16834 0.61611,0.84688 0.60335,0.84274 1.24916,1.67608 0.51165,0.66024 1.0336,1.32355 1.68302,1.85637 0,0 1.31326,-0.10336 1.31326,-0.10336 z" />
    <path
       style="fill:#000000;fill-opacity:1;fill-rule:evenodd;stroke:none;stroke-width:0;stop-color:#000000"
       id="path12046"
       d="m 212.52666,165.86136 c -0.65651,-0.35974 -1.22029,-0.8699 -1.78425,-1.35631 0,0 -1.27528,0.10917 -1.27528,0.10917 v 0 c 0.56164,0.49451 1.12547,0.99716 1.7563,1.403 0,0 1.30323,-0.15586 1.30323,-0.15586 z" />
    <path
       style="fill:#000000;fill-opacity:1;fill-rule:evenodd;stroke:none;stroke-width:0;stop-color:#000000"
       id="path12050"
       d="m 184.0714,171.57503 c -0.001,-0.0694 -0.007,-0.13896 -0.003,-0.20825 0.004,-0.0597 0.0744,-0.57914 0.077,-0.59859 0.0477,-0.36428 0.0888,-0.72844 0.12417,-1.09411 0.009,-0.12734 0.0174,-0.25468 0.0261,-0.38202 0,0 -1.30145,-0.009 -1.30145,-0.009 v 0 c -0.009,0.1262 -0.0182,0.25241 -0.0272,0.37861 -0.035,0.364 -0.0751,0.72638 -0.12526,1.08864 -0.0108,0.0782 -0.0764,0.51506 -0.0845,0.61658 -0.006,0.0692 -0.002,0.13883 -0.003,0.20825 0,0 1.317,0 1.317,0 z" />
    <path
       style="fill:#000000;fill-opacity:1;fill-rule:evenodd;stroke:none;stroke-width:0;stop-color:#000000"
       id="path12052"
       d="m 192.86165,187.71719 c -0.15168,0.34433 -0.18311,0.39408 -0.31057,0.80301 -0.0735,0.2358 -0.13051,0.47805 -0.20265,0.7144 -0.062,0.20315 -0.49909,1.53399 -0.55892,1.69833 -0.12844,0.35282 -0.27215,0.69803 -0.40823,1.04704 -0.59985,1.6069 -1.24049,3.19005 -1.91254,4.75845 0,0 1.25824,0.0661 1.25824,0.0661 v 0 c 0.66936,-1.57255 1.31044,-3.15826 1.92012,-4.76269 0.13944,-0.35161 0.28685,-0.69919 0.4183,-1.05483 0.0596,-0.16118 0.50607,-1.50636 0.56888,-1.70428 0.074,-0.23317 0.13574,-0.47143 0.21308,-0.70315 0.13054,-0.39113 0.16893,-0.45187 0.32405,-0.7809 0,0 -1.30976,-0.0815 -1.30976,-0.0815 z" />
    <path
       style="fill:#000000;fill-opacity:1;fill-rule:evenodd;stroke:none;stroke-width:0;stop-color:#000000"
       id="path12054"
       d="m 205.75161,176.08073 c 0.0284,0.0969 0.051,0.19567 0.0852,0.29064 0.0802,0.22222 0.30513,0.72096 0.38715,0.91508 0.24219,0.57316 0.4749,1.14925 0.72313,1.71996 0.36034,0.86342 0.18442,0.41496 0.52417,1.34679 0,0 1.27929,-0.0442 1.27929,-0.0442 v 0 c -0.3336,-0.93954 -0.15879,-0.48847 -0.52005,-1.35491 -0.24461,-0.5711 -0.47768,-1.14608 -0.71562,-1.71991 -0.0351,-0.0847 -0.32489,-0.76045 -0.37256,-0.89837 -0.0324,-0.0936 -0.0508,-0.19152 -0.0762,-0.28728 0,0 -1.3145,0.0322 -1.3145,0.0322 z" />
    <path
       style="fill:#000000;fill-opacity:1;fill-rule:evenodd;stroke:none;stroke-width:0;stop-color:#000000"
       id="path12169"
       d="m 183.85029,153.36754 c 0.27312,0.0841 0.26682,0.0914 0.59435,0.14064 0.76655,0.11532 1.5367,0.20564 2.30356,0.31886 1.26982,0.18747 2.53828,0.38418 3.80786,0.57328 2.73292,0.44752 5.49095,0.68913 8.24175,0.991 1.58929,0.19046 3.18746,0.28394 4.78675,0.32954 1.47942,0.0283 2.95928,0.0216 4.4389,0.02 0.93885,-0.0983 1.82414,-0.43565 2.66956,-0.84068 0.22755,-0.10902 0.45897,-0.21199 0.67574,-0.34114 0.20894,-0.12448 0.39876,-0.27856 0.59813,-0.41783 0.50358,-0.381 1.01747,-0.75797 1.47716,-1.19298 0.2835,-0.26829 0.58455,-0.61407 0.84531,-0.9035 0,0 -0.51778,-0.0381 -0.51778,-0.0381 v 0 c -0.27519,0.30417 -0.54579,0.61569 -0.84511,0.89714 -0.4598,0.43235 -0.97141,0.80886 -1.47466,1.18759 -0.19897,0.13689 -0.38881,0.28811 -0.59692,0.41067 -0.21715,0.12789 -0.44816,0.23084 -0.67582,0.3389 -0.84483,0.40098 -1.73013,0.73246 -2.66814,0.8188 -1.13794,0.001 -2.27601,0.004 -3.41379,-0.0186 -1.60133,-0.0437 -3.20171,-0.13465 -4.79313,-0.32435 -2.75503,-0.3015 -5.51745,-0.5411 -8.25482,-0.98711 -0.64526,-0.0962 -1.29053,-0.19231 -1.9358,-0.28847 -0.62161,-0.0954 -1.24286,-0.19323 -1.86485,-0.28615 -0.48994,-0.0732 -0.9806,-0.14145 -1.47089,-0.21217 -0.27165,-0.0357 -0.54383,-0.0674 -0.81493,-0.10705 -0.32187,-0.0471 -0.31826,-0.0532 -0.58844,-0.12655 0,0 -0.52399,0.0582 -0.52399,0.0582 z" />
    <path
       style="fill:#000000;fill-opacity:1;fill-rule:evenodd;stroke:none;stroke-width:0;stop-color:#000000"
       id="path12171"
       d="m 210.21273,152.23161 c 0.001,0.32407 0.002,0.64815 0.002,0.97221 0,0 0.52247,0 0.52247,0 v 0 c 5.3e-4,-0.32406 8e-4,-0.64814 0.002,-0.97221 0,0 -0.52664,0 -0.52664,0 z" />
    <path
       style="fill:#000000;fill-opacity:1;fill-rule:evenodd;stroke:none;stroke-width:0;stop-color:#000000"
       id="path12175"
       d="m 202.04914,152.81547 c -0.01,0.44078 0.0505,0.87838 0.0889,1.31664 0.007,0.26536 0.0704,0.52462 0.12224,0.78363 0,0 0.51598,-0.0102 0.51598,-0.0102 v 0 c -0.0513,-0.25719 -0.112,-0.51469 -0.12003,-0.77802 -0.0389,-0.4365 -0.10006,-0.87295 -0.0819,-1.31208 0,0 -0.52513,0 -0.52513,0 z" />
    <path
       style="fill:#000000;fill-opacity:1;fill-rule:evenodd;stroke:none;stroke-width:0;stop-color:#000000"
       id="path12177"
       d="m 195.67041,152.79852 c 5.3e-4,0.0425 0.004,0.0851 0.001,0.12752 -0.003,0.053 -0.0343,0.30634 -0.0389,0.34562 -0.0233,0.19549 -0.0443,0.39088 -0.0624,0.58692 -0.0197,0.25156 -0.0206,0.50324 -0.0516,0.75368 0,0 0.52094,0.006 0.52094,0.006 v 0 c 0.0298,-0.25106 0.0308,-0.50319 0.051,-0.7552 0.0177,-0.19555 0.0382,-0.39041 0.0623,-0.58529 0.007,-0.0574 0.0374,-0.28511 0.0418,-0.352 0.003,-0.0424 8e-4,-0.085 0.001,-0.12753 0,0 -0.52589,0 -0.52589,0 z" />
    <path
       style="fill:#000000;fill-opacity:1;fill-rule:evenodd;stroke:none;stroke-width:0;stop-color:#000000"
       id="path12179"
       d="m 191.27606,152.49808 c 2.5e-4,0.0267 0.002,0.21095 0.002,0.21597 -0.007,0.12062 -0.0263,0.2402 -0.0385,0.36039 -0.026,0.25541 -0.0214,0.21314 -0.0445,0.46875 -0.0265,0.2884 -0.0378,0.57784 -0.0479,0.86718 0,0 0.51991,0.002 0.51991,0.002 v 0 c 0.009,-0.28837 0.0205,-0.57678 0.0465,-0.86424 0.0194,-0.21422 0.022,-0.25381 0.0455,-0.46772 0.0134,-0.12211 0.0343,-0.24352 0.0422,-0.3661 0.005,-0.0718 -0.002,-0.14408 0.002,-0.21597 0,0 -0.52664,0 -0.52664,0 z" />
    <path
       style="fill:#000000;fill-opacity:1;fill-rule:evenodd;stroke:none;stroke-width:0;stop-color:#000000"
       id="path12181"
       d="m 186.77064,151.52397 c -0.008,0.0285 -0.0165,0.0567 -0.0226,0.0855 -0.0311,0.14834 -0.0178,0.12705 -0.0435,0.28602 -0.0325,0.20139 -0.0717,0.40161 -0.10325,0.60327 -0.0207,0.27486 -0.10368,0.53677 -0.182,0.79901 0,0 0.51956,0.015 0.51956,0.015 v 0 c 0.0785,-0.26456 0.16082,-0.52887 0.18169,-0.80595 0.032,-0.20216 0.0719,-0.40251 0.10596,-0.60422 0.0225,-0.13319 0.0162,-0.15349 0.0465,-0.27835 0.006,-0.0258 0.0162,-0.0506 0.0242,-0.0759 0,0 -0.52665,-0.0245 -0.52665,-0.0245 z" />
    <path
       style="fill:#000000;fill-opacity:1;fill-rule:evenodd;stroke:none;stroke-width:0;stop-color:#000000"
       id="path12183"
       d="m 206.52371,153.07713 c 0.0159,0.0576 0.0317,0.11516 0.0476,0.17275 0.0161,0.0741 0.028,0.1492 0.0482,0.2223 0.0717,0.26076 0.16627,0.51479 0.24083,0.77474 0.0914,0.31876 0.17226,0.64047 0.26105,0.95997 0,0 0.51723,-0.014 0.51723,-0.014 v 0 c -0.0885,-0.31996 -0.16869,-0.64217 -0.25926,-0.96154 -0.0733,-0.25834 -0.16653,-0.51084 -0.23614,-0.77018 -0.0356,-0.13254 -0.0467,-0.27101 -0.0932,-0.40099 0,0 -0.52625,0.0169 -0.52625,0.0169 z" />
  </g>
  <g
     inkscape:groupmode="layer"
     id="layer9"
     inkscape:label="corda">
    <path
       style="fill:#d45500;fill-opacity:1;fill-rule:evenodd;stroke:#000000;stroke-width:0.312208;stroke-miterlimit:4;stroke-dasharray:1.87325, 1.87325;stroke-dashoffset:0;stroke-opacity:1;stop-color:#000000"
       id="path16172"
       d="m 194.33208,105.67054 c -0.28182,0.12658 -0.46173,0.43446 -0.68113,0.68095 -0.0191,0.0214 -0.46182,0.48876 -0.47012,0.49753 -0.25321,0.31028 -0.4289,0.66304 -0.44246,1.13458 -0.004,0.12875 0.003,0.26149 0.0322,0.38415 0.086,0.3567 0.23241,0.51724 0.41378,0.79306 0.64937,0.81928 1.48294,1.265 2.28486,1.74894 0.737,0.40206 1.50875,0.67181 2.29083,0.86135 0.34209,0.0698 0.68918,0.12172 1.02382,0.24491 0.56324,0.20737 1.11592,0.48366 1.67224,0.72165 0.82984,0.36644 1.68778,0.58916 2.557,0.69365 0.84423,0.0385 1.71932,0.2113 2.54372,-0.09 0.29727,-0.10871 0.37544,-0.17437 0.65469,-0.34443 0.35671,-0.31385 0.63768,-0.74558 0.78593,-1.28488 0.0765,-0.27825 0.0951,-0.48782 0.13425,-0.77738 0.0213,-0.59513 -0.0653,-1.19847 -0.20999,-1.76125 -0.0874,-0.34015 -0.16914,-0.5463 -0.28477,-0.87255 -0.1454,-0.41351 -0.2902,-0.83015 -0.41248,-1.25714 -0.12369,-0.43201 -0.0989,-0.46908 -0.26798,-0.87459 -0.052,-0.12495 -0.11758,-0.23907 -0.17638,-0.3586 -0.15994,-0.23211 -0.2073,-0.33372 -0.40658,-0.49984 -0.1618,-0.13488 -0.43671,-0.2869 -0.60831,-0.37766 -0.27122,-0.14345 -0.54537,-0.27688 -0.81676,-0.41973 -0.5266,-0.30189 -1.04399,-0.63624 -1.52795,-1.04769 -0.30461,-0.25896 -0.35631,-0.32484 -0.64724,-0.62093 -0.48558,-0.52394 -0.9593,-1.1235 -1.22245,-1.89505 -0.0431,-0.12657 -0.0728,-0.26063 -0.10907,-0.39096 -0.18389,-0.860597 -0.17318,-1.764831 -0.18031,-2.651858 -0.0105,-0.83948 0.0822,-1.67416 0.1468,-2.50764 0,0 -1.27758,-0.0172 -1.27758,-0.0172 v 0 c -0.0623,0.83997 -0.15636,1.68048 -0.14645,2.52606 0.003,0.906077 -0.003,1.829441 0.17802,2.709978 0.0367,0.13842 0.0659,0.28076 0.11007,0.41527 0.26073,0.79474 0.73914,1.42292 1.23201,1.96595 0.10824,0.11387 0.2139,0.23225 0.32474,0.34159 0.57133,0.56364 1.2091,0.99053 1.85652,1.37407 1.10489,0.59346 -0.25699,-0.1321 0.81054,0.41844 0.27229,0.14042 0.57802,0.27518 0.80871,0.52421 0.0711,0.0768 0.13119,0.1701 0.19678,0.25514 0.0592,0.11108 0.12541,0.21605 0.17753,0.33325 0.17776,0.39959 0.1437,0.42359 0.26758,0.86483 0.12092,0.4307 0.26778,0.84965 0.41396,1.26567 0.10319,0.28761 0.20293,0.54511 0.28282,0.84586 0.14138,0.53219 0.22694,1.11671 0.20614,1.68124 -0.0402,0.28549 -0.0544,0.4607 -0.13418,0.73259 -0.14826,0.5052 -0.42391,0.89523 -0.77378,1.16356 -0.27886,0.15477 -0.35576,0.21573 -0.65164,0.30671 -0.11024,0.0339 -0.44693,0.0568 -0.33465,0.0756 0.31541,0.0524 0.63552,0.019 0.95331,0.0272 0.21042,0.005 -0.87031,-0.0254 -0.631,-0.0306 -0.87268,-0.0867 -1.73595,-0.29182 -2.56999,-0.65251 -0.58686,-0.24822 -0.56259,-0.23311 -1.14867,-0.50062 -0.17049,-0.0779 -0.33796,-0.1679 -0.51043,-0.23755 -0.33211,-0.13411 -0.67998,-0.19724 -1.02309,-0.25416 -0.78231,-0.17359 -1.55191,-0.43664 -2.29263,-0.81826 -1.21022,-0.71828 0.41901,0.2541 -0.82386,-0.50591 -0.13223,-0.0808 -0.26929,-0.14783 -0.39933,-0.23477 -0.37788,-0.25266 -0.73373,-0.56945 -1.05214,-0.93964 -0.15225,-0.21312 -0.32327,-0.40199 -0.40332,-0.68831 -0.14833,-0.53034 0.12327,-1.01501 0.40229,-1.34386 0.12337,-0.13009 0.35243,-0.3692 0.47455,-0.50728 0.11151,-0.12608 0.2539,-0.31374 0.37585,-0.42627 0.10254,-0.0946 0.22406,-0.14977 0.31787,-0.263 0,0 -1.29271,-0.13568 -1.29271,-0.13568 z" />
  </g>
  <g
     inkscape:groupmode="layer"
     id="layer2"
     inkscape:label="rosto">
    <g
       id="g9021"
       style="display:inline;stroke-width:1.15239"
       transform="matrix(0.85536451,0,0,0.88033577,30.48915,10.462173)">
      <path
         id="path6109"
         style="fill:#ffbe91;fill-opacity:1;fill-rule:evenodd;stroke-width:0;stop-color:#000000"
         d="m 205.73495,97.961288 c -1.60876,7.195922 -4.00123,13.029382 -8.81989,13.029382 -4.39208,0 -6.46805,-5.83346 -8.81989,-13.029382 -2.24153,-6.858424 3.9488,-13.029382 8.81989,-13.029382 4.87109,0 10.39199,5.997438 8.81989,13.029382 z"
         sodipodi:nodetypes="sssss" />
      <circle
         style="fill:#808080;fill-rule:evenodd;stroke:#ff0000;stroke-width:0;stop-color:#000000"
         id="path6519"
         cx="194.66597"
         cy="95.712189"
         r="1.2756697" />
      <circle
         style="fill:#808080;fill-rule:evenodd;stroke:#ff0000;stroke-width:0;stop-color:#000000"
         id="circle6601"
         cx="199.89386"
         cy="95.712189"
         r="1.2756697" />
      <g
         id="g6793"
         transform="translate(-26.750777,-14.525759)"
         style="fill:#808080;stroke-width:1.15239">
        <ellipse
           style="fill:#808080;fill-rule:evenodd;stroke:#ff0000;stroke-width:0;stop-color:#000000"
           id="circle6787"
           cx="223.47511"
           cy="114.59182"
           rx="0.21097137"
           ry="0.37363502" />
        <ellipse
           style="fill:#808080;fill-rule:evenodd;stroke:#ff0000;stroke-width:0;stop-color:#000000"
           id="circle6789"
           cx="224.60223"
           cy="114.59182"
           rx="0.21097137"
           ry="0.37363502" />
      </g>
      <path
         style="fill:#808080;fill-opacity:1;fill-rule:evenodd;stroke:none;stroke-width:0;stop-color:#000000"
         id="path8699"
         d="m 198.05417,103.20996 c 0.20097,-0.0191 1.37926,-0.13081 1.38133,-0.13108 0.38451,-0.0613 0.75887,-0.15899 1.13832,-0.2385 0,0 -4.08899,-0.44951 -4.08899,-0.44951 v 0 c -0.39097,0.0641 -0.77855,0.14392 -1.17293,0.19235 -0.50192,0.0617 -0.97996,0.0684 -1.48077,0.0835 0,0 4.22304,0.5433 4.22304,0.5433 z" />
      <ellipse
         style="fill:#333333;fill-rule:evenodd;stroke:#ff0000;stroke-width:0;stop-color:#000000"
         id="circle9294"
         cx="199.91968"
         cy="96.140465"
         rx="0.35435271"
         ry="0.42522326" />
      <ellipse
         style="fill:#333333;fill-rule:evenodd;stroke:#ff0000;stroke-width:0;stop-color:#000000"
         id="ellipse9314"
         cx="194.6113"
         cy="96.129005"
         rx="0.35435271"
         ry="0.42522326" />
    </g>
  </g>
  <g
     inkscape:groupmode="layer"
     id="layer7"
     inkscape:label="cabelo">
    <path
       style="display:inline;fill:#000000;stroke:#000000;stroke-width:0.264583px;stroke-linecap:butt;stroke-linejoin:miter;stroke-opacity:1"
       d="m 191.46872,92.124375 c 0,0 1.0914,-1.09141 4.56406,-0.69453 3.47266,0.39687 7.83828,-2.0836 8.43359,-0.39688 0.59532,1.68672 0.69454,3.075777 1.48829,3.968747 0.79375,0.89297 3.27421,-3.075777 1.28984,-5.953117 -1.98438,-2.877328 -3.67232,-4.153504 -5.95313,-4.365604 -2.31567,-0.215342 -7.77963,0.620479 -8.53281,1.389056 -1.73751,1.773018 -2.6789,1.389051 -2.28203,3.174978 0.39688,1.78594 0.99219,2.87735 0.99219,2.87735 z"
       id="path12708"
       sodipodi:nodetypes="csssssssc" />
  </g>
</svg>
