<?xml version="1.0" encoding="UTF-8" standalone="no"?>
<svg
   width="800"
   height="620"
   viewBox="0 0 211.66667 164.04167"
   version="1.1"
   id="svg8"
   inkscape:version="1.1.2 (b8e25be833, 2022-02-05)"
   sodipodi:docname="forca6.svg"
   xmlns:inkscape="http://www.inkscape.org/namespaces/inkscape"
   xmlns:sodipodi="http://sodipodi.sourceforge.net/DTD/sodipodi-0.dtd"
   xmlns="http://www.w3.org/2000/svg"
   xmlns:svg="http://www.w3.org/2000/svg"
   xmlns:rdf="http://www.w3.org/1999/02/22-rdf-syntax-ns#"
   xmlns:cc="http://creativecommons.org/ns#"
   xmlns:dc="http://purl.org/dc/elements/1.1/">
  <defs
     id="defs2">
    <filter
       inkscape:menu="Shadows and Glows"
       inkscape:menu-tooltip="Cut out, add inner shadow and colorize some parts of an image"
       style="color-interpolation-filters:sRGB;"
       inkscape:label="Emergence"
       id="filter10113"
       x="-0.35918795"
       y="-0.37415413"
       width="1.8680376"
       height="1.9042058">
      <feColorMatrix
         values="0 0 0 0 0 0 0 0 0 0 0 0 0 0 0 0.21 0.72 0.07 0 0 "
         result="result1"
         id="feColorMatrix10085" />
      <feColorMatrix
         values="1 0 0 0 0 0 1 0 0 0 0 0 1 0 0 0 0 0 2 0 "
         result="result9"
         id="feColorMatrix10087" />
      <feComposite
         in2="result9"
         in="SourceGraphic"
         operator="in"
         result="result4"
         id="feComposite10089" />
      <feFlood
         result="result2"
         flood-color="rgb(0,0,0)"
         id="feFlood10091" />
      <feComposite
         in2="result9"
         operator="in"
         result="result10"
         id="feComposite10093" />
      <feComposite
         in2="result4"
         operator="atop"
         id="feComposite10095" />
      <feGaussianBlur
         stdDeviation="3"
         result="result8"
         id="feGaussianBlur10097" />
      <feOffset
         dx="3"
         dy="3"
         result="result3"
         in="result8"
         id="feOffset10099" />
      <feFlood
         flood-opacity="1"
         flood-color="rgb(219,173,62)"
         result="result5"
         id="feFlood10101" />
      <feMerge
         result="result6"
         id="feMerge10109">
        <feMergeNode
           in="result5"
           id="feMergeNode10103" />
        <feMergeNode
           in="result3"
           id="feMergeNode10105" />
        <feMergeNode
           in="result4"
           id="feMergeNode10107" />
      </feMerge>
      <feComposite
         in2="SourceGraphic"
         operator="in"
         result="result7"
         id="feComposite10111" />
    </filter>
    <filter
       inkscape:label="Raised Border"
       inkscape:menu="Bevels"
       inkscape:menu-tooltip="Strongly raised border around a flat surface"
       height="3.4771584"
       width="2.7104189"
       y="-1.2385792"
       x="-0.85520946"
       style="color-interpolation-filters:sRGB;"
       id="filter11073">
      <feGaussianBlur
         stdDeviation="4"
         result="result1"
         id="feGaussianBlur11051" />
      <feComposite
         in="result1"
         in2="result1"
         result="result4"
         operator="in"
         id="feComposite11053" />
      <feGaussianBlur
         stdDeviation="2"
         result="result6"
         in="result4"
         id="feGaussianBlur11055" />
      <feComposite
         operator="xor"
         in="result6"
         in2="result4"
         result="result8"
         id="feComposite11057" />
      <feComposite
         operator="atop"
         result="fbSourceGraphic"
         in="result4"
         in2="result8"
         id="feComposite11059" />
      <feSpecularLighting
         specularExponent="10"
         specularConstant="1.3"
         surfaceScale="3"
         lighting-color="rgb(255,255,255)"
         result="result1"
         in="fbSourceGraphic"
         id="feSpecularLighting11063">
        <feDistantLight
           azimuth="235"
           elevation="55"
           id="feDistantLight11061" />
      </feSpecularLighting>
      <feComposite
         operator="atop"
         result="result2"
         in="result1"
         in2="fbSourceGraphic"
         id="feComposite11065" />
      <feComposite
         k3="1"
         k2="1"
         operator="arithmetic"
         result="result4"
         in="fbSourceGraphic"
         in2="result2"
         id="feComposite11067" />
      <feComposite
         operator="over"
         in="result4"
         in2="SourceGraphic"
         id="feComposite11069" />
      <feBlend
         mode="multiply"
         in2="result2"
         id="feBlend11071" />
    </filter>
    <filter
       y="-0.54869745"
       height="2.0973949"
       inkscape:menu-tooltip="Darkens the edge with an inner blur and adds a flexible glow"
       inkscape:menu="Shadows and Glows"
       inkscape:label="Dark and Glow"
       style="color-interpolation-filters:sRGB;"
       id="filter11287"
       x="-0.57613232"
       width="2.1522646">
      <feGaussianBlur
         stdDeviation="5.4441075"
         result="result6"
         id="feGaussianBlur11277" />
      <feComposite
         result="result8"
         in="SourceGraphic"
         operator="atop"
         in2="result6"
         id="feComposite11279" />
      <feComposite
         result="result9"
         operator="over"
         in2="SourceAlpha"
         in="result8"
         id="feComposite11281" />
      <feColorMatrix
         values="1 0 0 0 0 0 1 0 0 0 0 0 1 0 0 0 0 0 1 0 "
         result="result10"
         id="feColorMatrix11283" />
      <feBlend
         in="result10"
         mode="normal"
         in2="result6"
         id="feBlend11285" />
    </filter>
    <filter
       inkscape:menu="Shadows and Glows"
       inkscape:menu-tooltip="Cut out, add inner shadow and colorize some parts of an image"
       style="color-interpolation-filters:sRGB;"
       inkscape:label="Emergence"
       id="filter12311"
       x="-0.44508962"
       y="-0.44509534"
       width="2.0756332"
       height="2.0756471">
      <feColorMatrix
         values="0 0 0 0 0 0 0 0 0 0 0 0 0 0 0 0.21 0.72 0.07 0 0 "
         result="result1"
         id="feColorMatrix12283" />
      <feColorMatrix
         values="1 0 0 0 0 0 1 0 0 0 0 0 1 0 0 0 0 0 2 0 "
         result="result9"
         id="feColorMatrix12285" />
      <feComposite
         in2="result9"
         in="SourceGraphic"
         operator="in"
         result="result4"
         id="feComposite12287" />
      <feFlood
         result="result2"
         flood-color="rgb(0,0,0)"
         id="feFlood12289" />
      <feComposite
         in2="result9"
         operator="in"
         result="result10"
         id="feComposite12291" />
      <feComposite
         in2="result4"
         operator="atop"
         id="feComposite12293" />
      <feGaussianBlur
         stdDeviation="3"
         result="result8"
         id="feGaussianBlur12295" />
      <feOffset
         dx="3"
         dy="3"
         result="result3"
         in="result8"
         id="feOffset12297" />
      <feFlood
         flood-opacity="1"
         flood-color="rgb(219,173,62)"
         result="result5"
         id="feFlood12299" />
      <feMerge
         result="result6"
         id="feMerge12307">
        <feMergeNode
           in="result5"
           id="feMergeNode12301" />
        <feMergeNode
           in="result3"
           id="feMergeNode12303" />
        <feMergeNode
           in="result4"
           id="feMergeNode12305" />
      </feMerge>
      <feComposite
         in2="SourceGraphic"
         operator="in"
         result="result7"
         id="feComposite12309" />
    </filter>
    <filter
       inkscape:menu="Shadows and Glows"
       inkscape:menu-tooltip="Cut out, add inner shadow and colorize some parts of an image"
       style="color-interpolation-filters:sRGB;"
       inkscape:label="Emergence"
       id="filter12341"
       x="-0.51371697"
       y="-0.36651849"
       width="2.2414827"
       height="1.885753">
      <feColorMatrix
         values="0 0 0 0 0 0 0 0 0 0 0 0 0 0 0 0.21 0.72 0.07 0 0 "
         result="result1"
         id="feColorMatrix12313" />
      <feColorMatrix
         values="1 0 0 0 0 0 1 0 0 0 0 0 1 0 0 0 0 0 2 0 "
         result="result9"
         id="feColorMatrix12315" />
      <feComposite
         in2="result9"
         in="SourceGraphic"
         operator="in"
         result="result4"
         id="feComposite12317" />
      <feFlood
         result="result2"
         flood-color="rgb(0,0,0)"
         id="feFlood12319" />
      <feComposite
         in2="result9"
         operator="in"
         result="result10"
         id="feComposite12321" />
      <feComposite
         in2="result4"
         operator="atop"
         id="feComposite12323" />
      <feGaussianBlur
         stdDeviation="3"
         result="result8"
         id="feGaussianBlur12325" />
      <feOffset
         dx="3"
         dy="3"
         result="result3"
         in="result8"
         id="feOffset12327" />
      <feFlood
         flood-opacity="1"
         flood-color="rgb(219,173,62)"
         result="result5"
         id="feFlood12329" />
      <feMerge
         result="result6"
         id="feMerge12337">
        <feMergeNode
           in="result5"
           id="feMergeNode12331" />
        <feMergeNode
           in="result3"
           id="feMergeNode12333" />
        <feMergeNode
           in="result4"
           id="feMergeNode12335" />
      </feMerge>
      <feComposite
         in2="SourceGraphic"
         operator="in"
         result="result7"
         id="feComposite12339" />
    </filter>
    <filter
       inkscape:menu="Shadows and Glows"
       inkscape:menu-tooltip="Cut out, add inner shadow and colorize some parts of an image"
       style="color-interpolation-filters:sRGB;"
       inkscape:label="Emergence"
       id="filter12371"
       x="-0.3990977"
       y="-0.24269462"
       width="1.9644861"
       height="1.586512">
      <feColorMatrix
         values="0 0 0 0 0 0 0 0 0 0 0 0 0 0 0 0.21 0.72 0.07 0 0 "
         result="result1"
         id="feColorMatrix12343" />
      <feColorMatrix
         values="1 0 0 0 0 0 1 0 0 0 0 0 1 0 0 0 0 0 2 0 "
         result="result9"
         id="feColorMatrix12345" />
      <feComposite
         in2="result9"
         in="SourceGraphic"
         operator="in"
         result="result4"
         id="feComposite12347" />
      <feFlood
         result="result2"
         flood-color="rgb(0,0,0)"
         id="feFlood12349" />
      <feComposite
         in2="result9"
         operator="in"
         result="result10"
         id="feComposite12351" />
      <feComposite
         in2="result4"
         operator="atop"
         id="feComposite12353" />
      <feGaussianBlur
         stdDeviation="3"
         result="result8"
         id="feGaussianBlur12355" />
      <feOffset
         dx="3"
         dy="3"
         result="result3"
         in="result8"
         id="feOffset12357" />
      <feFlood
         flood-opacity="1"
         flood-color="rgb(219,173,62)"
         result="result5"
         id="feFlood12359" />
      <feMerge
         result="result6"
         id="feMerge12367">
        <feMergeNode
           in="result5"
           id="feMergeNode12361" />
        <feMergeNode
           in="result3"
           id="feMergeNode12363" />
        <feMergeNode
           in="result4"
           id="feMergeNode12365" />
      </feMerge>
      <feComposite
         in2="SourceGraphic"
         operator="in"
         result="result7"
         id="feComposite12369" />
    </filter>
    <filter
       inkscape:menu="Shadows and Glows"
       inkscape:menu-tooltip="Cut out, add inner shadow and colorize some parts of an image"
       style="color-interpolation-filters:sRGB;"
       inkscape:label="Emergence"
       id="filter12401"
       x="-0.51371697"
       y="-0.36651849"
       width="2.2414827"
       height="1.885753">
      <feColorMatrix
         values="0 0 0 0 0 0 0 0 0 0 0 0 0 0 0 0.21 0.72 0.07 0 0 "
         result="result1"
         id="feColorMatrix12373" />
      <feColorMatrix
         values="1 0 0 0 0 0 1 0 0 0 0 0 1 0 0 0 0 0 2 0 "
         result="result9"
         id="feColorMatrix12375" />
      <feComposite
         in2="result9"
         in="SourceGraphic"
         operator="in"
         result="result4"
         id="feComposite12377" />
      <feFlood
         result="result2"
         flood-color="rgb(0,0,0)"
         id="feFlood12379" />
      <feComposite
         in2="result9"
         operator="in"
         result="result10"
         id="feComposite12381" />
      <feComposite
         in2="result4"
         operator="atop"
         id="feComposite12383" />
      <feGaussianBlur
         stdDeviation="3"
         result="result8"
         id="feGaussianBlur12385" />
      <feOffset
         dx="3"
         dy="3"
         result="result3"
         in="result8"
         id="feOffset12387" />
      <feFlood
         flood-opacity="1"
         flood-color="rgb(219,173,62)"
         result="result5"
         id="feFlood12389" />
      <feMerge
         result="result6"
         id="feMerge12397">
        <feMergeNode
           in="result5"
           id="feMergeNode12391" />
        <feMergeNode
           in="result3"
           id="feMergeNode12393" />
        <feMergeNode
           in="result4"
           id="feMergeNode12395" />
      </feMerge>
      <feComposite
         in2="SourceGraphic"
         operator="in"
         result="result7"
         id="feComposite12399" />
    </filter>
    <filter
       inkscape:menu="Shadows and Glows"
       inkscape:menu-tooltip="Cut out, add inner shadow and colorize some parts of an image"
       style="color-interpolation-filters:sRGB;"
       inkscape:label="Emergence"
       id="filter12431"
       x="-0.94517747"
       y="-0.28873975"
       width="3.2841789"
       height="1.6977877">
      <feColorMatrix
         values="0 0 0 0 0 0 0 0 0 0 0 0 0 0 0 0.21 0.72 0.07 0 0 "
         result="result1"
         id="feColorMatrix12403" />
      <feColorMatrix
         values="1 0 0 0 0 0 1 0 0 0 0 0 1 0 0 0 0 0 2 0 "
         result="result9"
         id="feColorMatrix12405" />
      <feComposite
         in2="result9"
         in="SourceGraphic"
         operator="in"
         result="result4"
         id="feComposite12407" />
      <feFlood
         result="result2"
         flood-color="rgb(0,0,0)"
         id="feFlood12409" />
      <feComposite
         in2="result9"
         operator="in"
         result="result10"
         id="feComposite12411" />
      <feComposite
         in2="result4"
         operator="atop"
         id="feComposite12413" />
      <feGaussianBlur
         stdDeviation="3"
         result="result8"
         id="feGaussianBlur12415" />
      <feOffset
         dx="3"
         dy="3"
         result="result3"
         in="result8"
         id="feOffset12417" />
      <feFlood
         flood-opacity="1"
         flood-color="rgb(219,173,62)"
         result="result5"
         id="feFlood12419" />
      <feMerge
         result="result6"
         id="feMerge12427">
        <feMergeNode
           in="result5"
           id="feMergeNode12421" />
        <feMergeNode
           in="result3"
           id="feMergeNode12423" />
        <feMergeNode
           in="result4"
           id="feMergeNode12425" />
      </feMerge>
      <feComposite
         in2="SourceGraphic"
         operator="in"
         result="result7"
         id="feComposite12429" />
    </filter>
    <filter
       inkscape:menu="Shadows and Glows"
       inkscape:menu-tooltip="Cut out, add inner shadow and colorize some parts of an image"
       style="color-interpolation-filters:sRGB;"
       inkscape:label="Emergence"
       id="filter12461"
       x="-0.94517685"
       y="-0.28873975"
       width="3.2841774"
       height="1.6977877">
      <feColorMatrix
         values="0 0 0 0 0 0 0 0 0 0 0 0 0 0 0 0.21 0.72 0.07 0 0 "
         result="result1"
         id="feColorMatrix12433" />
      <feColorMatrix
         values="1 0 0 0 0 0 1 0 0 0 0 0 1 0 0 0 0 0 2 0 "
         result="result9"
         id="feColorMatrix12435" />
      <feComposite
         in2="result9"
         in="SourceGraphic"
         operator="in"
         result="result4"
         id="feComposite12437" />
      <feFlood
         result="result2"
         flood-color="rgb(0,0,0)"
         id="feFlood12439" />
      <feComposite
         in2="result9"
         operator="in"
         result="result10"
         id="feComposite12441" />
      <feComposite
         in2="result4"
         operator="atop"
         id="feComposite12443" />
      <feGaussianBlur
         stdDeviation="3"
         result="result8"
         id="feGaussianBlur12445" />
      <feOffset
         dx="3"
         dy="3"
         result="result3"
         in="result8"
         id="feOffset12447" />
      <feFlood
         flood-opacity="1"
         flood-color="rgb(219,173,62)"
         result="result5"
         id="feFlood12449" />
      <feMerge
         result="result6"
         id="feMerge12457">
        <feMergeNode
           in="result5"
           id="feMergeNode12451" />
        <feMergeNode
           in="result3"
           id="feMergeNode12453" />
        <feMergeNode
           in="result4"
           id="feMergeNode12455" />
      </feMerge>
      <feComposite
         in2="SourceGraphic"
         operator="in"
         result="result7"
         id="feComposite12459" />
    </filter>
    <filter
       inkscape:menu="Shadows and Glows"
       inkscape:menu-tooltip="Cut out, add inner shadow and colorize some parts of an image"
       style="color-interpolation-filters:sRGB"
       inkscape:label="Emergence"
       id="filter12461-7"
       x="-0.94517586"
       y="-0.28873975"
       width="3.284175"
       height="1.6977877">
      <feColorMatrix
         values="0 0 0 0 0 0 0 0 0 0 0 0 0 0 0 0.21 0.72 0.07 0 0 "
         result="result1"
         id="feColorMatrix12433-3" />
      <feColorMatrix
         values="1 0 0 0 0 0 1 0 0 0 0 0 1 0 0 0 0 0 2 0 "
         result="result9"
         id="feColorMatrix12435-6" />
      <feComposite
         in2="result9"
         in="SourceGraphic"
         operator="in"
         result="result4"
         id="feComposite12437-1" />
      <feFlood
         result="result2"
         flood-color="rgb(0,0,0)"
         id="feFlood12439-8" />
      <feComposite
         in2="result9"
         operator="in"
         result="result10"
         id="feComposite12441-7" />
      <feComposite
         in2="result4"
         operator="atop"
         id="feComposite12443-6" />
      <feGaussianBlur
         stdDeviation="3"
         result="result8"
         id="feGaussianBlur12445-2" />
      <feOffset
         dx="3"
         dy="3"
         result="result3"
         in="result8"
         id="feOffset12447-9" />
      <feFlood
         flood-opacity="1"
         flood-color="rgb(219,173,62)"
         result="result5"
         id="feFlood12449-6" />
      <feMerge
         result="result6"
         id="feMerge12457-3">
        <feMergeNode
           in="result5"
           id="feMergeNode12451-9" />
        <feMergeNode
           in="result3"
           id="feMergeNode12453-7" />
        <feMergeNode
           in="result4"
           id="feMergeNode12455-1" />
      </feMerge>
      <feComposite
         in2="SourceGraphic"
         operator="in"
         result="result7"
         id="feComposite12459-0" />
    </filter>
    <filter
       inkscape:menu="Shadows and Glows"
       inkscape:menu-tooltip="Cut out, add inner shadow and colorize some parts of an image"
       style="color-interpolation-filters:sRGB"
       inkscape:label="Emergence"
       id="filter12431-9"
       x="-0.94517673"
       y="-0.28873975"
       width="3.2841771"
       height="1.6977877">
      <feColorMatrix
         values="0 0 0 0 0 0 0 0 0 0 0 0 0 0 0 0.21 0.72 0.07 0 0 "
         result="result1"
         id="feColorMatrix12403-8" />
      <feColorMatrix
         values="1 0 0 0 0 0 1 0 0 0 0 0 1 0 0 0 0 0 2 0 "
         result="result9"
         id="feColorMatrix12405-5" />
      <feComposite
         in2="result9"
         in="SourceGraphic"
         operator="in"
         result="result4"
         id="feComposite12407-3" />
      <feFlood
         result="result2"
         flood-color="rgb(0,0,0)"
         id="feFlood12409-3" />
      <feComposite
         in2="result9"
         operator="in"
         result="result10"
         id="feComposite12411-1" />
      <feComposite
         in2="result4"
         operator="atop"
         id="feComposite12413-6" />
      <feGaussianBlur
         stdDeviation="3"
         result="result8"
         id="feGaussianBlur12415-8" />
      <feOffset
         dx="3"
         dy="3"
         result="result3"
         in="result8"
         id="feOffset12417-6" />
      <feFlood
         flood-opacity="1"
         flood-color="rgb(219,173,62)"
         result="result5"
         id="feFlood12419-6" />
      <feMerge
         result="result6"
         id="feMerge12427-8">
        <feMergeNode
           in="result5"
           id="feMergeNode12421-7" />
        <feMergeNode
           in="result3"
           id="feMergeNode12423-7" />
        <feMergeNode
           in="result4"
           id="feMergeNode12425-5" />
      </feMerge>
      <feComposite
         in2="SourceGraphic"
         operator="in"
         result="result7"
         id="feComposite12429-5" />
    </filter>
    <filter
       inkscape:menu="Shadows and Glows"
       inkscape:menu-tooltip="Cut out, add inner shadow and colorize some parts of an image"
       style="color-interpolation-filters:sRGB"
       inkscape:label="Emergence"
       id="filter12341-9"
       x="-0.1359192"
       y="-0.096974804"
       width="1.3284714"
       height="1.2343558">
      <feColorMatrix
         values="0 0 0 0 0 0 0 0 0 0 0 0 0 0 0 0.21 0.72 0.07 0 0 "
         result="result1"
         id="feColorMatrix12313-0" />
      <feColorMatrix
         values="1 0 0 0 0 0 1 0 0 0 0 0 1 0 0 0 0 0 2 0 "
         result="result9"
         id="feColorMatrix12315-1" />
      <feComposite
         in2="result9"
         in="SourceGraphic"
         operator="in"
         result="result4"
         id="feComposite12317-4" />
      <feFlood
         result="result2"
         flood-color="rgb(0,0,0)"
         id="feFlood12319-5" />
      <feComposite
         in2="result9"
         operator="in"
         result="result10"
         id="feComposite12321-4" />
      <feComposite
         in2="result4"
         operator="atop"
         id="feComposite12323-9" />
      <feGaussianBlur
         stdDeviation="3"
         result="result8"
         id="feGaussianBlur12325-5" />
      <feOffset
         dx="3"
         dy="3"
         result="result3"
         in="result8"
         id="feOffset12327-4" />
      <feFlood
         flood-opacity="1"
         flood-color="rgb(219,173,62)"
         result="result5"
         id="feFlood12329-0" />
      <feMerge
         result="result6"
         id="feMerge12337-4">
        <feMergeNode
           in="result5"
           id="feMergeNode12331-1" />
        <feMergeNode
           in="result3"
           id="feMergeNode12333-9" />
        <feMergeNode
           in="result4"
           id="feMergeNode12335-5" />
      </feMerge>
      <feComposite
         in2="SourceGraphic"
         operator="in"
         result="result7"
         id="feComposite12339-1" />
    </filter>
    <filter
       inkscape:menu="Shadows and Glows"
       inkscape:menu-tooltip="Cut out, add inner shadow and colorize some parts of an image"
       style="color-interpolation-filters:sRGB"
       inkscape:label="Emergence"
       id="filter12401-5"
       x="-0.1359192"
       y="-0.096974804"
       width="1.3284714"
       height="1.2343558">
      <feColorMatrix
         values="0 0 0 0 0 0 0 0 0 0 0 0 0 0 0 0.21 0.72 0.07 0 0 "
         result="result1"
         id="feColorMatrix12373-2" />
      <feColorMatrix
         values="1 0 0 0 0 0 1 0 0 0 0 0 1 0 0 0 0 0 2 0 "
         result="result9"
         id="feColorMatrix12375-3" />
      <feComposite
         in2="result9"
         in="SourceGraphic"
         operator="in"
         result="result4"
         id="feComposite12377-9" />
      <feFlood
         result="result2"
         flood-color="rgb(0,0,0)"
         id="feFlood12379-0" />
      <feComposite
         in2="result9"
         operator="in"
         result="result10"
         id="feComposite12381-1" />
      <feComposite
         in2="result4"
         operator="atop"
         id="feComposite12383-2" />
      <feGaussianBlur
         stdDeviation="3"
         result="result8"
         id="feGaussianBlur12385-1" />
      <feOffset
         dx="3"
         dy="3"
         result="result3"
         in="result8"
         id="feOffset12387-0" />
      <feFlood
         flood-opacity="1"
         flood-color="rgb(219,173,62)"
         result="result5"
         id="feFlood12389-7" />
      <feMerge
         result="result6"
         id="feMerge12397-5">
        <feMergeNode
           in="result5"
           id="feMergeNode12391-8" />
        <feMergeNode
           in="result3"
           id="feMergeNode12393-9" />
        <feMergeNode
           in="result4"
           id="feMergeNode12395-2" />
      </feMerge>
      <feComposite
         in2="SourceGraphic"
         operator="in"
         result="result7"
         id="feComposite12399-0" />
    </filter>
    <filter
       inkscape:menu="Shadows and Glows"
       inkscape:menu-tooltip="Cut out, add inner shadow and colorize some parts of an image"
       style="color-interpolation-filters:sRGB;"
       inkscape:label="Emergence"
       id="filter12985"
       x="-0.034720634"
       y="-0.07364665"
       width="1.0838979"
       height="1.1736333">
      <feColorMatrix
         values="0 0 0 0 0 0 0 0 0 0 0 0 0 0 0 0.21 0.72 0.07 0 0 "
         result="result1"
         id="feColorMatrix12957" />
      <feColorMatrix
         values="1 0 0 0 0 0 1 0 0 0 0 0 1 0 0 0 0 0 2 0 "
         result="result9"
         id="feColorMatrix12959" />
      <feComposite
         in2="result9"
         in="SourceGraphic"
         operator="in"
         result="result4"
         id="feComposite12961" />
      <feFlood
         result="result2"
         flood-color="rgb(0,0,0)"
         id="feFlood12963" />
      <feComposite
         in2="result9"
         operator="in"
         result="result10"
         id="feComposite12965" />
      <feComposite
         in2="result4"
         operator="atop"
         id="feComposite12967" />
      <feGaussianBlur
         stdDeviation="3"
         result="result8"
         id="feGaussianBlur12969" />
      <feOffset
         dx="3"
         dy="3"
         result="result3"
         in="result8"
         id="feOffset12971" />
      <feFlood
         flood-opacity="1"
         flood-color="rgb(219,173,62)"
         result="result5"
         id="feFlood12973" />
      <feMerge
         result="result6"
         id="feMerge12981">
        <feMergeNode
           in="result5"
           id="feMergeNode12975" />
        <feMergeNode
           in="result3"
           id="feMergeNode12977" />
        <feMergeNode
           in="result4"
           id="feMergeNode12979" />
      </feMerge>
      <feComposite
         in2="SourceGraphic"
         operator="in"
         result="result7"
         id="feComposite12983" />
    </filter>
  </defs>
  <sodipodi:namedview
     id="base"
     pagecolor="#ffffff"
     bordercolor="#666666"
     borderopacity="1.0"
     inkscape:pageopacity="0.0"
     inkscape:pageshadow="2"
     inkscape:zoom="0.98994949"
     inkscape:cx="454.56865"
     inkscape:cy="374.26152"
     inkscape:document-units="cm"
     inkscape:current-layer="layer3"
     inkscape:document-rotation="0"
     showgrid="false"
     units="px"
     inkscape:pagecheckerboard="true"
     inkscape:showpageshadow="false"
     inkscape:window-width="1920"
     inkscape:window-height="1017"
     inkscape:window-x="-8"
     inkscape:window-y="-8"
     inkscape:window-maximized="1" />
  <metadata
     id="metadata5">
    <rdf:RDF>
      <cc:Work
         rdf:about="">
        <dc:format>image/svg+xml</dc:format>
        <dc:type
           rdf:resource="http://purl.org/dc/dcmitype/StillImage" />
      </cc:Work>
    </rdf:RDF>
  </metadata>
  <g
     inkscape:groupmode="layer"
     id="layer3"
     inkscape:label="pernas">
    <path
       id="rect9024"
       style="fill:#008080;fill-opacity:1;fill-rule:evenodd;stroke:none;stroke-width:1.32292;stroke-miterlimit:4;stroke-dasharray:none;stroke-dashoffset:0;stroke-opacity:1;filter:url(#filter12461-7);stop-color:#000000"
       d="m 83.993797,127.58411 v 9.10022 10.54406 1.48312 c 0,2.10996 1.69911,3.80855 3.80907,3.80855 2.10996,0 3.80856,-1.69859 3.80856,-3.80855 v -1.48312 -10.54406 -9.10022 z" />
  </g>
  <g
     inkscape:groupmode="layer"
     id="layer4"
     inkscape:label="braços">
    <path
       id="rect9006"
       style="fill:#008080;fill-opacity:1;fill-rule:evenodd;stroke:none;stroke-width:5.00001;stroke-miterlimit:4;stroke-dasharray:none;stroke-dashoffset:0;stroke-opacity:1;filter:url(#filter12401-5);stop-color:#000000"
       d="M 379.16602 394.4668 C 374.55443 394.4668 370.8418 398.17943 370.8418 402.79102 L 370.8418 414.93164 C 370.8418 419.54323 374.55443 423.25586 379.16602 423.25586 L 395.02539 423.25586 L 395.02539 455.55664 C 395.02539 462.84593 400.89431 468.71289 408.18359 468.71289 L 410.65625 468.71289 C 417.94553 468.71289 423.81445 462.84593 423.81445 455.55664 L 423.81445 407.625 C 423.81445 400.33572 417.94553 394.4668 410.65625 394.4668 L 409.49023 394.4668 L 408.18359 394.4668 L 379.16602 394.4668 z "
       transform="scale(0.26458334)" />
    <path
       id="rect9014"
       style="fill:#008080;fill-opacity:1;fill-rule:evenodd;stroke:none;stroke-width:5.00001;stroke-miterlimit:4;stroke-dasharray:none;stroke-dashoffset:0;stroke-opacity:1;filter:url(#filter12341-9);stop-color:#000000"
       d="M 294 394.4668 C 286.71072 394.4668 280.8418 400.33572 280.8418 407.625 L 280.8418 455.55664 C 280.8418 462.84593 286.71072 468.71289 294 468.71289 L 296.47461 468.71289 C 303.76389 468.71289 309.63281 462.84593 309.63281 455.55664 L 309.63281 423.25586 L 325.49023 423.25586 C 330.10182 423.25586 333.81445 419.54323 333.81445 414.93164 L 333.81445 402.79102 C 333.81445 398.17943 330.10182 394.4668 325.49023 394.4668 L 296.47461 394.4668 L 295.16602 394.4668 L 294 394.4668 z "
       transform="scale(0.26458334)" />
    <path
       id="path15133"
       style="fill:#803300;fill-opacity:1;stroke:#00fb00;stroke-width:0.999999px;stroke-linecap:butt;stroke-linejoin:miter;stroke-opacity:1"
       d="m 669.33789,5.3046875 c -23.91677,11.4383275 -7.28119,34.6632685 -9.88086,38.3027345 -2.59963,3.639466 -18.7168,8.83789 -18.7168,8.83789 l -22.87695,11.4375 c 0,0 -27.55677,-15.598062 -22.35742,-12.478515 5.19934,3.119542 17.15898,12.480837 18.71875,17.160156 1.55981,4.679316 -7.2793,15.076172 -7.2793,15.076172 l -4.16015,-4.158203 0.51953,10.396484 -5.71875,12.478514 -16.63672,8.32031 c 0,0 0.5194,-2.08122 5.71875,-8.32031 5.19927,-6.239095 2.59972,-15.077705 -5.19922,-23.396482 -15.59792,11.438327 -4.67971,25.476152 -2.08008,28.595702 2.59967,3.11955 -3.63936,9.35859 -10.39844,12.99805 -6.75911,3.63947 -8.31986,21.31757 -11.43945,24.95703 -3.11962,3.63947 -21.31676,6.75974 -23.39648,14.55859 -2.07973,7.79886 -16.11769,10.91751 -30.67578,21.83594 -14.55803,10.91839 -37.6211,26.22266 -37.6211,26.22266 0,0 -7.35522,7.35408 -16.91406,13.23632 -9.5588,5.88228 -27.69531,8.94336 -27.69531,8.94336 0,0 -12.13155,-2.20472 -20.95508,6.98633 -8.8235,9.19102 -33.08987,13.23576 -51.83985,12.13281 -18.74997,-1.10294 -16.17527,-1.6e-4 -33.82226,-1.4707 -17.64703,-1.47054 -12.86719,-3.31055 -12.86719,-3.31055 0,0 11.763,-10.65817 15.43945,-15.4375 3.6765,-4.77931 15.80964,-14.3412 22.79493,-13.23828 6.98528,1.10294 8.57747,-2.4489 18.5039,-4.28711 9.92648,-1.8382 16.5439,-12.13339 22.0586,-13.23632 5.51467,-1.1029 12.13417,-4.04234 17.28125,-7.71875 5.14707,-3.67642 24.999,-2.20538 30.51367,-0.36719 5.51471,1.8382 15.80829,-0.001 19.11719,-2.20703 3.30878,-2.20583 -1.47071,-7.35352 -1.47071,-7.35352 0,0 1.10424,10.66216 -13.60156,5.88281 -14.70588,-4.77934 -48.89648,4.77735 -48.89648,4.77735 0,0 1.46923,-5.87976 1.10156,-9.92383 -0.36775,-4.04407 16.54297,-12.13477 16.54297,-12.13477 0,0 2.57576,-2.5719 2.94336,-9.18945 0.36774,-6.61755 6.61718,-8.45508 6.61718,-8.45508 l 18.38282,-5.14648 c 0,0 -15.44092,1.83729 -15.8086,0.73437 -0.36774,-1.10292 1.83789,-3.67578 1.83789,-3.67578 0,0 8.08783,-2.20699 12.86719,-6.98633 4.77944,-4.77934 19.11834,-17.28034 21.32422,-18.01562 0,0 -1.10337,-5.88063 -5.88281,1.83984 -4.77937,7.72048 -27.20703,20.21875 -27.20703,20.21875 l -5.14649,2.20703 -1.4707,-9.1914 c 0,0 -2.69646,-2.14231 -4.90235,-7.10547 -2.20584,-4.96316 -0.73563,-2.45081 -1.2871,-9.06836 -0.55151,-6.61755 2.57421,-14.52344 2.57421,-14.52344 l 6.98633,-3.552732 c 0,0 1.46949,-0.368374 13.41797,-2.574219 11.94852,-2.205861 22.42578,-16.361328 22.42578,-16.361328 0,0 -11.02979,0.92101 -23.16211,4.78125 -12.13236,3.860235 -13.72265,13.417968 -13.72265,13.417968 0,0 -3.86174,3.308681 -5.14844,1.654301 -1.28678,-1.654386 3.86076,-13.787065 5.88281,-18.56641 2.02201,-4.779341 0.55078,-3.308594 0.55078,-3.308594 l -4.22851,3.859375 c 0,0 -2.20626,-0.734736 -1.28711,-2.021484 0.9191,-1.286744 1.47126,-11.027527 -0.55078,-15.623047 -2.02205,-4.595524 -9.74171,-8.824628 -10.10938,-5.332031 -0.36775,3.492593 -1.10378,9.190225 2.20508,14.888672 3.30879,5.698442 8.4563,8.089523 9.00781,9.927734 0.55144,1.8382 -2.02239,12.069351 -4.41211,17.583985 -2.38968,5.51462 -3.49218,12.07227 -3.49218,12.07226 0,0 -0.73497,13.78548 4.4121,19.85157 5.14704,6.06607 4.22657,14.46094 4.22657,14.46093 0,0 -9.92446,8.64027 -12.49805,15.25782 -2.57352,6.61753 -7.47656,8.88476 -7.47656,8.88476 0,0 -6.9839,0.3664 -10.47656,-0.55273 -3.49265,-0.91912 -9.06836,-9.92578 -9.06836,-9.92578 0,0 -8.27385,-13.96866 -9.56055,-15.62305 -1.28678,-1.65439 -2.70703,-0.56055 -2.70703,-0.56055 l 15.07812,27.03711 c 0,0 -5.19824,4.2e-4 -16.63672,-3.11914 -11.43847,-3.11954 -15.59955,1.03985 -20.79882,0 -5.19935,-1.03984 -3.64063,-7.27734 -3.64063,-7.27734 l 4.16211,-5.20117 -0.52148,-8.31836 4.16015,-4.67774 8.31836,-4.68164 c 0,0 2.59978,2.5992 12.47852,5.71875 9.87862,3.11954 23.39648,1.56055 23.39648,1.56055 0,0 -13.82013,-9.27178 -24.21875,-10.18164 -10.39861,-0.90987 -8.71045,-0.51894 -4.29101,-1.29883 19.49733,-2.20967 19.67102,-7.23707 23.31054,-19.19531 -21.31716,2.07969 -24.95703,14.03906 -24.95703,14.03906 0,0 -7.79732,11.43674 -4.67773,4.67773 3.11954,-6.759 -1.56117,-15.07655 -10.91992,-19.75585 -5.19931,17.15748 6.75976,21.83789 6.75976,21.83789 l -10.91797,7.79687 v 10.91992 l -4.16015,4.67774 c 0,0 0.51885,7.27888 -3.64063,10.39843 -4.15944,3.11957 1.04226,14.55818 -3.11719,17.67774 -4.15944,3.11955 -14.55816,22.87694 -12.47851,28.07617 2.07976,5.19924 -22.87642,25.99805 -31.19531,25.99805 -8.31893,0 -58.58048,45.57803 -80.9375,58.57617 -22.35701,12.99806 -40.03516,6.24023 -40.03516,6.24023 l 10.39844,-7.79882 c 0,0 -8.83891,6.23828 -17.67774,6.23828 -8.83881,0 -21.3164,-18.19727 -21.3164,-18.19727 l -8.31836,-1.73242 c 0,0 -4.67902,2.59999 -20.79688,2.08008 -16.117838,-0.51995 -9.880858,-2.08008 -9.880858,-2.08008 0,0 13.519678,-5.71952 28.597658,-7.2793 15.07799,-1.55977 62.07617,5.79102 62.07617,5.79102 0,0 5.51541,0.91841 5.69922,0.55078 0.1838,-0.36775 1.6543,-3.67383 1.6543,-3.67383 0,0 4.9637,-5.6996 9.00781,-10.11133 4.04411,-4.41169 23.71175,-16.54305 27.75586,-18.01367 4.04411,-1.47054 13.05262,-2.5754 24.08203,-4.78125 l 3.85937,-2.57226 c -2.2059,1.47057 -19.85202,2.9401 -25.73437,2.38867 -2.75735,-2.20589 13.78631,-18.99562 19.11719,-24.14258 3.49262,0 21.50779,-8.27156 27.75781,-14.52148 0,0 0.36678,-0.36597 -4.22852,3.31054 -4.59556,3.67642 -27.93945,10.78321 -27.93945,10.78321 0,0 -4.04595,4.41131 -4.78125,6.61718 -0.73529,2.20588 4.6e-4,5.8e-4 -0.36719,1.10352 -0.36767,1.10294 1e-4,0.36797 -11.02929,7.7207 -11.0294,7.35284 -3.67557,14.33802 -13.23438,15.8086 -9.55881,1.47057 -30.27148,21.6914 -30.27148,21.6914 l -34.3086,-2.36914 -30.76172,-1.94922 c 0,0 1.5607,-4.28967 3.9004,-3.50976 9.09878,3.11954 25.47564,-2.68565 34.31445,-6.45508 -5.32929,0 -14.68777,-3.12059 -21.9668,-2.4707 -7.27902,0.64992 -14.08203,7.01953 -14.08203,7.01953 0,0 -0.3892,-0.91021 1.56055,-3.50977 17.54765,-10.39854 11.69911,-16.89704 6.75976,-26.51562 -18.97746,5.84911 -11.56955,22.52804 -10.00976,25.51757 1.5598,2.98957 -2.08008,9.09961 -2.08008,9.09961 l -1.94922,0.0859 -5.19922,3.64063 -16.638671,0.51953 c 0,0 -8.838472,9.35982 -20.796875,6.24023 -11.958406,-3.11951 -20.27539,7.79688 -20.27539,7.79688 L 47.5,292.65039 c -3.119584,3.11951 -20.797688,12.47731 -42.6347656,16.63672 -3.4109439,4.39487 -3.90046197,7.43643 -3.1855469,10.01367 L 5.0507812,617.20312 30.304688,604.07031 c 0,0 230.315592,42.42751 115.158202,-18.18164 C 87.721144,611.59934 22.982512,547.93762 39.017578,353.46875 c 20.588209,2.20581 9.558023,10.29653 14.705078,5.88477 5.147048,-4.4117 22.061493,2.93987 33.826172,7.35156 11.764687,4.41165 91.910622,8.08672 97.792972,16.91015 5.88234,8.82335 4.41211,-12.49804 4.41211,-12.49804 0,0 -37.49951,-8.08904 -80.14649,-10.29492 -42.646988,-2.20589 -55.148436,-24.26368 -55.148436,-24.26368 0,0 67.892366,0.73463 77.451176,3.67579 9.55881,2.94115 82.35249,-17.64607 94.11718,-13.23438 11.76469,4.41173 38.23495,3.67609 70.58789,-2.94141 32.35287,-6.61761 46.32457,2.20556 63.23633,-2.9414 16.91173,-5.147 43.38137,48.53038 49.26367,60.29492 5.88235,11.7645 38.97132,2.20396 71.32422,11.02734 32.35287,8.82342 13.23549,-0.73559 38.97071,-13.9707 -16.91173,-18.382 -33.82384,5.88269 -52.94141,4.41211 -19.11761,-1.47058 -14.70482,-5.88281 -35.29297,-5.88281 -20.58822,0 -16.91258,-17.64588 -22.79492,-21.32227 -5.88234,-3.6765 -20.589,-25.73483 -22.79492,-30.14648 -2.20585,-4.41177 0.7362,-16.91167 -0.73438,-22.0586 -1.47061,-5.14703 14.70449,-23.5301 43.38086,-21.32422 28.67649,2.20581 47.34375,-7.17382 47.34375,-7.17382 l 21.83594,-16.63672 c 0,0 20.79812,14.55665 39.51562,24.95508 18.71751,10.3985 39.51563,24.95507 39.51563,24.95507 0,0 -4.24701,-13.51674 -10.74609,-14.55664 -6.4992,-1.03982 -36.65627,-27.29431 -54.33399,-35.87304 17.93764,-8.31882 74.95675,18.71516 80.41602,20.79492 5.45926,2.07972 34.83819,-15.76932 49.65625,-18.62891 14.81797,-2.85955 6.15999,2.06653 28.21875,3.53711 -17.64699,-22.05849 -53.06337,3.92278 -69.60742,7.9668 -16.54409,4.04405 -52.45118,-14.33789 -52.45118,-14.33789 0,0 -15.44069,-3.67616 -19.11718,-8.08789 -3.67643,-4.41169 3.67578,-4.78125 3.67578,-4.78125 0,0 7.35313,2.94324 13.9707,6.25195 6.61765,3.30883 32.35213,-1.84001 20.95508,-3.31055 -11.39698,-1.47057 -24.99805,-7.35156 -24.99805,-7.35156 0,0 -19.8534,5.14689 0.36719,-1.4707 20.22058,-6.61758 -4.77867,1.10298 21.32422,-20.58789 -26.10289,-8.45576 -36.52161,30.51248 -37.99219,28.30664 -1.47058,-2.20589 -4.77945,2.5754 -12.5,4.78125 -7.72059,2.20584 -12.86626,-4.78013 -26.10156,-13.60352 -13.23523,-8.82343 -38.97071,-5.51562 -38.97071,-5.51562 l 8.82422,-8.08789 c 0,0 29.05524,1.62892 46.55664,-2.80079 -14.6143,3.23731 -38.83593,-3.44921 -38.83593,-3.44921 l 54.15039,-37.26758 26.51562,-22.35742 12.65039,-5.19922 c 0,0 5.20102,7.2793 13,4.67969 7.79894,-2.59962 40.55469,5.19921 40.55469,5.19921 0,0 15.5979,0.5203 25.47656,7.2793 0,0 47.83239,-32.2368 49.91211,-10.91992 2.07976,21.31689 3.64021,5.19993 27.03711,27.55664 7.27899,-13.51799 -5.71931,-26.51719 -17.67773,-27.03711 -11.95839,-0.51993 10.39792,-17.15786 -29.63672,-7.2793 -40.03465,9.87855 -44.19184,9.35981 -46.27149,1.04102 15.07794,-5.71916 13.69141,-24.26172 13.69141,-24.26172 0,0 2.59677,4.1586 8.83594,3.63867 6.23917,-0.51992 28.07734,-19.23593 31.71679,-22.35547 3.63954,-3.11954 68.10995,-4.68164 82.66797,-4.68164 7.79898,12.47817 20.27907,8.31954 35.87696,4.16016 -5.71922,-16.117649 -25.99721,-6.23946 -27.03711,-7.2793 -1.03983,-1.03985 -7.27864,-5.198825 2.08008,-5.718748 9.35875,-0.519923 21.31664,-2.60112 31.19531,-16.119141 -19.23742,-14.037947 -41.59375,18.199219 -41.59375,18.199219 0,0 -13.24339,6.22551 -40.44922,5.49023 -27.20583,-0.73528 -39.70556,-3.67727 -58.08789,11.76368 -18.3823,15.44095 -29.41211,8.08789 -29.41211,8.08789 0,0 -0.73408,19.11786 -21.32227,26.4707 -20.58825,7.35283 -37.55664,-5.19141 -37.55664,-5.19141 l -6.24023,-4.16211 c 0,0 7.80025,-10.39645 16.11914,-15.5957 1.55985,-17.15749 20.27734,-20.27734 20.27734,-20.27734 l 10.39844,-7.800784 6.75977,-0.519531 24.43554,-19.236328 c 0,0 29.11577,-0.519089 43.67383,-14.037109 14.55806,-13.518021 15.42522,-9.880052 26.34375,-16.119141 10.91856,-6.239089 26.51758,-6.757813 26.51758,-6.757813 l 46.27148,-5.71875 -36.91406,1.039063 9.35938,-4.679688 3.11914,-13.517578 -5.19922,12.998047 -9.87891,5.199219 -39.86133,8.318359 c 0,0 -16.11896,9.358561 -26.51757,18.197266 -10.39862,8.838701 -38.47461,10.917969 -38.47461,10.917969 l -16.11719,10.40039 -17.1582,11.957031 5.20117,-11.957031 c 0,0 4.67889,-6.241397 5.71875,-9.880859 1.03982,-3.63947 5.19755,-7.797642 9.87695,-11.957031 4.67936,-4.159393 18.71698,-10.399593 31.19531,-14.039063 12.4783,-3.639462 31.19727,-5.890625 31.19727,-5.890625 l -4.16016,-2.601562 -22.35547,4.68164 c 0,0 -6.23958,-0.521847 0.51953,-7.800781 6.75905,-7.278939 11.43915,-18.197215 4.16016,-31.1953125 z M 345.25586,172.27344 c 3.45566,0.0986 7.54897,0.96006 12.14453,3.25781 14.70588,7.35283 20.58789,6.61719 20.58789,6.61719 0,0 -4.4114,13.97022 -20.58789,19.11718 -16.17641,5.147 -32.35381,5.14792 -35.29492,10.29493 -2.94119,5.14696 -8.08636,-4.41253 -1.46875,-8.82422 6.61761,-4.41169 5.8801,-24.26367 9.55664,-24.26367 h 3.67773 l -0.73632,-2.94141 c 0,0 4.51865,-3.475 12.12109,-3.25781 z m 101.55273,64.36328 c 13.76338,0.0985 29.61742,4.12052 46.6211,15.60937 -25.00003,16.17623 -14.70521,16.17668 -28.67578,15.44141 -13.97061,-0.73523 -22.05916,3.67562 -29.41211,2.20508 -7.35296,-1.47062 -28.6766,-7.35227 -38.97071,-14.70508 0,0 20.15797,-18.76798 50.4375,-18.55078 z m -149.60547,21.01562 c 4.6862,-0.0533 12.6004,1.93954 24.29883,3.10938 20.79723,2.07972 67.07355,-7.27935 85.79102,13.51758 -22.87691,10.3985 -68.63123,38.99415 -96.1875,33.79492 -27.55639,-5.19927 -48.87305,-18.19727 -48.87305,-18.19727 5.19932,-6.75896 29.63477,-18.19643 29.63477,-27.03515 0,-3.86691 1.69107,-5.14765 5.33593,-5.18946 z m -215.783198,29.88868 -2.205078,5.14453 c 0,0 33.085846,2.20639 44.115236,5.88281 11.02939,3.67642 25.00296,11.02968 13.23828,15.44141 -11.76469,4.41169 -95.589844,0.73437 -95.589844,0.73437 -12.499978,-8.08807 40.441406,-27.20312 40.441406,-27.20312 z"
       transform="scale(0.26458334)"
       sodipodi:nodetypes="csccsscccccscssssscscssscssssssscscsccccscscscccssccscscssccsssssscscscscsccsscccccscscccscccccsscssccsccscscscsccccccccsscscccccscccsccccccsccccccssscscsscssscssscssccscscsscscscsscscssscccccccsccscssccssccssccsscscccccccssccccccccsccccssscccsccscscsscccccsscccscscscccsscc" />
  </g>
  <g
     inkscape:groupmode="layer"
     id="layer2"
     inkscape:label="corpo">
    <rect
       style="fill:#008080;fill-opacity:1;fill-rule:evenodd;stroke:none;stroke-width:1.32292;stroke-miterlimit:4;stroke-dasharray:none;stroke-dashoffset:0;stroke-opacity:1;stop-color:#000000;filter:url(#filter12371)"
       id="rect8766"
       width="18.040695"
       height="29.666912"
       x="84.040146"
       y="104.36942"
       ry="5.2574286" />
  </g>
  <g
     inkscape:label="Layer 1"
     inkscape:groupmode="layer"
     id="layer1">
    <path
       style="opacity:1;fill:#aa4400;fill-opacity:1;fill-rule:evenodd;stroke:#0af12b;stroke-width:0.312208;stroke-dasharray:1.87325, 1.87325;stroke-opacity:1;stop-color:#000000"
       id="path6793"
       d="m 91.367323,53.09198 c -0.42328,0.14632 -0.8721,0.220058 -1.31505,0.316007 -0.42818,0.09275 -0.57573,0.14366 -1.00215,0.266708 -0.31339,0.11159 -0.76181,0.25859 -1.0489,0.41192 -0.43442,0.232024 -0.90976,0.613487 -1.19721,0.962684 -0.10137,0.123111 -0.17552,0.259179 -0.26329,0.388769 -0.0798,0.144665 -0.15904,0.289515 -0.23935,0.433991 -0.23998,0.431676 -0.27205,0.45729 -0.46663,0.910514 -0.18726,0.436219 -0.31414,0.877104 -0.42554,1.32858 -0.10148,0.674577 -0.20389,1.360861 -0.17539,2.042286 0.006,0.147997 0.0292,0.295245 0.0439,0.442863 0.1,1.073602 0.40689,2.119592 0.76698,3.153815 0.49411,1.066022 0.88279,2.158812 1.24045,3.258053 0.36672,1.168123 0.59013,2.362017 0.96541,3.527801 0.59885,1.519775 1.1212,3.059302 1.53745,4.617446 0.15484,0.680279 0.18811,0.775795 0.29728,1.446406 0.0338,0.207717 0.0484,0.417397 0.0884,0.624411 0.1197,0.618846 0.31531,1.232854 0.47469,1.845808 0.28418,1.100997 0.33498,2.225027 0.46334,3.340674 0.26297,1.541403 0.46387,3.08829 0.75267,4.626731 0.0362,0.207469 0.0612,0.416383 0.10832,0.622431 0.0497,0.216817 0.12522,0.429364 0.18196,0.645064 0.15824,0.601577 0.27984,1.207953 0.50312,1.797798 0.0856,0.226079 0.1894,0.447493 0.2841,0.67124 0.097,0.221097 0.18891,0.443647 0.29085,0.663314 0.11388,0.245335 0.23763,0.487653 0.35644,0.731479 0.13087,0.274618 0.2655,0.548127 0.39263,0.823871 0.24843,0.538835 0.45801,1.088855 0.71042,1.626516 0.13845,0.294953 0.29644,0.583814 0.44465,0.875717 0.53191,1.066572 1.10129,2.12168 1.52638,3.219835 0.20935,0.540831 0.22897,0.644226 0.38524,1.172411 0.16614,0.762587 0.2651,1.541837 0.25881,2.316967 -0.003,0.34057 -0.0573,0.76198 -0.0944,1.10112 -0.13322,0.8474 -0.47318,1.67654 -1.0958,2.37859 -0.10369,0.1169 -0.22673,0.22201 -0.34009,0.33303 -0.27978,0.20009 -0.39644,0.31237 -0.7326,0.44499 -0.54803,0.21622 -1.18112,0.25693 -1.77903,0.29903 -0.50211,0.0169 -0.47096,0.019 -0.97618,0.0234 -0.1611,0.002 -0.64445,0.002 -0.48334,0.002 2.02493,0.002 0.79369,0.0159 0.37594,-0.0359 -0.21234,-0.0263 -0.41821,-0.079 -0.62733,-0.11845 -0.61288,-0.20258 -1.35758,-0.45692 -1.84599,-0.82794 -0.18597,-0.14127 -0.34736,-0.30373 -0.4917,-0.47322 -0.40201,-0.47208 -0.46162,-0.70533 -0.71078,-1.24299 -0.31351,-0.82874 -0.52824,-1.68264 -0.38814,-2.55074 0.0737,-0.45628 0.18041,-0.65438 0.35497,-1.08933 0.44217,-0.947017 1.23795,-1.725726 2.07527,-2.466066 0.92326,-0.715918 1.70606,-1.533091 2.40069,-2.395923 0.50442,-0.587854 0.92507,-1.212839 1.1952,-1.893462 0.14374,-0.362182 0.16397,-0.488969 0.25699,-0.853882 0.0768,-0.425692 0.14584,-0.852006 0.0883,-1.2826 -0.0213,-0.159615 -0.0664,-0.316636 -0.0996,-0.474942 0,0 -1.51279,0.02004 -1.51279,0.02004 v 0 c 0.0324,0.153253 0.0763,0.305228 0.0971,0.45975 0.0563,0.420654 -0.0126,0.837795 -0.0891,1.253411 -0.0906,0.356498 -0.11075,0.483117 -0.2521,0.836614 -0.26842,0.671394 -0.69327,1.285138 -1.18958,1.865615 -0.47933,0.581627 -0.98871,1.165089 -1.57235,1.684516 -0.14039,0.124927 -0.29553,0.238772 -0.44109,0.359883 -0.13192,0.10975 -0.26087,0.221768 -0.39132,0.332659 -0.8431,0.755629 -1.63593,1.553306 -2.07236,2.517427 -0.1786,0.45577 -0.27955,0.64121 -0.35287,1.11901 -0.13587,0.8854 0.0752,1.75412 0.39515,2.59968 0.10241,0.22848 0.18458,0.46338 0.30715,0.68542 0.19982,0.36204 0.53552,0.81699 0.89093,1.10155 0.46908,0.37557 1.25643,0.65455 1.85069,0.87412 0.2097,0.0464 0.4152,0.1071 0.62909,0.1389 0.19953,0.0297 0.40338,0.0413 0.60627,0.0448 1.15634,0.0202 2.3201,0.0134 3.4761,-0.0349 1.01114,-0.0885 1.80391,-0.21116 2.52023,-0.84076 0.11295,-0.11603 0.23504,-0.22671 0.33877,-0.3481 0.6192,-0.72469 0.96019,-1.5689 1.09373,-2.43437 0.0392,-0.36523 0.0894,-0.7486 0.0914,-1.11561 0.003,-0.78309 -0.089,-1.57045 -0.25694,-2.341102 -0.16264,-0.536384 -0.18098,-0.633257 -0.39703,-1.182494 -0.43258,-1.099688 -1.00383,-2.15751 -1.5376,-3.227092 -0.14661,-0.289764 -0.30287,-0.576525 -0.43983,-0.869275 -0.25222,-0.53909 -0.46435,-1.0897 -0.71157,-1.630267 -1.51281,-3.307768 0.6413,1.431397 -0.73837,-1.552812 -0.10137,-0.219316 -0.19393,-0.441203 -0.2909,-0.661813 -0.0928,-0.221079 -0.19403,-0.44002 -0.27835,-0.663254 -0.22244,-0.588922 -0.34672,-1.193134 -0.50564,-1.79357 -0.0562,-0.212394 -0.13081,-0.421684 -0.18016,-0.635172 -0.0477,-0.206543 -0.0738,-0.41588 -0.11086,-0.62382 -0.29808,-1.534624 -0.50751,-3.078247 -0.75097,-4.618899 -0.11284,-1.121706 -0.18138,-2.248754 -0.46105,-3.355132 -0.1607,-0.609234 -0.35476,-1.219705 -0.47622,-1.834871 -0.13681,-0.692838 -0.18235,-1.398888 -0.39856,-2.08205 -0.41806,-1.558216 -0.93036,-3.101039 -1.5244,-4.622443 -0.37168,-1.166598 -0.602,-2.359223 -0.96607,-3.527849 -0.34885,-1.101748 -0.73718,-2.1958 -1.23804,-3.260624 -0.35926,-1.026502 -0.66072,-2.064429 -0.75756,-3.130551 -0.0139,-0.143761 -0.036,-0.287161 -0.0416,-0.431282 -0.0261,-0.674258 0.0694,-1.35373 0.17382,-2.020971 0.22967,-0.935134 0.58616,-1.783965 1.12931,-2.635401 0.0874,-0.122723 0.16196,-0.251748 0.26188,-0.36817 0.30236,-0.352301 0.73763,-0.685707 1.18963,-0.91367 0.30842,-0.155543 0.71414,-0.280818 1.0477,-0.394161 0.17505,-0.04817 0.3487,-0.09978 0.52519,-0.144515 0.60413,-0.153135 1.23694,-0.235939 1.81536,-0.451247 0,0 -1.52666,-0.135493 -1.52666,-0.135493 z" />
    <path
       style="opacity:1;fill:#aa4400;fill-opacity:1;fill-rule:evenodd;stroke:#0af12b;stroke-width:0.312208;stroke-dasharray:1.87325, 1.87325;stroke-opacity:1;stop-color:#000000"
       id="path6910"
       d="m 93.573263,56.539452 c -0.16957,0.401966 -0.51303,0.683477 -0.83874,0.957054 -0.34274,0.230431 -0.68478,0.461845 -1.07429,0.606387 -0.25663,0.09523 -0.3051,0.09607 -0.57232,0.15471 -0.81421,0.1772 -1.6483,0.229998 -2.47854,0.268812 -0.76351,0.02712 -1.52761,0.02753 -2.29151,0.027 2.29587,-0.03674 0.89223,0.113995 0.40248,-0.26596 -0.16112,-0.125008 -0.19803,-0.217466 -0.3035,-0.386351 -0.14273,-0.302327 -0.21836,-0.634849 -0.23007,-0.969205 -0.006,-0.163203 0.019,-0.403994 0.0322,-0.56422 0.0372,-0.607143 0.25549,-1.178338 0.49852,-1.729251 0.26614,-0.463712 0.57293,-0.928163 0.97782,-1.284791 0.0989,-0.08714 0.20758,-0.162602 0.31137,-0.243902 0.11778,-0.08855 0.2326,-0.181185 0.35333,-0.265667 0.13089,-0.09159 0.26691,-0.175643 0.40116,-0.262265 0.3628,-0.234111 0.7298,-0.472835 1.12559,-0.649033 0.10809,-0.04812 0.2209,-0.08487 0.33135,-0.127303 0.10322,-0.03009 0.20402,-0.06956 0.30947,-0.09026 0.10067,-0.01975 0.20411,-0.02034 0.30616,-0.03051 -0.39286,0.0066 -0.78635,-0.0036 -1.17858,0.01977 -0.10206,0.006 0.20393,0.01653 0.30492,0.03213 0.27494,0.04245 0.36398,0.07859 0.63365,0.157723 0.60093,0.194892 1.10913,0.560304 1.58691,0.962027 0.29562,0.291608 0.15369,0.129156 0.41933,0.49292 0,0 1.50424,-0.09116 1.50424,-0.09116 v 0 c -0.25971,-0.395427 -0.11817,-0.22028 -0.41581,-0.532464 -0.48183,-0.416549 -0.99232,-0.802282 -1.5977,-1.022117 -0.25431,-0.08444 -0.37341,-0.133117 -0.6345,-0.184744 -0.1016,-0.02011 -0.204,-0.04244 -0.30759,-0.04487 -0.33122,-0.0078 -1.49089,-0.111133 -2.1194,0.05038 -0.10485,0.02694 -0.20524,0.06866 -0.30786,0.103 -0.11006,0.04718 -0.22237,0.08948 -0.33024,0.141516 -0.22412,0.108121 -0.50783,0.277685 -0.71587,0.407081 -0.16239,0.100995 -0.65394,0.42061 -0.80785,0.5297 -0.12186,0.08639 -0.23845,0.179994 -0.35768,0.269992 -0.10577,0.08709 -0.21629,0.168653 -0.31721,0.261291 -0.40985,0.3762 -0.72156,0.855521 -0.98631,1.339784 -0.24159,0.568662 -0.46478,1.155125 -0.50015,1.778452 -0.0161,0.19039 -0.0394,0.399225 -0.0338,0.591056 0.0104,0.356385 0.0864,0.70955 0.2303,1.035571 0.1016,0.18243 0.15413,0.308683 0.30858,0.45605 0.60148,0.573897 2.08526,0.313741 2.59916,0.351902 0.76135,-0.0015 1.52298,-0.0038 2.28379,-0.03578 0.83586,-0.04537 1.67501,-0.107553 2.49302,-0.295328 0.2637,-0.07019 0.3231,-0.07625 0.57467,-0.181811 0.3902,-0.163724 0.74081,-0.403831 1.08305,-0.649404 0.33838,-0.293443 0.67092,-0.603511 0.86285,-1.016708 0,0 -1.53443,-0.0712 -1.53443,-0.0712 z" />
    <path
       style="opacity:1;fill:#aa4400;fill-opacity:1;fill-rule:evenodd;stroke:#0af12b;stroke-width:0.312208;stroke-dasharray:1.87325, 1.87325;stroke-opacity:1;stop-color:#000000"
       id="path6918"
       d="m 95.348563,55.843418 c 0.0797,0.656913 0.20503,1.306305 0.28937,1.962802 0.059,0.526968 0.11353,1.057862 0.0478,1.587118 -0.0123,0.09842 -0.0342,0.195408 -0.0512,0.293112 -0.0273,0.09138 -0.0408,0.188172 -0.082,0.274141 -0.0462,0.09599 -0.11249,0.181365 -0.17748,0.265713 -0.40671,0.527482 -0.9534,0.856075 -1.515,1.193948 -0.9195,0.483928 -1.92177,0.798281 -2.94132,0.989498 -0.18327,0.03441 -0.36813,0.05967 -0.55219,0.08956 -0.50241,0.06766 -1.00844,0.103579 -1.51472,0.124921 -0.14313,0.0058 -0.28683,0.0011 -0.42955,0.01344 -0.20724,0.01796 -0.62612,0.09501 -0.83476,0.131293 -0.61433,0.144305 -1.24766,0.164557 -1.86755,0.26787 -0.15366,0.04356 -0.3716,0.09443 -0.51153,0.177916 -0.34742,0.207206 -0.62165,0.623728 -0.83032,0.957798 -0.34999,0.61754 -0.49575,1.30933 -0.59454,2.0042 -0.0854,0.66461 -0.0953,1.33514 -0.10113,2.00415 -5.2e-4,0.1008 -9.7e-4,0.20147 -0.002,0.30221 0,0 1.51254,5.2e-4 1.51254,5.2e-4 v 0 c -2e-5,-0.10045 -5e-5,-0.20094 -7e-5,-0.30141 0.005,-0.66204 0.014,-1.32581 0.0957,-1.98371 0.0993,-0.67407 0.24748,-1.34453 0.59554,-1.9394 0.21987,-0.32939 0.46046,-0.682513 0.82882,-0.861923 0.15522,-0.07554 0.34076,-0.107751 0.50676,-0.145672 0.61932,-0.08411 1.24284,-0.140284 1.85513,-0.27203 0.32354,-0.05214 0.49969,-0.08724 0.83001,-0.112269 0.14197,-0.01043 0.28463,-0.0093 0.42683,-0.01715 0.50442,-0.02607 1.00843,-0.06789 1.50819,-0.142567 0.1831,-0.03233 0.36704,-0.06025 0.54929,-0.09709 1.02452,-0.207147 2.03001,-0.535914 2.94884,-1.038483 0.5665,-0.351881 1.14864,-0.707204 1.54334,-1.260838 0.0693,-0.09727 0.13514,-0.198586 0.18345,-0.307833 0.0408,-0.09221 0.0543,-0.194193 0.0816,-0.291291 0.0509,-0.307746 0.0905,-0.614817 0.0849,-0.927923 -0.006,-0.333406 -0.0606,-0.66559 -0.0871,-0.997353 -0.0864,-0.648132 -0.2104,-1.291421 -0.26358,-1.943202 0,0 -1.53222,0 -1.53222,0 z" />
    <ellipse
       style="opacity:1;fill:#008080;fill-opacity:1;fill-rule:evenodd;stroke:none;stroke-width:1.32292;stroke-miterlimit:4;stroke-dasharray:none;stroke-dashoffset:0;stroke-opacity:1;stop-color:#000000;filter:url(#filter12311)"
       id="path7022"
       cx="92.872231"
       cy="96.687393"
       rx="8.0882587"
       ry="8.0881548" />
  </g>
</svg>
